<svg width="16" height="16" viewBox="0 0 16 16" fill="none" xmlns="http://www.w3.org/2000/svg"><g clip-path="url(#clip0_48246_44968)"><path d="M-.963 3.518H3.52l.185.185h8.593l.185-.185h4.482v8.963h-4.482l-.184-.184H3.704l-.185.184H-.963V3.519z" fill="#F5222D"/><path d="M3.52 1.277h8.963v13.446H3.52V1.277zm4.65 10.514l-.085-1.612a.178.178 0 0 1 .208-.183l1.604.282-.217-.597a.121.121 0 0 1 .037-.137l1.758-1.423-.396-.185a.121.121 0 0 1-.064-.147l.348-1.068-1.013.215a.121.121 0 0 1-.136-.071l-.196-.462-.79.848a.121.121 0 0 1-.207-.106L9.4 5.18l-.61.353a.121.121 0 0 1-.17-.05L8 4.265l-.62 1.218a.121.121 0 0 1-.17.05L6.6 5.18l.38 1.965a.121.121 0 0 1-.207.106l-.79-.848-.196.462a.121.121 0 0 1-.136.07L4.64 6.722l.347 1.068a.121.121 0 0 1-.063.147l-.396.185 1.757 1.423a.121.121 0 0 1 .037.137l-.216.597 1.604-.282a.177.177 0 0 1 .207.183l-.084 1.612h.336z" fill="#F1F8FE"/></g><defs><clipPath id="clip0_48246_44968"><rect x="2" y="2" width="12" height="12" rx="6" fill="#fff"/></clipPath></defs></svg>