<svg width="16" height="16" viewBox="0 0 16 16" fill="none" xmlns="http://www.w3.org/2000/svg"><g clip-path="url(#clip0_48846_46958)"><g clip-path="url(#clip1_48846_46958)"><path d="M8 15A7 7 0 1 0 8 1a7 7 0 0 0 0 14z" fill="#2F54EB"/><path d="M8 3.74l.227.697h.733l-.593.43.226.698L8 5.135l-.593.43.226-.697-.593-.431h.733L8 3.739zM4.987 4.987l.654.333.518-.518-.114.724.653.333-.724.115-.115.724-.333-.653-.724.114.518-.518-.333-.654zM3.74 8l.697-.227V7.04l.43.593.698-.226-.43.593.43.593-.697-.226-.431.593v-.733L3.739 8zm1.247 3.013l.333-.653-.518-.519.724.115.333-.654.115.725.724.114-.653.333.114.725-.518-.519-.654.333zM8 12.261l-.227-.697H7.04l.593-.431-.226-.698.593.431.593-.43-.226.697.593.43h-.733L8 12.262zm3.014-1.248l-.654-.333-.519.519.115-.725-.653-.333.724-.114.115-.725.333.654.724-.115-.518.519.333.653zM12.26 8l-.697.227v.733l-.431-.593-.697.226.43-.593-.43-.593.697.226.431-.593v.733l.698.227zm-1.246-3.013l-.333.654.518.518-.724-.114-.333.653-.115-.724-.724-.115.653-.333-.115-.724.519.518.654-.333z" fill="#FADB14"/></g></g><defs><clipPath id="clip0_48846_46958"><rect x="2" y="2" width="12" height="12" rx="6" fill="#fff"/></clipPath><clipPath id="clip1_48846_46958"><path fill="#fff" transform="translate(1 1)" d="M0 0h14v14H0z"/></clipPath></defs></svg>