<svg width="16" height="16" viewBox="0 0 16 16" fill="none" xmlns="http://www.w3.org/2000/svg">
<mask id="mask0_49372_48477" style="mask-type:alpha" maskUnits="userSpaceOnUse" x="2" y="2" width="12" height="12">
<circle cx="8" cy="8" r="6" fill="#C4C4C4"/>
</mask>
<g mask="url(#mask0_49372_48477)">
<path d="M14 2H2V14H14V2Z" fill="#F5222D"/>
<path d="M14 10H2V14H14V10Z" fill="#01953F"/>
<g clip-path="url(#clip0_49372_48477)">
<path d="M18 1H-2V15H18V1Z" fill="#EE1C25"/>
<path d="M7.04617 3.92137C7.13701 3.95191 7.21992 4.00403 7.28846 4.07368C7.357 4.14334 7.40932 4.22864 7.44135 4.32298C7.47339 4.41731 7.48427 4.51814 7.47317 4.61761C7.46206 4.71708 7.42926 4.81252 7.37731 4.89652C7.29742 5.02569 7.24547 5.17169 7.22511 5.32422C7.20474 5.47675 7.21647 5.63211 7.25945 5.77938C7.30243 5.92664 7.37563 6.06222 7.47389 6.17658C7.57216 6.29093 7.6931 6.38129 7.8282 6.44128C7.96128 6.50038 8.07801 6.59377 8.16759 6.71282C8.25717 6.83186 8.31669 6.97271 8.34066 7.12233C8.36462 7.27194 8.35225 7.42549 8.30469 7.56875C8.25713 7.71202 8.17591 7.84037 8.06857 7.94192C8.39143 7.70071 8.61178 7.33661 8.68263 6.92725C8.75349 6.5179 8.66924 6.09567 8.44785 5.7506C8.45644 5.74287 8.46466 5.73472 8.4725 5.72615C8.69904 6.07654 8.78685 6.50573 8.71736 6.9229C8.64787 7.34006 8.42653 7.71248 8.10018 7.96133C8.55788 7.76884 8.93212 7.40623 9.15155 6.94262C9.37098 6.47902 9.42026 5.94683 9.28999 5.44753C9.15972 4.94822 8.85902 4.51671 8.4452 4.23525C8.03138 3.95379 7.5334 3.84206 7.04617 3.92137" fill="white"/>
<path d="M7.95679 5.22572L8.56934 5.50622L7.91675 5.65734L8.36011 5.13232L8.29532 5.8307" fill="#EE1C25"/>
<path d="M4.01125 7.66009C4.06624 7.58032 4.13854 7.5152 4.22251 7.46979C4.30649 7.42438 4.39989 7.3999 4.49546 7.39826C4.59102 7.39662 4.68617 7.41785 4.77352 7.46032C4.86087 7.50278 4.93806 7.56533 4.99909 7.64311C5.09296 7.76271 5.2105 7.86015 5.34345 7.92854C5.47639 7.99694 5.62151 8.03464 5.76859 8.039C5.91567 8.04335 6.06114 8.01425 6.19475 7.95374C6.32836 7.89323 6.44687 7.80279 6.54195 7.68877C6.6356 7.57646 6.75562 7.49113 6.89091 7.44066C7.0262 7.39019 7.17238 7.37622 7.31592 7.40005C7.45946 7.42387 7.59572 7.48472 7.71209 7.57696C7.82845 7.6692 7.92117 7.78985 7.98164 7.92774C7.8583 7.53338 7.59229 7.201 7.24034 7.00148C6.88839 6.80196 6.47834 6.75109 6.09763 6.85971C6.09315 6.84881 6.08817 6.83812 6.08271 6.82769C6.46981 6.71569 6.88727 6.76526 7.24675 6.96591C7.60623 7.16656 7.87952 7.50254 8.00878 7.90277C7.97016 7.39108 7.75151 6.90765 7.39453 6.54464C7.03754 6.18163 6.56719 5.96442 6.07312 5.93443C5.57906 5.90444 5.09584 6.06375 4.71558 6.38201C4.33532 6.70026 4.08461 7.1552 4.01125 7.66009" fill="white"/>
<path d="M5.47398 7.18126L5.91413 6.6649L5.85661 7.35821L5.50953 6.75276L6.12864 7.03909" fill="#EE1C25"/>
<path d="M11.0553 10.6957C10.9642 10.7278 10.8676 10.7375 10.773 10.7242C10.6784 10.7108 10.5883 10.6748 10.5097 10.6188C10.4311 10.5628 10.3662 10.4884 10.3199 10.4013C10.2737 10.3143 10.2474 10.217 10.243 10.1169C10.2364 9.96309 10.1976 9.81312 10.1294 9.67758C10.0612 9.54205 9.96526 9.42424 9.84832 9.33246C9.73139 9.24067 9.5963 9.17714 9.45256 9.14633C9.30883 9.11552 9.15994 9.11818 9.01638 9.15413C8.87497 9.18954 8.72782 9.18713 8.58857 9.14713C8.44931 9.10713 8.32245 9.03082 8.21971 8.92528C8.11698 8.81974 8.0417 8.68837 8.00085 8.54334C7.95999 8.3983 7.95488 8.24429 7.98598 8.09556C7.85672 8.49117 7.87942 8.92181 8.04922 9.29566C8.21902 9.66951 8.52249 9.95699 8.89493 10.0968C8.89223 10.1084 8.89005 10.1201 8.88842 10.1319C8.50882 9.99098 8.19857 9.70012 8.02331 9.32083C7.84806 8.94154 7.82155 8.50359 7.9494 8.09964C7.68307 8.54011 7.57941 9.06553 7.65818 9.57573C7.73694 10.0859 7.99263 10.5452 8.3765 10.8661C8.76037 11.187 9.24557 11.3469 9.73961 11.3155C10.2336 11.2841 10.702 11.0635 11.0553 10.6957" fill="white"/>
<path d="M9.58851 10.2144L8.9341 10.3703L9.38158 9.84251L9.31195 10.5406L8.97713 9.93884" fill="#EE1C25"/>
<path d="M6.522 11.8887C6.46402 11.8068 6.42448 11.7127 6.40645 11.6136C6.38842 11.5146 6.39238 11.4132 6.41802 11.3174C6.44366 11.2217 6.4903 11.1341 6.55431 11.0614C6.61831 10.9888 6.69796 10.9331 6.78707 10.8986C6.92411 10.8456 7.04741 10.7615 7.1483 10.6522C7.24919 10.543 7.32522 10.4111 7.37104 10.2661C7.41685 10.121 7.43134 9.96619 7.41349 9.81255C7.39563 9.65891 7.34586 9.51016 7.26767 9.37679C7.19066 9.24541 7.14603 9.09689 7.13791 8.94498C7.1298 8.79307 7.15845 8.64268 7.22123 8.50773C7.28401 8.37279 7.37887 8.25764 7.49705 8.17296C7.61523 8.08828 7.75291 8.03679 7.89732 8.02327C7.49839 8.0125 7.11611 8.16489 6.832 8.44795C6.54788 8.73101 6.38441 9.12233 6.37643 9.53849C6.3651 9.53926 6.35383 9.5406 6.34265 9.54251C6.34932 9.11883 6.5137 8.71968 6.801 8.4295C7.08829 8.13933 7.47597 7.98091 7.88199 7.98776C7.39888 7.85281 6.89069 7.90681 6.45429 8.13947C6.01789 8.37213 5.68381 8.76717 5.51572 9.24929C5.34764 9.73141 5.35731 10.2669 5.54289 10.7537C5.72847 11.2404 6.07699 11.6444 6.522 11.8887" fill="white"/>
<path d="M6.48832 10.2724L6.13995 9.66314L6.75825 9.95321L6.10619 10.0931L6.54294 9.5767" fill="#EE1C25"/>
<path d="M11.3986 5.78684C11.3991 5.88711 11.3775 5.9861 11.3357 6.07611C11.2938 6.16612 11.2328 6.24473 11.1573 6.30584C11.0817 6.36695 10.9938 6.4089 10.9003 6.42845C10.8068 6.44799 10.7102 6.44459 10.6181 6.41852C10.4764 6.37842 10.3281 6.37144 10.1837 6.39807C10.0393 6.4247 9.90225 6.4843 9.78221 6.57267C9.66217 6.66103 9.56205 6.77602 9.48892 6.90954C9.41578 7.04305 9.3714 7.19185 9.35889 7.34547C9.34657 7.49678 9.29814 7.64231 9.21807 7.76858C9.138 7.89485 9.02889 7.99779 8.90083 8.06786C8.77277 8.13793 8.62991 8.17287 8.48546 8.16944C8.34102 8.16602 8.19967 8.12434 8.07448 8.04826C8.39283 8.29686 8.79072 8.40506 9.18331 8.34979C9.57591 8.29452 9.93215 8.08015 10.1761 7.7524C10.1857 7.75861 10.1957 7.76432 10.2059 7.76952C9.95869 8.10406 9.59725 8.32414 9.198 8.38318C8.79876 8.44222 8.39304 8.33559 8.06669 8.08586C8.38266 8.48433 8.82682 8.7469 9.31453 8.82351C9.80224 8.90013 10.2994 8.78544 10.7112 8.5013C11.123 8.21716 11.4206 7.78344 11.5474 7.28283C11.6742 6.78222 11.6212 6.24972 11.3986 5.78684" fill="white"/>
<path d="M10.4993 7.09852L10.4349 7.79729L10.0962 7.19143L10.7087 7.47296L10.0564 7.62329" fill="#EE1C25"/>
</g>
</g>
<defs>
<clipPath id="clip0_49372_48477">
<rect width="20" height="14" fill="white" transform="matrix(-1 0 0 1 18 1)"/>
</clipPath>
</defs>
</svg>
