<svg width="40" height="40" viewBox="0 0 40 40" fill="none" xmlns="http://www.w3.org/2000/svg">
<path d="M0 20C0 8.95431 8.95431 0 20 0V0C31.0457 0 40 8.95431 40 20V20C40 31.0457 31.0457 40 20 40V40C8.95431 40 0 31.0457 0 20V20Z" fill="#1D7DED" fill-opacity="0.1"/>
<path fill-rule="evenodd" clip-rule="evenodd" d="M20 9.5C20.2019 9.5 20.3841 9.62151 20.4616 9.80798L22.9894 15.8854L29.5505 16.4114C29.7518 16.4276 29.9236 16.5632 29.9861 16.7553C30.0485 16.9474 29.9892 17.1582 29.8358 17.2896L24.8369 21.5716L26.3642 27.9742C26.411 28.1706 26.3351 28.376 26.1717 28.4947C26.0083 28.6134 25.7895 28.6221 25.6172 28.5169L20 25.0859L14.3827 28.5169C14.2104 28.6221 13.9916 28.6134 13.8282 28.4947C13.6648 28.376 13.5889 28.1706 13.6358 27.9742L15.163 21.5716L10.1641 17.2896C10.0107 17.1582 9.95146 16.9474 10.0139 16.7553C10.0763 16.5632 10.2481 16.4276 10.4494 16.4114L17.0106 15.8854L19.5383 9.80798C19.6159 9.62151 19.798 9.5 20 9.5ZM20 11.302L17.8166 16.5514C17.7446 16.7246 17.5818 16.8428 17.3949 16.8578L11.7277 17.3122L16.0455 21.0108C16.1879 21.1328 16.2501 21.3242 16.2066 21.5066L14.8874 27.0368L19.7393 24.0733C19.8993 23.9756 20.1006 23.9756 20.2606 24.0733L25.1125 27.0368L23.7934 21.5066C23.7499 21.3242 23.812 21.1328 23.9544 21.0108L28.2723 17.3122L22.605 16.8578C22.4181 16.8428 22.2553 16.7246 22.1833 16.5514L20 11.302Z" fill="#1D7DED"/>
</svg>
