<svg width="40" height="40" viewBox="0 0 40 40" fill="none" xmlns="http://www.w3.org/2000/svg">
<path d="M0 20C0 8.95431 8.95431 0 20 0C31.0457 0 40 8.95431 40 20C40 31.0457 31.0457 40 20 40C8.95431 40 0 31.0457 0 20Z" fill="#1D7DED" fill-opacity="0.1"/>
<path fill-rule="evenodd" clip-rule="evenodd" d="M11 13.2327H11.0897C11.7091 12.1296 15.4624 11.2812 20 11.2812C24.5376 11.2812 28.2909 12.1296 28.9103 13.2327H29V26.8932H28.9511C28.8219 27.3073 28.4564 27.6166 28.0884 27.8364C27.5987 28.1289 26.9234 28.3747 26.1329 28.5744C24.5442 28.9758 22.3761 29.2186 20 29.2186C17.6239 29.2186 15.4558 28.9758 13.8671 28.5744C13.0766 28.3747 12.4013 28.1289 11.9116 27.8364C11.5436 27.6166 11.1781 27.3073 11.0489 26.8932H11V13.2327ZM27.8232 13.5549C27.8096 13.5463 27.7952 13.5375 27.78 13.5284C27.4437 13.3275 26.8905 13.1116 26.119 12.9167C24.5914 12.5308 22.4275 12.2812 20 12.2812C17.5725 12.2812 15.4086 12.5308 13.881 12.9167C13.1095 13.1116 12.5563 13.3275 12.22 13.5284C12.2048 13.5375 12.1904 13.5463 12.1767 13.5549C12.1904 13.5634 12.2048 13.5722 12.22 13.5813C12.5563 13.7822 13.1095 13.9981 13.881 14.193C15.4086 14.5789 17.5725 14.8285 20 14.8285C22.4275 14.8285 24.5914 14.5789 26.119 14.193C26.8905 13.9981 27.4437 13.7822 27.78 13.5813L27.7985 13.5702L27.8232 13.5549ZM20 15.8285C23.4829 15.8285 26.5038 15.3287 28 14.5975V17.9158C28 17.9289 27.9782 18.0819 27.5756 18.3223C27.2051 18.5437 26.6356 18.7605 25.8879 18.9494C24.4003 19.3252 22.3183 19.5631 20 19.5631C17.6817 19.5631 15.5997 19.3252 14.1121 18.9494C13.3644 18.7605 12.7949 18.5437 12.4244 18.3223C12.0218 18.0819 12 17.9289 12 17.9158V14.5975C13.4962 15.3287 16.5171 15.8285 20 15.8285ZM26.1329 19.9189C26.8769 19.731 27.5188 19.5021 28 19.232V22.2434C28 22.2565 27.9782 22.4095 27.5756 22.65C27.2051 22.8713 26.6356 23.0881 25.8879 23.277C24.4003 23.6528 22.3183 23.8907 20 23.8907C17.6817 23.8907 15.5997 23.6528 14.1121 23.277C13.3644 23.0881 12.7949 22.8713 12.4244 22.65C12.0218 22.4095 12 22.2565 12 22.2434V19.232C12.4812 19.5021 13.1231 19.731 13.8671 19.9189C15.4558 20.3203 17.6239 20.5631 20 20.5631C22.3761 20.5631 24.5442 20.3203 26.1329 19.9189ZM12 26.5713C12 26.5844 12.0218 26.7374 12.4244 26.9779C12.7949 27.1992 13.3644 27.416 14.1121 27.6049C15.5997 27.9807 17.6817 28.2186 20 28.2186C22.3183 28.2186 24.4003 27.9807 25.8879 27.6049C26.6356 27.416 27.2051 27.1992 27.5756 26.9779C27.9782 26.7374 28 26.5844 28 26.5713V23.5597C27.5188 23.8298 26.8769 24.0586 26.1329 24.2466C24.5442 24.6479 22.3761 24.8907 20 24.8907C17.6239 24.8907 15.4558 24.6479 13.8671 24.2466C13.1231 24.0586 12.4812 23.8298 12 23.5597V26.5713Z" fill="#1D7DED"/>
</svg>
