<svg width="40" height="40" viewBox="0 0 40 40" fill="none" xmlns="http://www.w3.org/2000/svg">
<path d="M0 20C0 8.95431 8.95431 0 20 0C31.0457 0 40 8.95431 40 20C40 31.0457 31.0457 40 20 40C8.95431 40 0 31.0457 0 20Z" fill="#1D7DED" fill-opacity="0.1"/>
<path fill-rule="evenodd" clip-rule="evenodd" d="M15.3427 13.3431C18.4669 10.219 23.5322 10.219 26.6564 13.3431C29.7806 16.4673 29.7806 21.5327 26.6564 24.6569C23.7904 27.5229 19.2909 27.7597 16.1549 25.3674L12.1075 29.4148L11.4004 28.7077L15.3972 24.7109C15.379 24.693 15.3608 24.675 15.3427 24.6569C12.2185 21.5327 12.2185 16.4673 15.3427 13.3431ZM25.9493 14.0503C23.2156 11.3166 18.7835 11.3166 16.0498 14.0503C14.8379 15.2622 14.1633 16.8079 14.0259 18.3915C14.4455 17.8644 14.9696 17.3566 15.5801 17.0073C16.2263 16.6375 16.99 16.4347 17.8245 16.6049C18.6541 16.774 19.4843 17.2976 20.2966 18.2453C21.7517 19.943 23.2216 20.5332 24.5074 20.4475C25.7913 20.3619 27.0135 19.5949 27.9664 18.3173C27.8146 16.7597 27.1423 15.2432 25.9493 14.0503ZM27.9482 19.8492C26.9936 20.7687 25.8386 21.361 24.574 21.4453C22.8904 21.5575 21.1364 20.7619 19.5373 18.896C18.8224 18.0619 18.1745 17.6968 17.6247 17.5847C17.0798 17.4736 16.5628 17.5971 16.0768 17.8752C15.1761 18.3906 14.4572 19.398 14.0912 20.1325C14.3191 21.5301 14.972 22.8719 16.0498 23.9497C18.7835 26.6834 23.2156 26.6834 25.9493 23.9497C27.0997 22.7993 27.766 21.3481 27.9482 19.8492Z" fill="#1D7DED"/>
</svg>
