<svg width="40" height="40" viewBox="0 0 40 40" fill="none" xmlns="http://www.w3.org/2000/svg">
<path d="M0 20C0 8.95431 8.95431 0 20 0C31.0457 0 40 8.95431 40 20C40 31.0457 31.0457 40 20 40C8.95431 40 0 31.0457 0 20Z" fill="#1D7DED" fill-opacity="0.1"/>
<path fill-rule="evenodd" clip-rule="evenodd" d="M28.7065 26.5094L28.0859 24.6226C28.0008 24.3638 28.0275 24.0827 28.1438 23.8363C28.2659 23.5776 28.376 23.3122 28.4734 23.0407C28.5653 22.7845 28.745 22.5669 28.9879 22.444L30.7586 21.5482C30.9068 21.473 31 21.3213 31 21.1555V18.8445C31 18.6787 30.9068 18.527 30.7586 18.4518L28.9879 17.5559C28.745 17.433 28.5653 17.2155 28.4734 16.9593C28.3754 16.6863 28.2646 16.4193 28.1417 16.1593C28.0249 15.9121 27.9982 15.6299 28.0842 15.3704L28.7062 13.4916C28.7586 13.3333 28.7175 13.1598 28.5998 13.0421L26.9579 11.4002C26.8404 11.2829 26.6665 11.2425 26.509 11.2933L24.6248 11.9145C24.3658 12 24.0842 11.9733 23.8376 11.8568C23.5784 11.7345 23.3125 11.6242 23.0406 11.5266C22.7844 11.4346 22.5668 11.255 22.4439 11.0121L21.5482 9.24156C21.4734 9.09324 21.3215 9 21.1557 9H18.8443C18.6785 9 18.5266 9.09324 18.4518 9.24156L17.5559 11.0122C17.4331 11.255 17.2155 11.4347 16.9593 11.5266C16.6875 11.6242 16.4217 11.7345 16.1626 11.8567C15.916 11.9732 15.6345 11.9998 15.3755 11.9145L13.4908 11.2933C13.3342 11.2425 13.1598 11.2829 13.0421 11.4002L11.4002 13.0421C11.2825 13.1598 11.2412 13.3333 11.2936 13.4916L11.9157 15.3706C12.0017 15.6301 11.975 15.9123 11.8582 16.1595C11.7354 16.4195 11.6246 16.6863 11.5267 16.9592C11.4347 17.2154 11.2551 17.4329 11.0122 17.5558L9.24119 18.4518C9.09324 18.527 9 18.6787 9 18.8445V21.1555C9 21.3213 9.09324 21.473 9.24119 21.5482L11.0122 22.4442C11.2551 22.5671 11.4347 22.7847 11.5267 23.0408C11.6241 23.3122 11.7341 23.5775 11.8561 23.836C11.9723 24.0824 11.9991 24.3635 11.914 24.6223L11.2935 26.5094C11.2414 26.6669 11.2827 26.8406 11.4002 26.9579L13.0421 28.5998C13.1598 28.7175 13.3342 28.7579 13.4908 28.7067L15.3755 28.0855C15.6345 28.0002 15.916 28.0268 16.1626 28.1433C16.4217 28.2655 16.6875 28.3758 16.9593 28.4734C17.2155 28.5653 17.4331 28.745 17.5559 28.9878L18.4518 30.7584C18.5266 30.9068 18.6785 31 18.8443 31H21.1557C21.3215 31 21.4734 30.9068 21.5482 30.7584L22.4439 28.9879C22.5668 28.745 22.7844 28.5654 23.0406 28.4734C23.3125 28.3758 23.5784 28.2655 23.8376 28.1432C24.0842 28.0267 24.3658 28 24.6248 28.0855L26.509 28.7067C26.6665 28.7579 26.8404 28.7175 26.9579 28.5998L28.5998 26.9579C28.7173 26.8406 28.7584 26.6669 28.7065 26.5094ZM26.4945 27.649L27.649 26.4945L27.136 24.9351C26.9632 24.4098 27.0249 23.8642 27.2394 23.4095C27.3479 23.1797 27.4457 22.944 27.5322 22.7029C27.7018 22.2302 28.0434 21.8012 28.5364 21.5517L30 20.8113V19.1887L28.5364 18.4482C28.0434 18.1988 27.7018 17.7697 27.5322 17.2971C27.4452 17.0546 27.3467 16.8176 27.2375 16.5865C27.022 16.1304 26.9604 15.5828 27.1348 15.0561L27.6484 13.5049L26.4945 12.351L24.938 12.8642C24.4122 13.0376 23.8659 12.976 23.4107 12.7611C23.1805 12.6525 22.9443 12.5545 22.7028 12.4678C22.2301 12.2982 21.801 11.9565 21.5516 11.4635L20.8112 10H19.1888L18.4482 11.4636C18.1988 11.9566 17.7697 12.2982 17.2971 12.4678C17.0557 12.5545 16.8196 12.6524 16.5895 12.761C16.1344 12.9759 15.5882 13.0375 15.0625 12.8642L13.5055 12.351L12.3515 13.5051L12.8651 15.0563C13.0394 15.583 12.9779 16.1306 12.7624 16.5867C12.6532 16.8177 12.5549 17.0546 12.4679 17.297C12.2982 17.7696 11.9566 18.1987 11.4636 18.4481L10 19.1886V20.8114L11.4637 21.5519C11.9566 21.8014 12.2982 22.2304 12.4679 22.703C12.5544 22.944 12.6521 23.1796 12.7605 23.4093C12.975 23.8639 13.0366 24.4094 12.8639 24.9346L12.351 26.4945L13.5055 27.649L15.0625 27.1358C15.5882 26.9625 16.1344 27.0241 16.5895 27.239C16.8196 27.3476 17.0557 27.4455 17.2971 27.5322C17.7697 27.7018 18.1988 28.0434 18.4482 28.5364L19.1888 30H20.8112L21.5516 28.5365C21.801 28.0435 22.2301 27.7018 22.7028 27.5322C22.9443 27.4455 23.1805 27.3476 23.4107 27.2389C23.8659 27.024 24.4122 26.9624 24.938 27.1358L26.4945 27.649ZM20.6553 9.69194L20.6559 9.693L20.6553 9.69194Z" fill="#1D7DED"/>
<path fill-rule="evenodd" clip-rule="evenodd" d="M16 17.5C16 16.6716 16.6716 16 17.5 16H22.5C23.3284 16 24 16.6716 24 17.5V22.5C24 23.3284 23.3284 24 22.5 24H17.5C16.6716 24 16 23.3284 16 22.5V17.5ZM17.5 17C17.2239 17 17 17.2239 17 17.5V22.5C17 22.7761 17.2239 23 17.5 23H22.5C22.7761 23 23 22.7761 23 22.5V17.5C23 17.2239 22.7761 17 22.5 17H17.5Z" fill="#1D7DED"/>
</svg>
