<svg width="40" height="40" viewBox="0 0 40 40" fill="none" xmlns="http://www.w3.org/2000/svg">
<path d="M0 20C0 8.95431 8.95431 0 20 0C31.0457 0 40 8.95431 40 20C40 31.0457 31.0457 40 20 40C8.95431 40 0 31.0457 0 20Z" fill="#1D7DED" fill-opacity="0.1"/>
<mask id="path-2-inside-1_47744_42794" fill="white">
<path fill-rule="evenodd" clip-rule="evenodd" d="M23.1859 27.4818C27.1467 26.1515 30 22.4089 30 18C30 12.4772 25.5228 8 20 8C14.4772 8 10 12.4772 10 18C10 22.4089 12.8533 26.1515 16.8141 27.4818L20 33L23.1859 27.4818Z"/>
</mask>
<path d="M23.1859 27.4818L22.8676 26.5338L22.509 26.6542L22.3199 26.9818L23.1859 27.4818ZM16.8141 27.4818L17.6801 26.9818L17.491 26.6542L17.1324 26.5338L16.8141 27.4818ZM20 33L19.134 33.5L20 35L20.866 33.5L20 33ZM29 18C29 21.9665 26.4334 25.3361 22.8676 26.5338L23.5043 28.4297C27.86 26.9668 31 22.8514 31 18H29ZM20 9C24.9706 9 29 13.0294 29 18H31C31 11.9249 26.0751 7 20 7V9ZM11 18C11 13.0294 15.0294 9 20 9V7C13.9249 7 9 11.9249 9 18H11ZM17.1324 26.5338C13.5666 25.3361 11 21.9665 11 18H9C9 22.8514 12.14 26.9668 16.4957 28.4297L17.1324 26.5338ZM15.948 27.9818L19.134 33.5L20.866 32.5L17.6801 26.9818L15.948 27.9818ZM20.866 33.5L24.052 27.9818L22.3199 26.9818L19.134 32.5L20.866 33.5Z" fill="#1D7DED" mask="url(#path-2-inside-1_47744_42794)"/>
<circle cx="20" cy="18" r="3.5" stroke="#1D7DED"/>
</svg>
