<svg width="40" height="40" viewBox="0 0 40 40" fill="none" xmlns="http://www.w3.org/2000/svg">
<path d="M0 20C0 8.95431 8.95431 0 20 0V0C31.0457 0 40 8.95431 40 20V20C40 31.0457 31.0457 40 20 40V40C8.95431 40 0 31.0457 0 20V20Z" fill="#1D7DED" fill-opacity="0.1"/>
<path fill-rule="evenodd" clip-rule="evenodd" d="M19.8296 11.601C19.4089 11.5345 18.9776 11.5 18.5389 11.5C15.3179 11.5 12.4864 13.4236 11.4171 16.0729L10.3651 18.029L8 21.4373L10.292 21.9701V24.3081C10.292 24.7067 10.4382 25.0721 10.7213 25.3353C11.001 25.5954 11.3753 25.7198 11.7727 25.7198H12.263C12.454 25.7198 12.57 25.7777 12.6335 25.8367C12.6936 25.8926 12.7436 25.9831 12.7436 26.1315V29.3667H26.9183V26.1315C26.9183 25.9831 26.9682 25.8926 27.0284 25.8367C27.0918 25.7777 27.2079 25.7198 27.3989 25.7198H27.8892C28.2865 25.7198 28.6608 25.5954 28.9406 25.3353C29.2237 25.0721 29.3698 24.7067 29.3698 24.3081V21.9701L31.6618 21.4373L29.2967 18.029L28.2448 16.0729C27.1754 13.4236 24.344 11.5 21.1229 11.5C20.683 11.5 20.2508 11.5345 19.8296 11.601ZM22.8001 12.702C24.8351 13.9682 26.1975 16.1272 26.1975 18.6555C26.1975 21.9864 23.8339 24.6346 20.6079 25.5191V28.3667H25.9183V26.1315C25.9183 25.7329 26.0644 25.3675 26.3475 25.1044C26.6272 24.8442 27.0015 24.7198 27.3989 24.7198H27.8892C28.0802 24.7198 28.1962 24.6619 28.2597 24.6029C28.3198 24.547 28.3698 24.4565 28.3698 24.3081V21.1759L30.0002 20.7969L28.4429 18.5526L27.3372 16.4967L27.3266 16.4701C26.6092 14.6692 24.9042 13.2175 22.8001 12.702ZM19.6079 28.3667V24.7288L19.998 24.6409C23.0464 23.9538 25.1975 21.5737 25.1975 18.6555C25.1975 15.2316 22.2248 12.5 18.5389 12.5C15.6911 12.5 13.2355 14.2101 12.3352 16.4701L12.3246 16.4967L11.219 18.5526L9.6616 20.7969L11.292 21.1759V24.3081C11.292 24.4565 11.342 24.547 11.4022 24.6029C11.4656 24.6619 11.5816 24.7198 11.7727 24.7198H12.263C12.6603 24.7198 13.0346 24.8442 13.3144 25.1044C13.5974 25.3675 13.7436 25.7329 13.7436 26.1315V28.3667H19.6079Z" fill="#1D7DED"/>
</svg>
