<svg width="989" height="272" viewBox="0 0 989 272" fill="none" xmlns="http://www.w3.org/2000/svg">
<g clip-path="url(#clip0_551_20)">
<mask id="mask0_551_20" style="mask-type:luminance" maskUnits="userSpaceOnUse" x="-76" y="-151" width="1134" height="567">
<path d="M-76 -151H1057.86V415.93H-76V-151Z" fill="white"/>
</mask>
<g mask="url(#mask0_551_20)">
<path d="M809.313 100.93C810.213 96.5862 812.46 94.3382 816.656 94.3382H835.537L832.54 108.273H815.906C810.662 108.273 808.265 105.876 809.313 100.93ZM688.985 79.6529C690.634 71.5609 694.98 68.7129 701.573 68.7129H711.613C716.857 68.7129 719.256 71.2609 718.205 76.0569L716.857 82.6502H688.386L688.985 79.6529ZM939.23 79.6529C940.88 71.5609 945.225 68.7129 951.818 68.7129H961.858C967.102 68.7129 969.501 71.2609 968.452 76.0569L967.102 82.6502H938.632L939.23 79.6529ZM544.982 79.6529C546.63 71.5609 550.976 68.7129 557.569 68.7129H567.609C572.854 68.7129 575.252 71.2609 574.202 76.0569L572.854 82.6502H544.382L544.982 79.6529ZM740.384 122.658H759.564L768.256 82.0502C770.353 71.5609 775.597 69.6129 784.138 69.6129H793.28L796.426 54.3289H777.245C763.31 54.3289 753.72 60.4729 750.424 75.7569L740.384 122.658ZM596.53 122.658H615.71L634.892 32.1515H615.71L596.53 122.658ZM628.897 122.658H648.077L667.257 32.1515H648.077L628.897 122.658ZM339.541 122.658H360.22L379.401 32.1515H358.722L339.541 122.658ZM915.256 69.6129L918.553 54.3289H897.124L900.421 39.1942H881.24L868.204 100.632C865.206 114.866 870.152 122.658 881.84 122.658H904.016L907.313 107.374H893.229C887.833 107.374 886.634 104.228 887.833 98.5342L893.977 69.6129H915.256ZM520.257 69.6129L523.404 54.3289H492.386C472.905 54.3289 463.316 66.1662 459.269 85.0475L458.37 89.2435C453.425 113.069 462.117 122.658 481.297 122.658H509.469L512.616 107.374H486.992C479.049 107.374 475.453 102.729 477.552 92.9889L479.949 82.0502C482.046 71.5609 489.238 69.6129 495.833 69.6129H520.257ZM849.472 122.658L858.764 80.2515C862.66 62.5702 855.766 54.3289 838.682 54.3289H805.268L802.27 68.7129H829.242C835.237 68.7129 840.481 71.8609 838.833 79.5035L838.384 81.6009H813.36C801.521 81.6009 793.129 83.3995 789.384 100.332C786.088 115.017 795.677 122.658 809.613 122.658H849.472ZM666.957 89.2435C662.013 113.069 670.704 122.658 689.885 122.658H725.998L728.996 108.273H694.829C688.836 108.273 683.59 105.126 685.24 97.4849L685.689 95.3862H730.044C733.94 95.3862 734.54 93.5889 734.989 91.6409L738.136 76.6555C741.282 61.9702 733.19 54.3289 717.757 54.3289H700.974C681.493 54.3289 671.902 66.1662 667.857 85.0475L666.957 89.2435ZM917.204 89.2435C912.258 113.069 920.95 122.658 940.13 122.658H976.244L979.24 108.273H945.074C939.081 108.273 933.837 105.126 935.485 97.4849L935.934 95.3862H980.289C984.185 95.3862 984.785 93.5889 985.234 91.6409L988.381 76.6555C991.528 61.9702 983.437 54.3289 968.002 54.3289H951.22C931.738 54.3289 922.149 66.1662 918.102 85.0475L917.204 89.2435ZM522.954 89.2435C518.009 113.069 526.701 122.658 545.881 122.658H581.994L584.992 108.273H550.826C544.833 108.273 539.588 105.126 541.236 97.4849L541.685 95.3862H586.041C589.937 95.3862 590.536 93.5889 590.985 91.6409L594.132 76.6555C597.28 61.9702 589.188 54.3289 573.753 54.3289H556.97C537.489 54.3289 527.9 66.1662 523.854 85.0475L522.954 89.2435ZM447.282 32.0009L423.006 58.2249L410.869 32.0009H388.092L407.872 74.7075L363.816 122.658H386.293L415.365 91.0409L430.049 122.658H452.976L430.649 74.5582L469.758 32.0009H447.282Z" fill="#2D2E46"/>
</g>
<path d="M358.252 166.234C358.252 168.791 357.761 170.928 356.777 172.646C355.804 174.354 354.391 175.643 352.539 176.512C350.686 177.371 348.455 177.801 345.847 177.801H339.419V155.102H346.546C348.926 155.102 350.991 155.526 352.74 156.375C354.49 157.213 355.846 158.461 356.808 160.117C357.771 161.763 358.252 163.802 358.252 166.234ZM353.253 166.358C353.253 164.681 353.004 163.305 352.508 162.228C352.021 161.141 351.297 160.339 350.334 159.822C349.382 159.304 348.202 159.045 346.794 159.045H344.232V173.826H346.297C348.647 173.826 350.391 173.2 351.529 171.948C352.678 170.695 353.253 168.832 353.253 166.358ZM376.852 177.801L375.206 172.398H366.931L365.285 177.801H360.1L368.111 155.009H373.995L382.038 177.801H376.852ZM374.058 168.361L372.412 163.082C372.308 162.73 372.169 162.28 371.993 161.731C371.827 161.173 371.656 160.608 371.48 160.039C371.315 159.46 371.18 158.958 371.077 158.533C370.973 158.958 370.828 159.485 370.642 160.117C370.466 160.738 370.295 161.328 370.13 161.887C369.964 162.446 369.845 162.844 369.772 163.082L368.142 168.361H374.058ZM393.667 177.801H388.854V159.108H382.69V155.102H399.831V159.108H393.667V177.801ZM417.22 177.801L415.574 172.398H407.299L405.653 177.801H400.467L408.479 155.009H414.363L422.405 177.801H417.22ZM414.425 168.361L412.779 163.082C412.676 162.73 412.536 162.28 412.36 161.731C412.194 161.173 412.024 160.608 411.848 160.039C411.682 159.46 411.547 158.958 411.444 158.533C411.34 158.958 411.196 159.485 411.009 160.117C410.833 160.738 410.662 161.328 410.497 161.887C410.331 162.446 410.212 162.844 410.14 163.082L408.51 168.361H414.425ZM443.179 158.782C442.258 158.782 441.44 158.963 440.726 159.325C440.022 159.677 439.427 160.189 438.94 160.862C438.464 161.535 438.102 162.347 437.854 163.3C437.605 164.252 437.481 165.323 437.481 166.513C437.481 168.118 437.678 169.489 438.071 170.628C438.475 171.756 439.096 172.62 439.934 173.221C440.772 173.811 441.854 174.106 443.179 174.106C444.1 174.106 445.021 174.002 445.943 173.795C446.874 173.588 447.883 173.293 448.97 172.91V176.947C447.966 177.361 446.978 177.656 446.005 177.832C445.032 178.018 443.94 178.111 442.729 178.111C440.389 178.111 438.464 177.63 436.953 176.667C435.452 175.694 434.34 174.339 433.615 172.6C432.89 170.85 432.528 168.811 432.528 166.482C432.528 164.764 432.761 163.191 433.227 161.763C433.693 160.334 434.376 159.097 435.276 158.052C436.177 157.006 437.289 156.199 438.614 155.63C439.939 155.06 441.461 154.776 443.179 154.776C444.307 154.776 445.435 154.921 446.564 155.211C447.702 155.49 448.789 155.878 449.824 156.375L448.271 160.288C447.423 159.884 446.569 159.532 445.71 159.232C444.851 158.932 444.007 158.782 443.179 158.782ZM466.887 177.801H453.814V155.102H466.887V159.045H458.627V164.029H466.313V167.973H458.627V173.826H466.887V177.801ZM491.775 177.801H485.658L475.783 160.629H475.644C475.685 161.343 475.721 162.063 475.752 162.787C475.783 163.512 475.814 164.236 475.845 164.961C475.876 165.675 475.908 166.394 475.939 167.119V177.801H471.638V155.102H477.709L487.567 172.103H487.676C487.655 171.399 487.63 170.7 487.599 170.007C487.567 169.313 487.536 168.62 487.505 167.926C487.485 167.233 487.464 166.539 487.443 165.846V155.102H491.775V177.801ZM506.261 177.801H501.448V159.108H495.284V155.102H512.424V159.108H506.261V177.801ZM528.991 177.801H515.918V155.102H528.991V159.045H520.731V164.029H528.416V167.973H520.731V173.826H528.991V177.801ZM540.356 155.102C542.415 155.102 544.113 155.35 545.448 155.847C546.794 156.344 547.792 157.094 548.445 158.098C549.097 159.102 549.423 160.37 549.423 161.902C549.423 162.937 549.226 163.843 548.833 164.619C548.439 165.396 547.922 166.053 547.28 166.591C546.638 167.129 545.945 167.569 545.2 167.911L551.876 177.801H546.535L541.116 169.091H538.555V177.801H533.742V155.102H540.356ZM540.014 159.045H538.555V165.178H540.107C541.701 165.178 542.84 164.914 543.523 164.386C544.216 163.848 544.563 163.062 544.563 162.026C544.563 160.95 544.19 160.184 543.445 159.729C542.71 159.273 541.567 159.045 540.014 159.045ZM568.131 171.497C568.131 172.843 567.805 174.012 567.153 175.006C566.501 176 565.549 176.766 564.297 177.304C563.054 177.842 561.543 178.111 559.763 178.111C558.976 178.111 558.205 178.06 557.45 177.956C556.704 177.853 555.985 177.702 555.292 177.506C554.608 177.299 553.956 177.045 553.335 176.745V172.274C554.412 172.75 555.53 173.179 556.689 173.562C557.848 173.945 558.997 174.137 560.136 174.137C560.922 174.137 561.554 174.033 562.03 173.826C562.516 173.619 562.868 173.334 563.086 172.972C563.303 172.61 563.412 172.196 563.412 171.73C563.412 171.161 563.22 170.674 562.837 170.271C562.454 169.867 561.926 169.489 561.253 169.137C560.591 168.785 559.841 168.408 559.002 168.004C558.474 167.756 557.9 167.455 557.279 167.103C556.658 166.741 556.068 166.301 555.509 165.784C554.95 165.266 554.489 164.64 554.127 163.905C553.775 163.16 553.599 162.27 553.599 161.235C553.599 159.879 553.91 158.719 554.531 157.757C555.152 156.794 556.037 156.059 557.186 155.552C558.345 155.035 559.711 154.776 561.285 154.776C562.464 154.776 563.588 154.916 564.654 155.195C565.73 155.464 566.853 155.857 568.023 156.375L566.47 160.117C565.425 159.692 564.488 159.366 563.66 159.139C562.832 158.901 561.988 158.782 561.129 158.782C560.529 158.782 560.017 158.88 559.592 159.077C559.168 159.263 558.847 159.532 558.63 159.884C558.412 160.225 558.304 160.624 558.304 161.079C558.304 161.618 558.459 162.073 558.769 162.446C559.09 162.808 559.566 163.16 560.198 163.501C560.839 163.843 561.636 164.241 562.589 164.697C563.748 165.245 564.736 165.82 565.554 166.42C566.382 167.01 567.019 167.709 567.464 168.516C567.909 169.313 568.131 170.307 568.131 171.497ZM580.506 177.801V155.102H585.319V177.801H580.506ZM611.169 177.801H605.052L595.178 160.629H595.038C595.079 161.343 595.115 162.063 595.147 162.787C595.178 163.512 595.209 164.236 595.24 164.961C595.271 165.675 595.302 166.394 595.333 167.119V177.801H591.032V155.102H597.103L606.962 172.103H607.07C607.05 171.399 607.024 170.7 606.993 170.007C606.962 169.313 606.931 168.62 606.9 167.926C606.879 167.233 606.858 166.539 606.838 165.846V155.102H611.169V177.801ZM631.772 155.102C633.832 155.102 635.529 155.35 636.865 155.847C638.21 156.344 639.209 157.094 639.861 158.098C640.513 159.102 640.839 160.37 640.839 161.902C640.839 162.937 640.643 163.843 640.249 164.619C639.856 165.396 639.338 166.053 638.697 166.591C638.055 167.129 637.361 167.569 636.616 167.911L643.292 177.801H637.951L632.533 169.091H629.971V177.801H625.158V155.102H631.772ZM631.431 159.045H629.971V165.178H631.524C633.118 165.178 634.256 164.914 634.939 164.386C635.633 163.848 635.98 163.062 635.98 162.026C635.98 160.95 635.607 160.184 634.862 159.729C634.127 159.273 632.983 159.045 631.431 159.045ZM664.625 155.102V169.789C664.625 171.352 664.278 172.765 663.585 174.028C662.902 175.28 661.861 176.274 660.464 177.009C659.077 177.744 657.328 178.111 655.216 178.111C652.215 178.111 649.927 177.345 648.354 175.813C646.781 174.282 645.994 172.253 645.994 169.727V155.102H650.791V168.998C650.791 170.871 651.174 172.186 651.94 172.941C652.706 173.697 653.84 174.075 655.34 174.075C656.396 174.075 657.25 173.893 657.902 173.531C658.565 173.169 659.051 172.61 659.362 171.854C659.672 171.099 659.827 170.136 659.827 168.967V155.102H664.625ZM683.582 171.497C683.582 172.843 683.256 174.012 682.604 175.006C681.952 176 681 176.766 679.747 177.304C678.505 177.842 676.994 178.111 675.214 178.111C674.427 178.111 673.656 178.06 672.9 177.956C672.155 177.853 671.436 177.702 670.742 177.506C670.059 177.299 669.407 177.045 668.786 176.745V172.274C669.862 172.75 670.98 173.179 672.14 173.562C673.299 173.945 674.448 174.137 675.586 174.137C676.373 174.137 677.004 174.033 677.48 173.826C677.967 173.619 678.319 173.334 678.536 172.972C678.754 172.61 678.862 172.196 678.862 171.73C678.862 171.161 678.671 170.674 678.288 170.271C677.905 169.867 677.377 169.489 676.704 169.137C676.042 168.785 675.291 168.408 674.453 168.004C673.925 167.756 673.351 167.455 672.729 167.103C672.108 166.741 671.518 166.301 670.96 165.784C670.401 165.266 669.94 164.64 669.578 163.905C669.226 163.16 669.05 162.27 669.05 161.235C669.05 159.879 669.36 158.719 669.981 157.757C670.602 156.794 671.487 156.059 672.636 155.552C673.796 155.035 675.162 154.776 676.735 154.776C677.915 154.776 679.038 154.916 680.104 155.195C681.181 155.464 682.304 155.857 683.473 156.375L681.921 160.117C680.875 159.692 679.939 159.366 679.111 159.139C678.283 158.901 677.439 158.782 676.58 158.782C675.98 158.782 675.467 158.88 675.043 159.077C674.618 159.263 674.298 159.532 674.08 159.884C673.863 160.225 673.754 160.624 673.754 161.079C673.754 161.618 673.909 162.073 674.22 162.446C674.541 162.808 675.017 163.16 675.648 163.501C676.29 163.843 677.087 164.241 678.039 164.697C679.199 165.245 680.187 165.82 681.005 166.42C681.833 167.01 682.469 167.709 682.914 168.516C683.36 169.313 683.582 170.307 683.582 171.497ZM701.095 171.497C701.095 172.843 700.769 174.012 700.117 175.006C699.465 176 698.513 176.766 697.26 177.304C696.018 177.842 694.507 178.111 692.727 178.111C691.94 178.111 691.169 178.06 690.414 177.956C689.668 177.853 688.949 177.702 688.255 177.506C687.572 177.299 686.92 177.045 686.299 176.745V172.274C687.376 172.75 688.493 173.179 689.653 173.562C690.812 173.945 691.961 174.137 693.1 174.137C693.886 174.137 694.518 174.033 694.994 173.826C695.48 173.619 695.832 173.334 696.049 172.972C696.267 172.61 696.375 172.196 696.375 171.73C696.375 171.161 696.184 170.674 695.801 170.271C695.418 169.867 694.89 169.489 694.217 169.137C693.555 168.785 692.805 168.408 691.966 168.004C691.438 167.756 690.864 167.455 690.243 167.103C689.622 166.741 689.032 166.301 688.473 165.784C687.914 165.266 687.453 164.64 687.091 163.905C686.739 163.16 686.563 162.27 686.563 161.235C686.563 159.879 686.874 158.719 687.495 157.757C688.116 156.794 689.001 156.059 690.15 155.552C691.309 155.035 692.675 154.776 694.248 154.776C695.428 154.776 696.551 154.916 697.618 155.195C698.694 155.464 699.817 155.857 700.987 156.375L699.434 160.117C698.389 159.692 697.452 159.366 696.624 159.139C695.796 158.901 694.952 158.782 694.093 158.782C693.493 158.782 692.98 158.88 692.556 159.077C692.132 159.263 691.811 159.532 691.593 159.884C691.376 160.225 691.267 160.624 691.267 161.079C691.267 161.618 691.423 162.073 691.733 162.446C692.054 162.808 692.53 163.16 693.162 163.501C693.803 163.843 694.6 164.241 695.553 164.697C696.712 165.245 697.7 165.82 698.518 166.42C699.346 167.01 699.983 167.709 700.428 168.516C700.873 169.313 701.095 170.307 701.095 171.497ZM705.21 177.801V155.102H710.023V177.801H705.21ZM729.632 177.801L727.986 172.398H719.711L718.065 177.801H712.88L720.891 155.009H726.775L734.818 177.801H729.632ZM726.837 168.361L725.192 163.082C725.088 162.73 724.948 162.28 724.772 161.731C724.607 161.173 724.436 160.608 724.26 160.039C724.094 159.46 723.96 158.958 723.856 158.533C723.753 158.958 723.608 159.485 723.422 160.117C723.246 160.738 723.075 161.328 722.909 161.887C722.744 162.446 722.625 162.844 722.552 163.082L720.922 168.361H726.837Z" fill="#2D2E46"/>
<path d="M357.196 208.077V226.77H360.224V237.389H355.582V230.775H341.36V237.389H336.718V226.77H338.472C339.062 225.59 339.631 224.342 340.18 223.028C340.729 221.713 341.241 220.301 341.717 218.789C342.193 217.278 342.623 215.638 343.006 213.868C343.389 212.098 343.71 210.167 343.968 208.077H357.196ZM352.399 212.082H347.788C347.632 213.179 347.42 214.349 347.151 215.591C346.882 216.833 346.561 218.101 346.189 219.395C345.826 220.678 345.417 221.946 344.962 223.199C344.517 224.451 344.041 225.641 343.534 226.77H352.399V212.082ZM377.629 230.775L375.983 225.372H367.707L366.062 230.775H360.876L368.887 207.983H374.772L382.814 230.775H377.629ZM374.834 221.336L373.188 216.057C373.085 215.705 372.945 215.255 372.769 214.706C372.603 214.147 372.433 213.583 372.257 213.014C372.091 212.434 371.956 211.932 371.853 211.508C371.749 211.932 371.604 212.46 371.418 213.091C371.242 213.712 371.071 214.302 370.906 214.861C370.74 215.42 370.621 215.819 370.549 216.057L368.918 221.336H374.834ZM394.443 230.775H389.63V212.082H383.466V208.077H400.607V212.082H394.443V230.775ZM417.996 230.775L416.35 225.372H408.075L406.429 230.775H401.243L409.255 207.983H415.139L423.182 230.775H417.996ZM415.201 221.336L413.555 216.057C413.452 215.705 413.312 215.255 413.136 214.706C412.971 214.147 412.8 213.583 412.624 213.014C412.458 212.434 412.324 211.932 412.22 211.508C412.117 211.932 411.972 212.46 411.786 213.091C411.61 213.712 411.439 214.302 411.273 214.861C411.108 215.42 410.989 215.819 410.916 216.057L409.286 221.336H415.201ZM424.144 224.192V220.311H432.482V224.192H424.144ZM457.649 226.956V237.389H453.007V230.775H436.301V208.077H441.114V226.77H449.467V208.077H454.264V226.956H457.649ZM474.215 230.775H461.142V208.077H474.215V212.02H465.955V217.004H473.641V220.947H465.955V226.801H474.215V230.775ZM497.566 230.775H492.769V220.979H483.779V230.775H478.966V208.077H483.779V216.973H492.769V208.077H497.566V230.775ZM512.067 230.775H507.254V212.082H501.091V208.077H518.231V212.082H512.067V230.775ZM528.975 208.077C531.904 208.077 534.042 208.708 535.387 209.971C536.733 211.223 537.406 212.952 537.406 215.156C537.406 216.15 537.256 217.102 536.955 218.013C536.655 218.914 536.164 219.716 535.48 220.42C534.808 221.123 533.907 221.682 532.779 222.096C531.651 222.5 530.259 222.702 528.602 222.702H526.538V230.775H521.725V208.077H528.975ZM528.727 212.02H526.538V218.758H528.121C529.022 218.758 529.803 218.639 530.466 218.401C531.128 218.163 531.64 217.791 532.003 217.283C532.365 216.776 532.546 216.124 532.546 215.327C532.546 214.209 532.236 213.381 531.615 212.843C530.993 212.294 530.031 212.02 528.727 212.02ZM541.691 230.775V208.077H546.504V216.787H548.056C550.158 216.787 551.881 217.082 553.227 217.672C554.582 218.262 555.587 219.079 556.239 220.125C556.891 221.16 557.217 222.345 557.217 223.68C557.217 225.926 556.471 227.67 554.981 228.912C553.501 230.154 551.141 230.775 547.901 230.775H541.691ZM546.504 226.832H547.761C549.179 226.832 550.297 226.599 551.115 226.133C551.933 225.657 552.342 224.839 552.342 223.68C552.342 222.873 552.155 222.257 551.783 221.832C551.41 221.408 550.867 221.118 550.152 220.963C549.438 220.808 548.569 220.73 547.544 220.73H546.504V226.832ZM559.98 230.775V208.077H564.778V230.775H559.98ZM578.767 208.077H585.831C588.853 208.077 591.141 208.501 592.693 209.35C594.246 210.198 595.022 211.689 595.022 213.821C595.022 214.68 594.883 215.456 594.603 216.15C594.334 216.843 593.941 217.413 593.423 217.858C592.906 218.303 592.274 218.593 591.529 218.727V218.883C592.285 219.038 592.968 219.307 593.578 219.69C594.189 220.063 594.676 220.611 595.038 221.336C595.41 222.05 595.597 223.002 595.597 224.192C595.597 225.569 595.26 226.749 594.588 227.732C593.915 228.716 592.952 229.471 591.7 229.999C590.458 230.517 588.978 230.775 587.259 230.775H578.767V208.077ZM583.58 217.066H586.374C587.772 217.066 588.74 216.849 589.278 216.414C589.816 215.969 590.085 215.317 590.085 214.458C590.085 213.588 589.764 212.967 589.122 212.595C588.491 212.212 587.487 212.02 586.11 212.02H583.58V217.066ZM583.58 220.885V226.801H586.716C588.165 226.801 589.174 226.521 589.744 225.962C590.313 225.403 590.597 224.653 590.597 223.711C590.597 223.152 590.473 222.661 590.225 222.236C589.976 221.812 589.557 221.481 588.967 221.242C588.388 221.004 587.585 220.885 586.561 220.885H583.58ZM615.641 208.077C618.57 208.077 620.707 208.708 622.053 209.971C623.399 211.223 624.071 212.952 624.071 215.156C624.071 216.15 623.921 217.102 623.621 218.013C623.321 218.914 622.829 219.716 622.146 220.42C621.473 221.123 620.573 221.682 619.445 222.096C618.316 222.5 616.924 222.702 615.268 222.702H613.203V230.775H608.39V208.077H615.641ZM615.392 212.02H613.203V218.758H614.787C615.687 218.758 616.469 218.639 617.131 218.401C617.794 218.163 618.306 217.791 618.668 217.283C619.031 216.776 619.212 216.124 619.212 215.327C619.212 214.209 618.901 213.381 618.28 212.843C617.659 212.294 616.696 212.02 615.392 212.02ZM648.959 219.395C648.959 221.144 648.742 222.738 648.307 224.177C647.873 225.605 647.21 226.837 646.32 227.872C645.44 228.907 644.322 229.704 642.966 230.263C641.61 230.812 640.006 231.086 638.153 231.086C636.301 231.086 634.696 230.812 633.34 230.263C631.984 229.704 630.861 228.907 629.971 227.872C629.091 226.837 628.434 225.6 627.999 224.161C627.565 222.723 627.347 221.123 627.347 219.364C627.347 217.014 627.73 214.97 628.496 213.231C629.272 211.482 630.463 210.126 632.067 209.163C633.671 208.201 635.711 207.719 638.184 207.719C640.648 207.719 642.671 208.201 644.255 209.163C645.849 210.126 647.029 211.482 647.795 213.231C648.571 214.98 648.959 217.035 648.959 219.395ZM632.393 219.395C632.393 220.979 632.59 222.345 632.983 223.494C633.387 224.632 634.013 225.512 634.862 226.133C635.711 226.744 636.808 227.049 638.153 227.049C639.52 227.049 640.627 226.744 641.476 226.133C642.325 225.512 642.94 224.632 643.323 223.494C643.717 222.345 643.913 220.979 643.913 219.395C643.913 217.014 643.468 215.141 642.578 213.775C641.688 212.408 640.223 211.725 638.184 211.725C636.828 211.725 635.721 212.036 634.862 212.657C634.013 213.267 633.387 214.147 632.983 215.296C632.59 216.435 632.393 217.801 632.393 219.395ZM663.305 211.756C662.384 211.756 661.566 211.937 660.852 212.3C660.148 212.651 659.553 213.164 659.067 213.837C658.591 214.509 658.228 215.322 657.98 216.274C657.731 217.226 657.607 218.298 657.607 219.488C657.607 221.092 657.804 222.464 658.197 223.602C658.601 224.731 659.222 225.595 660.06 226.195C660.899 226.785 661.98 227.08 663.305 227.08C664.226 227.08 665.148 226.977 666.069 226.77C667 226.563 668.01 226.268 669.096 225.885V229.921C668.092 230.335 667.104 230.63 666.131 230.806C665.158 230.993 664.066 231.086 662.855 231.086C660.516 231.086 658.591 230.605 657.079 229.642C655.579 228.669 654.466 227.313 653.741 225.574C653.017 223.825 652.654 221.786 652.654 219.457C652.654 217.739 652.887 216.166 653.353 214.737C653.819 213.309 654.502 212.072 655.403 211.026C656.303 209.981 657.416 209.174 658.741 208.604C660.066 208.035 661.587 207.75 663.305 207.75C664.433 207.75 665.562 207.895 666.69 208.185C667.828 208.465 668.915 208.853 669.95 209.35L668.398 213.262C667.549 212.858 666.695 212.507 665.836 212.206C664.977 211.906 664.133 211.756 663.305 211.756ZM683.582 211.756C682.661 211.756 681.843 211.937 681.129 212.3C680.425 212.651 679.83 213.164 679.344 213.837C678.867 214.509 678.505 215.322 678.257 216.274C678.008 217.226 677.884 218.298 677.884 219.488C677.884 221.092 678.081 222.464 678.474 223.602C678.878 224.731 679.499 225.595 680.337 226.195C681.176 226.785 682.257 227.08 683.582 227.08C684.503 227.08 685.425 226.977 686.346 226.77C687.277 226.563 688.286 226.268 689.373 225.885V229.921C688.369 230.335 687.381 230.63 686.408 230.806C685.435 230.993 684.343 231.086 683.132 231.086C680.793 231.086 678.867 230.605 677.356 229.642C675.855 228.669 674.743 227.313 674.018 225.574C673.294 223.825 672.931 221.786 672.931 219.457C672.931 217.739 673.164 216.166 673.63 214.737C674.096 213.309 674.779 212.072 675.679 211.026C676.58 209.981 677.693 209.174 679.017 208.604C680.342 208.035 681.864 207.75 683.582 207.75C684.71 207.75 685.839 207.895 686.967 208.185C688.105 208.465 689.192 208.853 690.227 209.35L688.675 213.262C687.826 212.858 686.972 212.507 686.113 212.206C685.254 211.906 684.41 211.756 683.582 211.756ZM694.217 208.077H698.549V219.038C698.549 219.576 698.539 220.171 698.518 220.823C698.508 221.475 698.487 222.117 698.456 222.748C698.435 223.37 698.415 223.913 698.394 224.379C698.373 224.844 698.352 225.155 698.332 225.31H698.425L708.905 208.077H714.665V230.775H710.38V219.876C710.38 219.297 710.39 218.665 710.411 217.982C710.432 217.299 710.457 216.636 710.489 215.995C710.53 215.353 710.566 214.799 710.597 214.333C710.628 213.857 710.649 213.542 710.659 213.386H710.535L700.009 230.775H694.217V208.077ZM720.394 208.077H724.726V219.038C724.726 219.576 724.715 220.171 724.695 220.823C724.684 221.475 724.664 222.117 724.633 222.748C724.612 223.37 724.591 223.913 724.571 224.379C724.55 224.844 724.529 225.155 724.508 225.31H724.602L735.082 208.077H740.842V230.775H736.557V219.876C736.557 219.297 736.567 218.665 736.588 217.982C736.608 217.299 736.634 216.636 736.665 215.995C736.707 215.353 736.743 214.799 736.774 214.333C736.805 213.857 736.826 213.542 736.836 213.386H736.712L726.185 230.775H720.394V208.077Z" fill="#2D2E46"/>
<path d="M-0.410156 136.161C-0.410156 211.261 60.4698 272.141 135.57 272.141C210.67 272.141 271.55 211.261 271.55 136.161C271.55 61.062 210.67 0.181982 135.57 0.181982C60.4698 0.181982 -0.410156 61.062 -0.410156 136.161ZM26.7952 136.161C26.7952 76.1833 75.5912 27.3873 135.57 27.3873C195.548 27.3873 244.345 76.182 244.345 136.161C244.345 196.139 195.548 244.937 135.57 244.937C75.5912 244.937 26.7952 196.139 26.7952 136.161ZM173.993 97.7566C183.842 107.573 189.919 121.197 189.919 136.163C189.919 166.13 165.55 190.53 135.584 190.53C120.594 190.53 107.009 184.427 97.1605 174.589L116.365 155.353C111.439 150.426 108.402 143.646 108.402 136.163C108.402 121.197 120.586 109.013 135.584 109.013C143.067 109.013 149.847 112.05 154.773 116.975L173.993 97.7233C164.175 87.8727 150.583 81.7966 135.584 81.7966C105.554 81.7966 81.2178 106.134 81.2178 136.163C81.2178 151.186 87.2885 164.741 97.1298 174.589L77.8925 193.857C92.6658 208.631 113.039 217.745 135.584 217.745C180.612 217.745 217.135 181.223 217.135 136.163C217.134 113.649 208.021 93.246 193.246 78.4713L173.993 97.7566Z" fill="url(#paint0_linear_551_20)"/>
<mask id="mask1_551_20" style="mask-type:luminance" maskUnits="userSpaceOnUse" x="-76" y="-151" width="1134" height="567">
<path d="M-76 -151H1057.86V415.93H-76V-151Z" fill="white"/>
</mask>
<g mask="url(#mask1_551_20)">
<path d="M162.737 136.163C162.737 151.131 150.553 163.314 135.586 163.314C128.07 163.314 121.292 160.276 116.366 155.352L154.774 116.975C159.698 121.9 162.737 128.68 162.737 136.163ZM135.586 27.3975C75.4944 27.3975 26.7891 76.0722 26.7891 136.163C26.7891 166.192 38.9731 193.375 58.6411 213.076L77.9264 193.823C63.1504 179.048 54.0051 158.644 54.0051 136.163C54.0051 91.1988 90.5904 54.5815 135.586 54.5815C158.069 54.5815 178.472 63.7268 193.213 78.5028L212.498 59.2495C192.798 39.5828 165.616 27.3975 135.586 27.3975Z" fill="#5176B9"/>
</g>
<path d="M-0.410156 136.161C-0.410156 211.261 60.4698 272.141 135.57 272.141C210.67 272.141 271.55 211.261 271.55 136.161C271.55 61.062 210.67 0.181982 135.57 0.181982C60.4698 0.181982 -0.410156 61.062 -0.410156 136.161ZM26.7952 136.161C26.7952 76.1833 75.5912 27.3873 135.57 27.3873C195.548 27.3873 244.345 76.182 244.345 136.161C244.345 196.139 195.548 244.937 135.57 244.937C75.5912 244.937 26.7952 196.139 26.7952 136.161ZM173.993 97.7566C183.842 107.573 189.919 121.197 189.919 136.163C189.919 166.13 165.55 190.53 135.584 190.53C120.594 190.53 107.009 184.427 97.1605 174.589L116.365 155.353C111.439 150.426 108.402 143.646 108.402 136.163C108.402 121.197 120.586 109.013 135.584 109.013C143.067 109.013 149.847 112.05 154.773 116.975L173.993 97.7233C164.175 87.8727 150.583 81.7966 135.584 81.7966C105.554 81.7966 81.2178 106.134 81.2178 136.163C81.2178 151.186 87.2885 164.741 97.1298 174.589L77.8925 193.857C92.6658 208.631 113.039 217.745 135.584 217.745C180.612 217.745 217.135 181.223 217.135 136.163C217.134 113.649 208.021 93.246 193.246 78.4713L173.993 97.7566Z" fill="url(#paint1_linear_551_20)"/>
<mask id="mask2_551_20" style="mask-type:luminance" maskUnits="userSpaceOnUse" x="-76" y="-147" width="1134" height="567">
<path d="M-76 -147H1057.86V419.93H-76V-147Z" fill="white"/>
</mask>
<g mask="url(#mask2_551_20)">
<path d="M162.737 136.163C162.737 151.131 150.553 163.314 135.586 163.314C128.07 163.314 121.292 160.276 116.366 155.352L154.774 116.975C159.698 121.9 162.737 128.68 162.737 136.163ZM135.586 27.3975C75.4944 27.3975 26.7891 76.0722 26.7891 136.163C26.7891 166.192 38.9731 193.375 58.6411 213.076L77.9264 193.823C63.1504 179.048 54.0051 158.644 54.0051 136.163C54.0051 91.1988 90.5904 54.5815 135.586 54.5815C158.069 54.5815 178.472 63.7268 193.213 78.5028L212.498 59.2495C192.798 39.5828 165.616 27.3975 135.586 27.3975Z" fill="#5176B9"/>
</g>
</g>
<defs>
<linearGradient id="paint0_linear_551_20" x1="39.4178" y1="40.0089" x2="231.722" y2="232.313" gradientUnits="userSpaceOnUse">
<stop stop-color="#EDEEEE"/>
<stop offset="0.187614" stop-color="#EDEEEE"/>
<stop offset="0.921182" stop-color="#575858"/>
<stop offset="1" stop-color="#575858"/>
</linearGradient>
<linearGradient id="paint1_linear_551_20" x1="39.4178" y1="40.0089" x2="231.722" y2="232.313" gradientUnits="userSpaceOnUse">
<stop stop-color="#EDEEEE"/>
<stop offset="0.187614" stop-color="#EDEEEE"/>
<stop offset="0.921182" stop-color="#575858"/>
<stop offset="1" stop-color="#575858"/>
</linearGradient>
<clipPath id="clip0_551_20">
<rect width="989" height="272" fill="white"/>
</clipPath>
</defs>
</svg>
