<svg width="138" height="50" viewBox="0 0 138 50" fill="none" xmlns="http://www.w3.org/2000/svg">
<g clip-path="url(#clip0_2511_48)">
<path fill-rule="evenodd" clip-rule="evenodd" d="M37.4041 32.164H33.1221L35.0741 28.723L30.2251 20.086H34.5701L37.0891 25.218L39.6081 20.086H43.8901L37.4041 32.164Z" fill="#253081"/>
<path fill-rule="evenodd" clip-rule="evenodd" d="M91.4951 32.1645H86.1426C83.1826 32.1645 80.853 29.7241 80.853 26.2817C80.853 22.4018 83.1826 20.0864 86.1426 20.0864H91.4951V23.0903H88.0313C85.9536 23.0903 84.7568 23.7163 84.7568 26.2192C84.7568 28.6596 85.9536 29.1606 88.0313 29.1606H91.4951V32.1645Z" fill="#253081"/>
<path fill-rule="evenodd" clip-rule="evenodd" d="M105.537 32.164H101.57V23.654L97.036 32.164H92.313V20.086H96.218V28.347L100.751 20.086H105.537V32.164Z" fill="#253081"/>
<path fill-rule="evenodd" clip-rule="evenodd" d="M54.469 32.164L59.569 20.086H63.977L68.196 30.099L72.415 20.086H76.76L81.86 32.164H77.705L74.619 23.466L71.471 32.164H69.015H67.314H64.922L63.977 29.662H59.569L58.625 32.164H54.469Z" fill="#253081"/>
<path fill-rule="evenodd" clip-rule="evenodd" d="M61.7729 23.466L60.5139 26.908H63.0329L61.7729 23.466Z" fill="white"/>
<path fill-rule="evenodd" clip-rule="evenodd" d="M48.1089 32.1645H44.2046V20.0864H52.3281C52.8831 20.0284 53.4441 20.0958 53.9696 20.2835C54.4951 20.4711 54.9719 20.7744 55.3646 21.1708C55.7574 21.5672 56.0562 22.0467 56.239 22.5739C56.4218 23.1012 56.484 23.6628 56.4209 24.2172C56.4209 25.0307 56.4209 28.6596 52.3281 28.6596H48.1089V32.1645Z" fill="#253081"/>
<path fill-rule="evenodd" clip-rule="evenodd" d="M48.1089 25.6557H50.9424C51.3828 25.6557 52.5166 25.6557 52.5166 24.3422C52.5166 23.0903 51.3828 23.0903 50.9424 23.0903H48.1089V25.6557Z" fill="white"/>
<path fill-rule="evenodd" clip-rule="evenodd" d="M117.816 20.0864V23.0903H110.26V24.6547H114.227C118.383 24.6547 118.383 27.0327 118.383 28.3471C118.383 29.7241 118.383 32.1645 114.29 32.1645H106.293V20.0864H117.816Z" fill="#253081"/>
<path fill-rule="evenodd" clip-rule="evenodd" d="M110.26 27.4711V29.3491H113.597C114.478 29.3491 114.478 28.6596 114.478 28.3471C114.478 28.0971 114.478 27.4711 113.597 27.4711H110.26Z" fill="white"/>
<path fill-rule="evenodd" clip-rule="evenodd" d="M12.5941 14.0786C12.8935 14.054 13.1947 14.0967 13.4755 14.2036L13.4125 6.00531H14.4198C14.3742 8.8042 14.4794 11.6035 14.7348 14.3911C17.0688 14.8805 19.2032 16.0562 20.8642 17.7674C22.5251 19.4786 23.6368 21.6472 24.0564 23.9947C24.4761 26.3422 24.1845 28.7616 23.2192 30.9422C22.254 33.1228 20.659 34.9653 18.6391 36.2329C18.5761 36.1704 18.4501 35.9819 18.3241 35.8569C14.7348 31.2885 13.8529 24.4672 13.6015 18.5219C14.0997 18.6356 14.6044 18.719 15.1127 18.7719C15.8656 23.8276 18.126 28.5387 21.5985 32.2895C22.8615 30.7511 23.509 28.799 23.416 26.8108C23.3229 24.8226 22.4958 22.9395 21.0946 21.5258C19.5332 19.8472 17.5225 18.6523 15.3017 18.0834C14.2503 17.8281 13.1717 17.702 12.0898 17.708C11.0086 17.7094 9.93114 17.8354 8.87878 18.0834C4.21908 19.2729 0.755795 22.9028 0.755795 27.2202C0.792612 29.0539 1.40988 30.8287 2.51889 32.2895C6.01481 28.5547 8.27878 23.8359 9.0043 18.7719C9.5087 18.7094 10.0121 18.6469 10.579 18.5219C10.3271 24.4672 9.44519 31.226 5.85589 35.7944V35.7319C5.74556 35.9101 5.61903 36.0779 5.4779 36.2329C3.48396 34.939 1.91827 33.0831 0.978757 30.8997C0.039239 28.7163 -0.231973 26.3034 0.199399 23.9659C0.630771 21.6285 1.74538 19.4713 3.40234 17.7671C5.0593 16.0628 7.18426 14.888 9.50869 14.3911C9.82309 8.25828 9.76019 6.00531 9.76019 6.00531H10.7675L10.7045 14.2036C10.9647 14.1013 11.2444 14.0586 11.5233 14.0786V2H12.5941V14.0786ZM12.6571 18.4589C12.7826 24.1538 13.1606 31.2885 15.0497 36.1079C15.2387 36.6079 15.5531 37.1713 15.8056 37.6723C14.5958 38.0165 13.3472 38.2055 12.0898 38.2348C10.8318 38.215 9.5823 38.0258 8.37488 37.6723C8.68978 37.0463 8.94128 36.4829 9.19378 35.9194C10.9564 31.1635 11.4604 24.0913 11.5233 18.4589H12.6571Z" fill="#253081"/>
</g>
<defs>
<clipPath id="clip0_2511_48">
<rect width="118.383" height="36.2348" fill="white" transform="translate(0 2)"/>
</clipPath>
</defs>
</svg>
