<svg width="135" height="50" viewBox="0 0 135 50" fill="none" xmlns="http://www.w3.org/2000/svg">
<g clip-path="url(#clip0_1211_2085)">
<path d="M61.2105 32.2341V18.7201H58.5855V32.233L61.2105 32.2341ZM108.563 18.7201H105.72L109.931 28.1989H112.774L108.563 18.7201ZM116.748 18.7201L110.932 32.233H113.776L119.536 18.7201H116.748ZM92.8845 18.7201V32.233H95.5095V28.044H99.848C102.656 28.044 104.57 26.0751 104.57 23.3734C104.57 20.67 102.565 18.7201 99.848 18.7201H92.8845ZM95.5095 21.3071H99.648C101.052 21.3071 101.908 22.1377 101.908 23.3728C101.908 24.6666 100.924 25.4581 99.648 25.4581H95.5095V21.3077V21.3071ZM83.4875 25.4581H86.1495C86.1495 21.5778 83.1225 18.3733 79.4595 18.3733C75.7945 18.3733 72.768 21.5778 72.768 25.4581H75.43C75.43 23.0842 77.2165 21.1913 79.4595 21.1913C81.702 21.1913 83.4875 23.083 83.4875 25.4581ZM80.826 25.4581C80.826 27.832 79.0395 29.7248 76.7965 29.7248C74.5535 29.7248 72.767 27.8331 72.767 25.4581H70.1055C70.1055 29.3389 73.132 32.5434 76.7965 32.5434C80.461 32.5434 83.4875 29.3383 83.4875 25.4581H80.826ZM86.2 32.2341H89.062V29.2024H86.2V32.2341ZM61.0285 25.4195V25.6119L66.8625 32.233H70.3815L64.147 25.4564L70.3815 18.7195H67.027L61.0285 25.4189V25.4195ZM49.8343 18.7201H47.2454L42.3243 32.2341H45.0588L46.1526 29.2807H53.408L54.5025 32.2341H57.273L52.35 18.7201H49.7793L52.568 26.8469H47.0088L49.8349 18.7201H49.8343ZM28.2504 32.2341H28.7427C32.061 32.2341 32.8815 29.3389 32.8815 25.1487V21.3071H38.1865V32.233H40.8476V18.7201H30.256V25.3221C30.256 27.9092 29.9638 29.5883 28.2504 29.5883V32.2341H28.2499H28.2504ZM15.3065 32.2341H22.2704C24.986 32.2341 26.9921 30.5544 26.9921 27.8515C26.9921 25.1487 25.0782 23.4315 22.2699 23.4315H17.931V21.3082H26.226V18.7201H15.3049L15.306 32.2341H15.3065ZM17.9327 29.6471V26.0169H22.0715C23.3471 26.0169 24.3315 26.5583 24.3315 27.8515C24.3315 29.0866 23.4743 29.6471 22.071 29.6471H17.9321H17.9327ZM6.7215 29.7237C4.4793 29.7237 2.69152 27.832 2.69152 25.4569C2.69152 23.0819 4.47819 21.1913 6.72095 21.1913C8.96265 21.1913 10.7504 23.083 10.7504 25.4581C10.7504 27.8331 8.96265 29.7237 6.72095 29.7237H6.7215ZM6.7215 32.5423C10.3854 32.5423 13.4121 29.3372 13.4121 25.4569C13.4104 21.5778 10.3838 18.3733 6.7204 18.3733C3.05708 18.3733 0.0292969 21.5778 0.0292969 25.4581C0.0292969 29.3389 3.05597 32.5423 6.7204 32.5423H6.7215Z" fill="#184AE8"/>
</g>
<defs>
<clipPath id="clip0_1211_2085">
<rect width="120" height="14.5856" fill="white" transform="translate(0 18)"/>
</clipPath>
</defs>
</svg>
