<svg width="135" height="50" viewBox="0 0 135 50" fill="none" xmlns="http://www.w3.org/2000/svg">
<g clip-path="url(#clip0_2091_4348)">
<path d="M0 38.6003H26.5344V12.0016H0V38.6003Z" fill="#DA1F24"/>
<path d="M64.408 18.817L61.6817 22.3388C61.0068 23.2088 60.4539 23.8204 59.0636 23.9807H57.0732C57.0732 22.2621 57.0677 20.5406 57.0677 18.8191H51.467V26.8326C51.467 29.6358 52.0947 30.9591 52.8199 31.7819H57.0734C57.0734 29.8201 57.0722 27.8564 57.0722 25.8975H58.1913C59.8116 26.002 60.3926 26.6367 61.1135 27.5653L64.4059 31.782H70.0088L64.9685 25.3097L70.0088 18.8168H64.4081L64.408 18.817ZM33.9292 18.8191V26.8326C33.9292 29.6358 34.5634 30.9591 35.2842 31.7819H49.5522V29.8706H39.5422L39.5368 25.8963H48.6086V23.9807H39.5368L39.5357 20.7316H49.5523V18.8191H33.9295H33.9292ZM71.378 18.8191V26.8326C71.378 29.6358 72.0099 30.9591 72.732 31.7819H76.9865C76.9865 29.8186 76.9854 27.8567 76.9854 25.892H86.0572V23.9806H76.9854L76.9821 20.7315H86.9998V18.8191H71.378L71.378 18.8191Z" fill="#212529"/>
<path d="M6.76107 15.8005C6.82102 15.9135 6.8786 16.0327 6.93423 16.1501C8.27614 18.753 9.03177 21.7064 9.03177 24.8345C9.03177 25.2337 9.02212 25.629 8.99496 26.0197C8.99785 26.0454 9.0049 26.0736 9.02202 26.0965C9.06768 26.1595 9.15724 26.1722 9.22008 26.1279C9.24147 26.1136 9.25593 26.0964 9.26446 26.0792L9.27853 26.0381C10.4748 22.3491 10.3507 18.8548 10.1465 15.8026V15.8004H6.76107L6.76107 15.8005ZM12.4549 15.8026C12.1765 18.9937 11.7479 23.1317 8.75447 28.1433C8.74877 28.1633 8.73903 28.1604 8.74904 28.2104C8.75475 28.262 8.85497 28.3388 8.90922 28.3317C8.9663 28.3245 8.96865 28.3135 8.99148 28.2905C13.2483 22.8228 14.8554 19.2713 16.3056 15.803H12.4547L12.4549 15.8026ZM18.9987 15.8394C15.5598 22.5379 8.439 29.6364 3.89838 34.479C3.87268 34.5148 3.78906 34.5775 3.78906 34.6219C3.78906 34.6719 3.80376 34.7138 3.82803 34.7453L3.82586 34.7496C3.82871 34.7539 3.83309 34.7536 3.83452 34.755C3.83879 34.7579 3.8385 34.7609 3.83993 34.7637L3.84426 34.7615C3.87709 34.7873 3.9159 34.7994 3.96872 34.7994C4.0144 34.7994 4.07732 34.717 4.11159 34.6912C8.95089 30.1507 16.0483 23.0293 22.7434 19.5876V15.8395H18.9987L18.9987 15.8394ZM22.743 22.2414C19.277 23.6953 15.7254 25.2982 10.261 29.5611C10.2396 29.5826 10.2288 29.5879 10.2188 29.6422C10.2103 29.6966 10.2879 29.7971 10.3379 29.8056C10.3878 29.8114 10.3853 29.807 10.4082 29.797C15.4174 26.8034 19.5543 26.3725 22.7434 26.0977V22.2414L22.743 22.2414ZM19.1368 28.2267C17.045 28.246 14.8159 28.4774 12.5087 29.2278L12.4676 29.2397C12.4504 29.2497 12.4314 29.264 12.42 29.2841C12.3728 29.3485 12.3893 29.4349 12.4535 29.4821C12.4735 29.4979 12.5025 29.5067 12.5282 29.5081C12.9179 29.4823 13.3154 29.4735 13.7122 29.4735C16.8399 29.4735 19.7884 30.2291 22.3923 31.5699C22.5115 31.6268 22.6273 31.6873 22.7408 31.7441V28.3544C21.5974 28.2792 20.3918 28.2151 19.1367 28.2266L19.1368 28.2267Z" fill="white"/>
</g>
<defs>
<clipPath id="clip0_2091_4348">
<rect width="87" height="26.5987" fill="white" transform="translate(0 12.0016)"/>
</clipPath>
</defs>
</svg>
