<svg width="135" height="50" viewBox="0 0 135 50" fill="none" xmlns="http://www.w3.org/2000/svg">
<path d="M0 17.6865H9.15026C10.319 17.6726 11.487 17.7639 12.6395 17.9574C13.5218 18.0998 14.3864 18.3436 15.213 18.6834C15.8655 18.9389 16.4685 19.3026 16.9971 19.7601C17.4475 20.1463 17.8336 20.6017 18.1411 21.1092C18.4112 21.5705 18.6039 22.0712 18.7131 22.5937C18.8253 23.0999 18.8833 23.6169 18.8841 24.1347V24.6905C18.8799 25.1968 18.8262 25.7015 18.7239 26.1974C18.6192 26.7268 18.43 27.2359 18.1635 27.7052C17.856 28.2258 17.4701 28.696 17.0195 29.0992C16.4928 29.5688 15.8944 29.9514 15.2471 30.2323C14.4228 30.593 13.5597 30.8554 12.6735 31.0141C11.5141 31.213 10.3384 31.3082 9.16187 31.2981H0.0116096V17.6974L0 17.6865ZM4.30113 28.0342H8.77254C9.76073 28.0662 10.748 27.9477 11.7006 27.6828C12.3118 27.5051 12.8802 27.2043 13.3709 26.7988C13.7285 26.5016 13.9909 26.1077 14.1255 25.6649C14.2424 25.2981 14.3036 24.9165 14.309 24.5318V24.418C14.3042 24.0342 14.2467 23.6529 14.1379 23.2849C14.0076 22.8446 13.7531 22.4512 13.4049 22.1517C12.9123 21.7431 12.3397 21.442 11.7238 21.2678C10.7655 21.0129 9.77535 20.8982 8.78415 20.9273H4.30113V28.045V28.0342ZM34.9137 20.7593V17.685H20.2022V20.7585H34.9145L34.9137 20.7593ZM32.279 26.0287V22.7353H20.2015V26.0287H32.279ZM20.2022 28.2246V31.2989H34.9137V28.2246H20.2022Z" fill="#111C4E"/>
<path d="M40.9274 31.4924C40.1794 31.3658 39.4492 31.1501 38.7525 30.85C38.2288 30.6258 37.7443 30.3193 37.3175 29.9421C36.9831 29.6344 36.7019 29.2735 36.4854 28.874C36.2919 28.5411 36.1603 28.175 36.0984 27.7942C36.0369 27.465 36.0066 27.1307 36.0078 26.7958V26.5659H40.4491C40.4646 26.8012 40.5149 27.0334 40.5969 27.2547C40.7184 27.5434 40.915 27.7942 41.1666 27.9784C41.542 28.2331 41.9584 28.4196 42.3972 28.5295C43.09 28.6998 43.8021 28.7772 44.5149 28.7594H44.7657C45.4855 28.7687 46.2053 28.7269 46.919 28.6332C47.3361 28.5845 47.7432 28.4723 48.1264 28.3004C48.3532 28.2099 48.542 28.0434 48.6605 27.8283C48.741 27.6603 48.7843 27.4761 48.7859 27.2896C48.7887 27.102 48.7459 26.9166 48.6612 26.7493C48.5499 26.5614 48.3827 26.4128 48.1829 26.3244C47.8208 26.169 47.4362 26.0723 47.0436 26.038C46.4163 25.9574 45.785 25.9111 45.1527 25.8995H42.7958C41.7146 25.8802 40.6382 25.7494 39.5837 25.5094C38.8508 25.3355 38.1535 25.0362 37.5226 24.6247C37.0375 24.3171 36.6441 23.8848 36.3832 23.3731C36.1664 22.8933 36.0575 22.3717 36.0643 21.8452V21.685C36.0628 21.1586 36.1594 20.6365 36.3492 20.1455C36.5905 19.5968 36.9861 19.13 37.4877 18.8019C38.1826 18.3455 38.9543 18.0187 39.7656 17.8375C41.0118 17.5658 42.2842 17.4427 43.5582 17.4698H44.823C46.1581 17.4381 47.4933 17.5689 48.7982 17.8607C49.6651 18.0457 50.4902 18.3878 51.2356 18.8707C51.7606 19.216 52.1786 19.7013 52.4422 20.2717C52.6644 20.7624 52.7813 21.2949 52.7844 21.8336V22.0178H48.4221C48.3927 21.8517 48.343 21.6897 48.2742 21.5356C48.1538 21.3099 47.9722 21.1226 47.7502 20.9954C47.3968 20.7863 47.0122 20.6353 46.6109 20.548C45.9143 20.4071 45.203 20.3452 44.4925 20.3638H44.1968C43.5419 20.3535 42.8871 20.3881 42.237 20.4675C41.874 20.5078 41.5187 20.5968 41.1782 20.7314C40.9901 20.8011 40.833 20.935 40.7339 21.1107C40.6759 21.2485 40.6449 21.3971 40.6426 21.5472C40.6354 21.7206 40.6834 21.8917 40.7797 22.0361C40.8759 22.1804 41.0154 22.2906 41.1782 22.3507C41.4824 22.4869 41.8051 22.5759 42.1349 22.6154C42.689 22.6966 43.2494 22.7392 43.8098 22.7415H46.0877C47.1945 22.7493 48.299 22.8491 49.3904 23.0403C50.1865 23.1645 50.9564 23.4206 51.6682 23.798C52.2096 24.0866 52.6563 24.5252 52.9546 25.0612C53.2294 25.6131 53.3664 26.2238 53.354 26.8414V27.1054C53.3558 27.6766 53.2595 28.244 53.0692 28.7826C52.8459 29.3821 52.4493 29.9015 51.9299 30.2749C51.1967 30.7875 50.3677 31.1471 49.4925 31.3322C48.1277 31.6296 46.7326 31.7644 45.3361 31.7339H44.059C43.0102 31.7494 41.9615 31.6689 40.9274 31.4924ZM58.9671 26.7617V31.2989H54.6714V17.6865H64.9517C65.9904 17.6656 67.0275 17.7794 68.0361 18.0271C68.7536 18.2005 69.4262 18.5217 70.0121 18.9683C70.4773 19.3365 70.8361 19.8219 71.0516 20.3746C71.2598 20.9335 71.3643 21.5256 71.3596 22.1216V22.3027C71.3592 22.896 71.2509 23.4842 71.04 24.0388C70.823 24.5968 70.4599 25.0863 69.9889 25.456C69.4058 25.9067 68.7376 26.2347 68.0245 26.4204C67.0219 26.6829 65.9878 26.8053 64.9517 26.7841L58.9671 26.7609V26.7617ZM58.9671 23.699H64.8944C65.4241 23.7379 65.9523 23.6067 66.4021 23.3244C66.5637 23.2018 66.693 23.0416 66.7786 22.8578C66.8643 22.6739 66.9038 22.472 66.8936 22.2694C66.9145 22.0554 66.8815 21.8395 66.7977 21.6415C66.7139 21.4435 66.5819 21.2695 66.4138 21.1355C65.9613 20.8492 65.4281 20.7177 64.8944 20.7609H58.9671V23.699ZM82.5324 17.4683C83.7826 17.4464 85.0317 17.5577 86.2584 17.8003C87.1717 17.9783 88.058 18.2755 88.8954 18.6827C90.091 19.2614 91.0563 20.2265 91.6354 21.4219C91.8684 21.8963 92.0301 22.4017 92.1168 22.9234C92.1819 23.3747 92.2167 23.8306 92.2206 24.2864V24.8368C92.2174 25.2893 92.1827 25.7412 92.1168 26.1889C91.934 27.315 91.4189 28.3607 90.6377 29.1921C90.1441 29.722 89.5575 30.157 88.907 30.4754C88.0732 30.898 87.1862 31.2063 86.27 31.3918C85.0394 31.6395 83.787 31.754 82.5324 31.7362H81.7297C80.4713 31.755 79.2144 31.6395 77.9804 31.3918C77.0642 31.2063 76.1772 30.898 75.3434 30.4754C74.6913 30.154 74.1014 29.7195 73.6011 29.1921C73.1919 28.749 72.8519 28.2467 72.5926 27.7021C72.3703 27.2214 72.2158 26.7121 72.1336 26.1889C72.0591 25.742 72.0208 25.2898 72.0191 24.8368V24.2872C72.0214 23.8306 72.0593 23.3739 72.1336 22.9234C72.2123 22.4031 72.3669 21.8972 72.5926 21.4219C72.8551 20.8862 73.1949 20.392 73.6011 19.9551C74.1081 19.4382 74.6968 19.0083 75.3434 18.6827C76.1793 18.2724 77.0664 17.9752 77.9804 17.8003C79.2149 17.557 80.4717 17.4454 81.7297 17.4675H82.5324V17.4683ZM87.7027 24.4126C87.6988 23.9909 87.6253 23.5727 87.4852 23.175C87.3241 22.7228 87.038 22.3255 86.6601 22.0294C86.1598 21.626 85.5821 21.3294 84.9627 21.1579C83.0799 20.6955 81.1132 20.6955 79.2305 21.1579C78.6101 21.3264 78.0321 21.6233 77.5339 22.0294C77.1616 22.329 76.8806 22.7261 76.7196 23.175C76.5968 23.5766 76.5311 23.9935 76.5246 24.4134V24.6301C76.5292 25.0589 76.5989 25.4838 76.7312 25.8917C76.9081 26.3357 77.1917 26.7292 77.5571 27.0372C78.0544 27.461 78.6365 27.7734 79.2645 27.9537C81.1221 28.4351 83.0711 28.4351 84.9287 27.9537C85.5508 27.7788 86.129 27.4744 86.6253 27.0605C86.9936 26.7524 87.2809 26.3588 87.462 25.9142C87.5966 25.511 87.6702 25.0899 87.6802 24.6649L87.7027 24.4126ZM97.9977 31.2989H93.7577V17.6865H104.695C105.642 17.6688 106.588 17.7603 107.514 17.959C108.16 18.0975 108.776 18.3545 109.329 18.719C109.749 19.0008 110.085 19.3932 110.299 19.853C110.486 20.2864 110.582 20.7538 110.581 21.226V21.4412C110.594 21.873 110.501 22.3015 110.31 22.6889C110.147 23.0178 109.925 23.3143 109.656 23.5627C109.412 23.7897 109.135 23.9773 108.833 24.1185C108.54 24.2547 108.281 24.3569 108.067 24.4358C108.407 24.5303 108.736 24.6634 109.047 24.8329C109.359 25.0001 109.638 25.223 109.87 25.4908C110.105 25.7586 110.293 26.0659 110.423 26.3987C110.564 26.7602 110.636 27.1448 110.637 27.5326V29.5295C110.625 29.9088 110.651 30.2888 110.715 30.6634C110.752 30.8361 110.81 31.004 110.886 31.1627V31.2648H106.567C106.502 31.1672 106.452 31.0602 106.42 30.9475C106.378 30.769 106.359 30.5859 106.364 30.4026V28.826C106.394 28.4951 106.354 28.1616 106.247 27.8469C106.141 27.5323 105.969 27.2436 105.744 26.9993C105.103 26.5505 104.323 26.3454 103.545 26.4211H97.9977V31.2989ZM97.9977 23.4265H104.436C104.905 23.4736 105.375 23.3353 105.744 23.0411C105.875 22.9196 105.978 22.772 106.048 22.6079C106.118 22.4437 106.153 22.2667 106.149 22.0883C106.15 21.9163 106.115 21.7462 106.047 21.5882C105.979 21.4302 105.88 21.2878 105.755 21.1695C105.384 20.8694 104.911 20.7268 104.436 20.7725H97.9977V23.4265ZM117.616 20.8986H111.763V17.685H127.793V20.8986H121.917V31.2989H117.616V20.8986Z" fill="#0047BA"/>
</svg>
