<svg width="68" height="40" viewBox="0 0 68 40" fill="none" xmlns="http://www.w3.org/2000/svg">
<path d="M62.5437 34.6099V34.7752H62.0704V36.0065H61.8757V34.7752H61.4023V34.6099H62.5437Z" fill="#151617"/>
<path d="M62.6455 34.6099H62.9482L63.3648 35.7559H63.3749L63.7802 34.6099H64.0769V36.0099H63.8769V34.8652H63.8709L63.4429 36.0099H63.2608L62.8502 34.8652H62.8415V36.0099H62.6469L62.6455 34.6099Z" fill="#151617"/>
<path d="M22.9532 25.395H20.2744V36.0073H22.9532V25.395Z" fill="#151617"/>
<path d="M44.5452 28.4357C43.8544 28.0582 43.079 27.8625 42.2918 27.867C41.9145 27.8588 41.5394 27.9261 41.1885 28.0648C40.8376 28.2035 40.5179 28.4109 40.2482 28.6748C39.9785 28.9387 39.7642 29.2538 39.6179 29.6017C39.4716 29.9495 39.3962 30.3231 39.3962 30.7004C39.3962 31.0777 39.4716 31.4513 39.6179 31.7991C39.7642 32.147 39.9785 32.4621 40.2482 32.726C40.5179 32.9899 40.8376 33.1973 41.1885 33.336C41.5394 33.4748 41.9145 33.542 42.2918 33.5338C43.0782 33.5375 43.853 33.3438 44.5452 32.9705V35.8205C43.7537 36.0631 42.9315 36.1901 42.1038 36.1979C39.0923 36.1979 36.453 34.1205 36.453 30.7011C36.4402 29.9627 36.5788 29.2296 36.8603 28.547C37.1418 27.8643 37.5602 27.2466 38.0897 26.7319C38.6192 26.2172 39.2486 25.8164 39.939 25.5544C40.6293 25.2924 41.3661 25.1746 42.1038 25.2083C42.9321 25.2094 43.7555 25.3373 44.5452 25.5876V28.4357Z" fill="#151617"/>
<path d="M16.5954 28.4358C15.9049 28.0582 15.1296 27.8625 14.3426 27.8671C13.9632 27.8554 13.5853 27.9201 13.2314 28.0573C12.8775 28.1944 12.5547 28.4013 12.2822 28.6655C12.0097 28.9298 11.7931 29.2461 11.6451 29.5956C11.4972 29.9452 11.421 30.3209 11.421 30.7005C11.421 31.0801 11.4972 31.4558 11.6451 31.8054C11.7931 32.1549 12.0097 32.4712 12.2822 32.7355C12.5547 32.9997 12.8775 33.2066 13.2314 33.3437C13.5853 33.4809 13.9632 33.5455 14.3426 33.5339C15.1287 33.5366 15.9031 33.3429 16.5954 32.9706V35.8206C15.8022 36.0637 14.9781 36.1908 14.1486 36.198C11.1405 36.198 8.49981 34.1206 8.49981 30.7012C8.48723 29.9631 8.62594 29.2302 8.9074 28.5478C9.18886 27.8653 9.6071 27.2478 10.1363 26.7331C10.6656 26.2185 11.2946 25.8177 11.9847 25.5555C12.6747 25.2933 13.4112 25.1751 14.1486 25.2084C14.9787 25.2102 15.8037 25.3382 16.5954 25.5877V28.4358Z" fill="#151617"/>
<path d="M58.5797 30.6992C58.6023 31.8127 58.2928 32.9078 57.6906 33.8447C57.0883 34.7817 56.2207 35.518 55.1983 35.9599C54.176 36.4018 53.0451 36.5291 51.9501 36.3257C50.855 36.1223 49.8453 35.5974 49.0498 34.8178C48.2543 34.0383 47.709 33.0395 47.4834 31.9488C47.2578 30.8581 47.3622 29.7249 47.7832 28.6938C48.2042 27.6626 48.9228 26.7803 49.8473 26.1591C50.7718 25.538 51.8604 25.2063 52.9742 25.2064C53.7065 25.1853 54.4356 25.3121 55.1178 25.5792C55.8 25.8464 56.4213 26.2483 56.9446 26.7611C57.4679 27.2739 57.8824 27.8869 58.1633 28.5636C58.4443 29.2402 58.5859 29.9666 58.5797 30.6992ZM52.9742 27.9084C52.4208 27.9033 51.8784 28.0627 51.4158 28.3664C50.9532 28.6701 50.5913 29.1044 50.376 29.6142C50.1608 30.124 50.1018 30.6862 50.2067 31.2296C50.3116 31.7729 50.5756 32.2729 50.9651 32.6659C51.3547 33.0589 51.8522 33.3273 52.3946 33.437C52.937 33.5467 53.4998 33.4928 54.0115 33.2821C54.5232 33.0713 54.9607 32.7133 55.2685 32.2534C55.5763 31.7935 55.7405 31.2526 55.7402 30.6992C55.7465 30.3331 55.6794 29.9694 55.5429 29.6296C55.4064 29.2898 55.2033 28.9808 54.9455 28.7207C54.6877 28.4606 54.3805 28.2548 54.042 28.1153C53.7034 27.9758 53.3403 27.9054 52.9742 27.9084Z" fill="#151617"/>
<path d="M33.1112 27.8058C32.4282 27.619 31.7261 27.5107 31.0185 27.4831C29.9405 27.4831 29.3591 27.8418 29.3591 28.3498C29.3591 28.9971 30.1458 29.2212 30.5852 29.3632L31.3265 29.5972C33.0659 30.1492 33.8599 31.3405 33.8599 32.6306C33.8599 35.2973 31.5159 36.194 29.4598 36.194C28.4892 36.1857 27.5213 36.0884 26.5684 35.9033V33.4619C27.3929 33.6992 28.2442 33.8311 29.1018 33.8546C30.4305 33.8546 31.0465 33.4666 31.0465 32.8639C31.0465 32.3252 30.5132 32.0172 29.8465 31.8072C29.6865 31.7532 29.4411 31.6779 29.2765 31.6212C27.7824 31.1505 26.5391 30.2758 26.5391 28.5191C26.5391 26.5337 28.0278 25.1997 30.4965 25.1997C31.3773 25.2119 32.2537 25.3253 33.1086 25.5377L33.1112 27.8058Z" fill="#151617"/>
<path d="M5.65873 13.9873C5.65873 13.6348 5.51868 13.2966 5.26937 13.0473C5.02007 12.798 4.68194 12.658 4.32937 12.658C3.9768 12.658 3.63867 12.798 3.38936 13.0473C3.14006 13.2966 3 13.6348 3 13.9873V16.7741C3 17.1266 3.14006 17.4648 3.38936 17.7141C3.63867 17.9634 3.9768 18.1034 4.32937 18.1034C4.68194 18.1034 5.02007 17.9634 5.26937 17.7141C5.51868 17.4648 5.65873 17.1266 5.65873 16.7741V13.9873Z" fill="#151617"/>
<path d="M12.9634 10.3306C12.9634 9.97801 12.8234 9.63988 12.5741 9.39057C12.3248 9.14127 11.9866 9.00122 11.6341 9.00122C11.2815 9.00122 10.9434 9.14127 10.6941 9.39057C10.4447 9.63988 10.3047 9.97801 10.3047 10.3306V16.7741C10.3047 17.1267 10.4447 17.4648 10.6941 17.7141C10.9434 17.9634 11.2815 18.1034 11.6341 18.1034C11.9866 18.1034 12.3248 17.9634 12.5741 17.7141C12.8234 17.4648 12.9634 17.1267 12.9634 16.7741V10.3306Z" fill="#151617"/>
<path d="M20.2689 5.32557C20.2518 4.98391 20.104 4.66187 19.8561 4.4261C19.6083 4.19032 19.2793 4.05884 18.9372 4.05884C18.5951 4.05884 18.2661 4.19032 18.0182 4.4261C17.7703 4.66187 17.6226 4.98391 17.6055 5.32557V19.4193C17.6226 19.7609 17.7703 20.0829 18.0182 20.3187C18.2661 20.5545 18.5951 20.686 18.9372 20.686C19.2793 20.686 19.6083 20.5545 19.8561 20.3187C20.104 20.0829 20.2518 19.7609 20.2689 19.4193V5.32557Z" fill="#151617"/>
<path d="M27.5676 10.3304C27.5676 9.978 27.4276 9.64004 27.1784 9.39086C26.9292 9.14168 26.5912 9.00171 26.2389 9.00171C25.8865 9.00171 25.5485 9.14168 25.2993 9.39086C25.0501 9.64004 24.9102 9.978 24.9102 10.3304V16.7739C24.9102 16.9484 24.9445 17.1212 25.0113 17.2824C25.0781 17.4436 25.1759 17.5901 25.2993 17.7134C25.4227 17.8368 25.5692 17.9347 25.7304 18.0015C25.8916 18.0682 26.0644 18.1026 26.2389 18.1026C26.4133 18.1026 26.5861 18.0682 26.7473 18.0015C26.9085 17.9347 27.055 17.8368 27.1784 17.7134C27.3018 17.5901 27.3996 17.4436 27.4664 17.2824C27.5332 17.1212 27.5676 16.9484 27.5676 16.7739V10.3304Z" fill="#151617"/>
<path d="M34.8676 13.9875C34.8598 13.641 34.7167 13.3114 34.4689 13.0691C34.2212 12.8268 33.8884 12.6912 33.5419 12.6912C33.1953 12.6912 32.8626 12.8268 32.6148 13.0691C32.367 13.3114 32.2239 13.641 32.2162 13.9875V16.7742C32.2122 16.9508 32.2436 17.1264 32.3084 17.2907C32.3732 17.455 32.4703 17.6047 32.5937 17.731C32.7172 17.8573 32.8647 17.9577 33.0275 18.0262C33.1903 18.0947 33.3652 18.13 33.5419 18.13C33.7185 18.13 33.8934 18.0947 34.0562 18.0262C34.219 17.9577 34.3665 17.8573 34.49 17.731C34.6135 17.6047 34.7105 17.455 34.7753 17.2907C34.8401 17.1264 34.8715 16.9508 34.8676 16.7742V13.9875Z" fill="#151617"/>
<path d="M42.1736 10.3307C42.1736 9.97898 42.0339 9.6417 41.7852 9.39302C41.5365 9.14434 41.1992 9.00464 40.8475 9.00464C40.4958 9.00464 40.1586 9.14434 39.9099 9.39302C39.6612 9.6417 39.5215 9.97898 39.5215 10.3307V16.7742C39.5215 17.1259 39.6612 17.4631 39.9099 17.7118C40.1586 17.9605 40.4958 18.1002 40.8475 18.1002C41.1992 18.1002 41.5365 17.9605 41.7852 17.7118C42.0339 17.4631 42.1736 17.1259 42.1736 16.7742V10.3307Z" fill="#151617"/>
<path d="M49.4795 5.32572C49.4795 4.97412 49.3399 4.63691 49.0912 4.3883C48.8426 4.13968 48.5054 4 48.1538 4C47.8022 4 47.465 4.13968 47.2164 4.3883C46.9678 4.63691 46.8281 4.97412 46.8281 5.32572V19.4194C46.8281 19.771 46.9678 20.1082 47.2164 20.3568C47.465 20.6054 47.8022 20.7451 48.1538 20.7451C48.5054 20.7451 48.8426 20.6054 49.0912 20.3568C49.3399 20.1082 49.4795 19.771 49.4795 19.4194V5.32572Z" fill="#151617"/>
<path d="M56.7838 10.3304C56.7652 9.98995 56.6168 9.66957 56.3691 9.43515C56.1215 9.20072 55.7935 9.07007 55.4525 9.07007C55.1115 9.07007 54.7834 9.20072 54.5358 9.43515C54.2882 9.66957 54.1398 9.98995 54.1211 10.3304V16.7739C54.1398 17.1144 54.2882 17.4348 54.5358 17.6692C54.7834 17.9037 55.1115 18.0343 55.4525 18.0343C55.7935 18.0343 56.1215 17.9037 56.3691 17.6692C56.6168 17.4348 56.7652 17.1144 56.7838 16.7739V10.3304Z" fill="#151617"/>
<path d="M64.0778 13.9872C64.0778 13.6355 63.9381 13.2982 63.6894 13.0495C63.4408 12.8009 63.1035 12.6611 62.7518 12.6611C62.4001 12.6611 62.0628 12.8009 61.8141 13.0495C61.5655 13.2982 61.4258 13.6355 61.4258 13.9872V16.7739C61.4258 17.1256 61.5655 17.4629 61.8141 17.7116C62.0628 17.9602 62.4001 18.1 62.7518 18.1C63.1035 18.1 63.4408 17.9602 63.6894 17.7116C63.9381 17.4629 64.0778 17.1256 64.0778 16.7739V13.9872Z" fill="#151617"/>
</svg>
