<svg width="135" height="50" viewBox="0 0 135 50" fill="none" xmlns="http://www.w3.org/2000/svg">
<g clip-path="url(#clip0_1237_2447)">
<path d="M17.7231 19.7793C17.5305 19.9719 17.5305 20.2609 17.7231 20.4054C17.9157 20.598 18.2047 20.598 18.3492 20.4054C18.5418 20.2127 18.5418 19.9238 18.3492 19.7793C18.1565 19.5866 17.8676 19.5866 17.7231 19.7793Z" fill="#FEFEFE"/>
<path d="M22.1538 19.4903H20.2274L19.7458 20.0682C19.6495 20.1645 19.6977 20.2127 19.794 20.2609L20.4201 20.5498L22.202 19.7311C22.3465 19.6829 22.2983 19.4903 22.1538 19.4903ZM14.9779 28.9298H12.6181C11.992 29.315 11.7993 29.4114 10.9806 29.7485C10.9324 29.7485 10.8843 29.8448 10.9324 29.893L13.0515 35.8167H14.2555L12.3291 30.3746C13.5813 30.3746 16.6154 30.0375 18.2528 27.3886C17.7231 28.1592 16.5191 28.9298 14.9779 28.9298ZM18.3492 20.4053C18.1565 20.598 17.8676 20.598 17.7231 20.4053C17.5304 20.2127 17.5304 19.9237 17.7231 19.7793C17.9157 19.5866 18.2047 19.5866 18.3492 19.7793C17.9639 19.394 17.3378 19.394 17.0007 19.7793C16.6635 20.1645 16.6154 20.7425 17.0007 21.1278C17.3859 21.513 18.012 21.513 18.3492 21.1278C18.6863 20.7425 18.7344 20.1645 18.3492 19.7793C18.4936 19.9719 18.4936 20.2127 18.3492 20.4053ZM13.6776 31.1933L15.315 35.8167H16.5191L14.7853 30.9525C14.4963 31.0488 14.111 31.097 13.6776 31.1933ZM15.315 25.414C15.4595 25.2214 15.5558 25.0288 15.7003 24.788C15.6522 24.7398 15.604 24.788 15.5558 24.8361C13.0997 27.4368 10.7398 27.7739 8.90969 27.7739H6.11638C6.02006 27.7739 5.9719 27.6776 6.02006 27.5813C8.18729 24.5953 10.5472 22.2354 12.3291 20.7425L7.65752 24.6435C7.27223 24.9324 6.83879 25.1251 6.26086 25.1251H0.385277C0.240795 25.1251 0.288956 25.2696 0.288956 25.3659C0.67424 26.6181 1.83009 27.7739 3.75652 27.7739L2.35986 29.1706C2.3117 29.2187 2.3117 29.3632 2.45618 29.3632H7.70568C11.4622 29.3632 13.8221 27.7257 15.315 25.414Z" fill="#00985F"/>
<path d="M67.7137 35.8167H72V22.5726H67.7137V27.4368H63.6682V22.5726H59.3819V35.8167H63.6682V30.808H67.7137V35.8167ZM17.0007 21.1278C16.6154 20.7425 16.6154 20.1645 17.0007 19.7793C17.386 19.394 18.012 19.394 18.3492 19.7793C18.6863 20.1645 18.7344 20.7425 18.3492 21.1278C17.9639 21.513 17.3378 21.513 17.0007 21.1278ZM18.2047 27.3886C19.8421 24.7398 20.4201 20.5498 20.4201 20.5498L19.794 20.2609C19.6977 20.2127 19.6977 20.1645 19.7458 20.0682L20.2274 19.4903C19.9385 18.9124 18.8789 17.9492 17.3378 17.9492C16.4227 17.9492 15.604 18.19 14.8816 18.6716C14.8816 18.6716 13.8221 19.394 12.3291 20.6943C10.5472 22.2355 8.18729 24.5472 6.02007 27.5331C5.97191 27.6294 6.02007 27.7258 6.11639 27.7258H8.9097C10.7398 27.7258 13.0997 27.3886 15.5559 24.788C15.604 24.7398 15.6522 24.7398 15.7003 24.7398C15.7485 24.788 15.7485 24.8361 15.7485 24.8843C15.3632 25.8475 14.4 27.7258 12.6181 28.8816H14.9779C16.5672 28.8816 17.7231 28.1592 18.2047 27.3886ZM15.7967 30.5672L17.6268 35.7686H22.8281C21.7686 32.5418 20.6127 29.5559 19.505 26.8107C18.6381 28.689 17.8194 29.604 15.7967 30.5672ZM0 35.8167H5.2495L7.03144 30.2783H1.92642C1.30033 31.9157 0.674247 33.7458 0 35.8167ZM7.0796 23.9211L9.72843 21.7538C10.3064 20.2127 10.8843 18.6716 11.4622 17.3712C11.7512 18.0455 12.0401 18.7679 12.3291 19.4903C13.7739 18.2863 14.689 17.5639 15.893 17.2268C15.1706 15.6375 14.6408 14.4816 14.4 14H8.52442C8.04281 15.0595 6.16455 18.9605 3.94916 24.21H6.06823C6.50167 24.21 6.8388 24.1619 7.0796 23.9211ZM39.5398 34.3237L39.8288 35.7686H43.2963V22.5726H39.01V31.7712C38.6247 32.2047 37.9023 32.6863 37.2281 32.6863C36.0241 32.6863 35.398 32.012 35.398 30.7599V22.5726H31.1117V31.7712C30.7264 32.2047 29.9077 32.6863 29.1853 32.6863C28.0776 32.6863 27.4515 32.012 27.4515 30.7599V22.5726H23.1652V31.3378C23.1652 34.5164 24.5619 36.1057 27.4515 36.1057C29.5224 36.1057 30.7746 35.3351 31.7378 34.3237C32.412 35.5278 33.6161 36.1057 35.398 36.1057C37.4689 36.0575 38.6247 35.3351 39.5398 34.3237ZM53.1692 31.7231C52.7839 32.1565 52.1579 32.6381 51.0983 32.6381C49.9425 32.6381 49.3164 31.5786 49.3164 29.5077C49.3164 26.9552 49.9906 25.703 51.3873 25.703C52.206 25.703 52.5913 25.7512 53.1692 25.8957V31.7231ZM49.6054 36.0575H49.7498C51.6763 36.0575 52.9766 35.3833 53.699 34.3237L53.9398 35.7686H57.4555V23.1023C56.0589 22.6689 54.4214 22.2836 51.4355 22.2836C47.1492 22.2836 44.8375 24.8843 44.8375 29.7003C44.8375 34.1311 46.4749 36.0575 49.6054 36.0575Z" fill="#DC000F"/>
</g>
<defs>
<clipPath id="clip0_1237_2447">
<rect width="72" height="22.0575" fill="white" transform="translate(0 14)"/>
</clipPath>
</defs>
</svg>
