<svg width="135" height="50" viewBox="0 0 135 50" fill="none" xmlns="http://www.w3.org/2000/svg">
<path fill-rule="evenodd" clip-rule="evenodd" d="M87.9073 21.9363H82.6795L82.6516 33.8972H87.8794C89.0631 33.9215 90.2352 33.6658 91.3008 33.1515C92.257 32.6898 93.0583 31.9599 93.607 31.0507C94.166 30.1026 94.4502 29.0175 94.4278 27.9171C94.4586 26.819 94.1838 25.7339 93.6342 24.7828C93.0856 23.8737 92.2843 23.1437 91.3281 22.682C90.2622 22.1681 89.0903 21.9128 87.9073 21.9369V21.9363ZM90.1238 31.5093C89.401 31.8576 88.6065 32.0311 87.8043 32.0157L84.9372 32.0569V23.8457H87.8388C88.6413 23.8273 89.4365 24.0009 90.1583 24.3521C90.7994 24.6665 91.3328 25.164 91.6909 25.7817C92.0622 26.4409 92.2489 27.188 92.2313 27.9443C92.2489 28.7007 92.0622 29.4478 91.6909 30.1069C91.3195 30.7198 90.7739 31.208 90.1238 31.5093ZM97.3712 31.1258H103.324L104.549 33.8972H106.868L101.47 21.9363H99.2866L93.902 33.8972H96.1942L97.3712 31.1258V31.1258ZM100.389 24.1946L102.64 29.4224H98.1236L100.389 24.1946V24.1946ZM108.845 23.8184H104.883V21.9363H115.031V23.8184H111.069V33.8972H108.845V23.819V23.8184ZM116.503 31.1258H122.483L123.68 33.8972H126L120.601 21.9363H118.418L113.04 33.8972H115.326L116.503 31.1258V31.1258ZM119.541 24.1946L121.799 29.4224H117.269L119.541 24.1946Z" fill="#191C1F"/>
<path fill-rule="evenodd" clip-rule="evenodd" d="M0 17.9128C0 14.6901 6.33635 13 12.5976 13C18.8576 13 25.1939 14.6901 25.1939 17.9067H23.4081C23.4004 17.8327 23.3795 17.7607 23.3463 17.6941C23.3161 17.6134 23.2747 17.5374 23.2234 17.4682C23.1745 17.3833 23.1121 17.3069 23.0386 17.2422C22.9683 17.1664 22.8928 17.0955 22.8127 17.0302C22.7014 16.9327 22.5797 16.8478 22.4498 16.777C22.4289 16.7642 22.4079 16.7514 22.3868 16.7388C22.3127 16.695 22.2401 16.6485 22.1693 16.5995C21.8122 16.4001 21.4392 16.2307 21.0541 16.0931L19.6033 19.3297L19.4325 19.7053L19.3234 19.9591C19.3131 19.9736 19.2992 20.0063 19.281 20.0499C19.2406 20.1507 19.1928 20.2482 19.1381 20.3419C18.8988 20.732 18.4063 21.1839 17.325 20.8072L17.0718 20.7048H17.0033C16.4262 20.4764 15.8245 20.3158 15.2103 20.2262C15.154 20.2162 15.098 20.2045 15.0425 20.1911C14.9409 20.1639 14.8367 20.148 14.7317 20.1438C14.0234 20.0576 13.3105 20.0141 12.597 20.0136H12.494C11.0156 19.9693 9.54196 20.2014 8.14881 20.6981L7.86834 20.8144C6.71859 21.2179 6.24669 20.6702 6.03467 20.2874L5.88384 19.9663L4.13922 16.0997C3.38907 16.3456 2.69909 16.7466 2.11413 17.2767L2.05295 17.3518C1.96632 17.4542 1.90103 17.5728 1.86092 17.7008C1.72194 18.0293 1.6566 18.3844 1.6695 18.7409C1.66463 19.0855 1.72019 19.4283 1.83366 19.7537C1.85487 19.7949 1.87062 19.8385 1.88213 19.884C1.91241 19.9627 1.95906 20.0354 2.01842 20.096C2.03899 20.1371 2.06691 20.174 2.10081 20.205C2.76471 20.8006 3.55198 21.2423 4.40637 21.4983C4.40637 21.4983 4.70077 21.6146 5.27564 21.7721L5.71362 21.8957C6.9094 22.1786 8.12337 22.3803 9.34702 22.4973C10.4316 22.6061 11.5209 22.6611 12.6109 22.662H13.8085C14.4944 22.6478 15.1792 22.6021 15.8609 22.5251C17.1801 22.4221 18.4865 22.1929 19.762 21.8406C19.865 21.8121 19.9528 21.7861 20.0352 21.7606C20.1109 21.7382 20.1818 21.7164 20.2539 21.697C20.3266 21.6776 20.3841 21.6546 20.4308 21.6365C20.4678 21.6185 20.5075 21.6066 20.5483 21.6013C21.047 21.4363 21.5321 21.2325 21.9991 20.9919L20.9178 23.3871C18.2178 24.1847 15.4127 24.5699 12.5976 24.5296C8.37537 24.5296 4.13983 23.7633 1.81307 22.2719V23.3732C1.81307 24.6326 6.02135 26.4802 12.5976 26.4802C15.0734 26.5126 17.5418 26.2017 19.9322 25.5564L18.9884 27.6499C16.8863 28.0854 14.7443 28.2985 12.5976 28.286C8.37537 28.286 4.13983 27.513 1.81307 26.0349V27.1302C1.81307 28.3962 6.02135 30.2299 12.5976 30.2299C14.4187 30.2372 16.2368 30.0815 18.0301 29.7647L17.1408 31.7352C15.6354 31.9431 14.1173 32.0459 12.5976 32.043C8.37537 32.043 4.13983 31.27 1.81307 29.7919V30.8865C1.81307 32.1593 6.02135 33.9863 12.577 34.0135C13.7841 34.0184 14.9904 33.9522 16.1898 33.8154L15.3344 35.7036C14.4245 35.7865 13.5113 35.8278 12.5976 35.8272C6.33635 35.8272 0 34.1371 0 30.9144V17.9128ZM7.27347 19.4866C8.72803 18.8761 10.2878 18.5555 11.8652 18.5428V14.827C9.73225 14.8433 7.60919 15.1189 5.54279 15.6478L7.27347 19.4866V19.4866ZM13.3293 18.5428C14.9086 18.5564 16.4702 18.8769 17.9271 19.4866L19.659 15.6478C17.5902 15.1185 15.4647 14.8429 13.3293 14.827V18.5428V18.5428ZM40.5762 30.3941L43.0187 33.8972L45.3727 33.9245L42.6359 29.9973C43.4013 29.719 44.0614 29.2097 44.5246 28.5398C44.9844 27.8545 45.2231 27.0448 45.2086 26.2197C45.2293 25.4186 45.0151 24.6289 44.5925 23.9481C44.1737 23.288 43.569 22.7665 42.8545 22.4494C41.9887 22.087 41.056 21.9121 40.1177 21.9363H35.1976V33.8839H37.422V30.3941H40.1177C40.2703 30.4025 40.4236 30.4025 40.5762 30.3941V30.3941ZM40.0153 23.8184C40.7986 23.7647 41.5765 23.982 42.2185 24.4339C42.4755 24.6515 42.6775 24.9265 42.8082 25.2368C42.9389 25.5471 42.9947 25.8838 42.9708 26.2197C42.9888 26.552 42.9303 26.8839 42.7999 27.1901C42.6695 27.4962 42.4706 27.7683 42.2185 27.9855C41.5796 28.4446 40.8 28.665 40.0153 28.6083H37.4214V23.8184H40.0153ZM24.5234 31.1258H30.5041L31.7011 33.8972H34.0212L28.622 21.9363H26.4394L21.0541 33.8972H23.3463L24.5234 31.1258V31.1258ZM27.5134 24.1946L29.7717 29.4224H25.2763L27.5134 24.1946V24.1946ZM55.6302 32.0363V33.8972H46.6594V21.9363H55.4249V23.7978H48.8832V26.9115H54.6519V28.7379H48.8832V32.0363H55.6302ZM67.7008 33.8972V21.9363H65.4976V30.0379L58.908 21.9363H57.081V33.8972H59.2842V25.7957L65.8738 33.8972H67.7008ZM78.0061 31.1258H72.0254L70.8483 33.8972H68.5628L73.9002 21.9363H76.0901L81.482 33.8972H79.1625L78.0061 31.1258ZM77.2531 29.4224L74.9948 24.1946L72.7577 29.4224H77.2531V29.4224Z" fill="#01A872"/>
</svg>
