<svg width="135" height="50" viewBox="0 0 135 50" fill="none" xmlns="http://www.w3.org/2000/svg">
<g clip-path="url(#clip0_2091_4376)">
<g clip-path="url(#clip1_2091_4376)">
<path fill-rule="evenodd" clip-rule="evenodd" d="M0 26.9378C0 30.4852 1.98723 34.0624 6.43723 34.0624C10.8831 34.0624 12.8742 30.4852 12.8742 26.9378C12.8742 24.5148 12.0576 21.7248 10.6948 19.4707C9.36942 17.2944 7.77681 16 6.43723 16C5.09356 16 3.50055 17.2944 2.18662 19.4707C0.817058 21.7248 0 24.5148 0 26.9378ZM45.704 21.322H41.1979V16.9677H55.0377V21.322H50.5318L50.5316 33.0948H45.7037L45.704 21.322ZM65.3349 21.3221H72.4164V16.9677H65.3357C58.8294 16.9677 55.3558 20.2093 55.3558 25.0313C55.3558 29.8533 58.8294 33.0949 65.3357 33.0949H72.4164V28.7405H65.3349C62.3245 28.7405 60.3445 27.662 60.3445 25.0313C60.3445 22.4006 62.3245 21.3221 65.3349 21.3221ZM28.8036 26.5938L31.3774 16.9677H39.9086V33.0949H35.081V19.969L31.5714 33.0949H26.0359L22.5285 19.9771V33.0949H17.7006V16.9677H26.2298L28.8036 26.5938ZM81.2219 21.6423H79.5194V23.2198H81.2219C81.6531 23.2198 81.91 22.998 81.91 22.5888V22.2966C81.91 21.8758 81.6886 21.6423 81.2219 21.6423ZM81.6531 25.0313H77.2452V16.9675H83.729V18.896H79.5194V19.9476H81.6531C83.4376 19.9476 84.3006 20.8358 84.3006 22.4017C84.3006 24.0496 83.4376 25.0313 81.6531 25.0313ZM89.5464 21.7356H87.7506L88.6485 18.7558L89.5464 21.7356ZM92.9979 25.0313L90.5143 16.9677H87.1325L84.6486 25.0313H86.7711L87.2258 23.4886H90.0712L90.5378 25.0313H92.9979ZM98.7462 25.0313V21.9111H96.1461V25.0313H93.8134V16.9677H96.1461V19.9244H98.7462V16.9677H101.079V25.0313H98.7462ZM105.219 19.9243H104.811V16.9677H102.478V25.0312H104.811V21.911H105.148L107.306 25.0312H110L107.085 20.8125L109.767 16.9677H107.306L105.219 19.9243Z" fill="#E30611"/>
</g>
</g>
<defs>
<clipPath id="clip0_2091_4376">
<rect width="135" height="50" fill="white"/>
</clipPath>
<clipPath id="clip1_2091_4376">
<rect width="110" height="18.0624" fill="white" transform="translate(0 16)"/>
</clipPath>
</defs>
</svg>
