<svg width="135" height="50" viewBox="0 0 135 50" fill="none" xmlns="http://www.w3.org/2000/svg">
<g clip-path="url(#clip0_1211_2079)">
<g clip-path="url(#clip1_1211_2079)">
<path fill-rule="evenodd" clip-rule="evenodd" d="M3.35752 11.778C5.00037 10.2707 7.12704 9.28975 9.34675 9.06379C11.6303 8.80859 13.9935 9.32165 15.9554 10.5179C18.0368 11.77 19.6664 13.769 20.4373 16.0765C21.1471 18.1287 21.1976 20.4202 20.4825 22.4777C19.8578 24.4104 18.6695 26.0824 17.8561 27.9326C16.8087 30.1683 15.8783 32.4651 15.1977 34.8417C15.0196 35.5302 14.8282 36.216 14.69 36.9152C10.8301 34.3924 7.10045 31.5932 3.99552 28.1639C2.36862 26.3057 0.826785 24.2296 0.263218 21.7786C-0.0610983 20.3511 -0.098315 18.8571 0.19676 17.4216C0.622094 15.271 1.73594 13.2613 3.35486 11.7806L3.35752 11.778Z" fill="url(#paint0_linear_1211_2079)"/>
<path d="M12.5648 26.7818C16.8086 25.7801 19.4369 21.5279 18.4353 17.284C17.4337 13.0402 13.1814 10.4119 8.93754 11.4135C4.69372 12.4152 2.0654 16.6674 3.06704 20.9113C4.06867 25.1551 8.32095 27.7834 12.5648 26.7818Z" fill="#CBE619"/>
<path d="M11.9309 26.3647C15.9451 25.7131 18.6711 21.9307 18.0195 17.9164C17.3679 13.9022 13.5854 11.1762 9.57118 11.8278C5.55693 12.4794 2.83096 16.2619 3.48257 20.2761C4.13418 24.2904 7.9166 27.0163 11.9309 26.3647Z" fill="url(#paint1_linear_1211_2079)"/>
<path fill-rule="evenodd" clip-rule="evenodd" d="M13.3556 14.5399C14.1345 14.4177 15.0755 14.742 15.344 15.5475C15.3361 15.7362 15.3015 15.9223 15.2138 16.0924C14.6927 17.1717 14.2328 18.2802 13.8421 19.4127C13.5284 20.375 13.2307 21.3586 13.1855 22.3767C12.7734 22.4006 12.3242 22.4511 11.96 22.2146C11.6117 22.0019 11.5054 21.5579 11.5346 21.1751C11.6197 19.9709 12.0716 18.8411 12.4092 17.6954C11.4629 19.1734 10.5245 20.6966 10.0114 22.3873C9.5781 22.4139 9.10226 22.4591 8.71414 22.2199C8.42173 22.0551 8.25691 21.7174 8.2516 21.3852C8.25691 20.0188 8.46692 18.6524 8.334 17.2833C7.81031 18.5912 7.34776 19.9231 7.04205 21.3001C6.95964 21.659 6.91445 22.0258 6.89584 22.3953C6.48114 22.4511 6.01859 22.4963 5.65174 22.2597C5.33009 22.0497 5.21844 21.6404 5.23439 21.2762C5.26097 20.6488 5.41781 20.0374 5.57731 19.4339C6.06113 17.7353 6.75761 16.103 7.6003 14.5532C8.17184 14.6064 8.76465 14.625 9.30164 14.8536C9.57545 14.9706 9.81204 15.2019 9.87584 15.4996C10.1443 16.5364 10.0247 17.613 9.97951 18.6657C10.3597 18.0011 10.7318 17.3285 11.205 16.7224C11.8297 15.9116 12.5156 15.1274 13.3609 14.5373L13.3556 14.5399Z" fill="white"/>
<path fill-rule="evenodd" clip-rule="evenodd" d="M104.948 25.7608C106.028 25.1068 107.285 24.7506 108.548 24.7692C109.813 24.8171 111.079 25.0696 112.238 25.588C112.791 25.8432 113.325 26.1755 113.7 26.6646C113.979 27.0261 114.083 27.5259 113.926 27.9619C112.868 30.9552 111.786 33.9511 111.103 37.056C110.847 38.3214 110.621 39.624 110.786 40.9159C110.116 41.1738 109.367 41.2004 108.665 41.0675C108.053 40.9505 107.493 40.5385 107.267 39.951C106.979 39.2837 107.078 38.5474 107.057 37.8429C106.262 38.7095 105.342 39.4937 104.247 39.9536C103.537 40.2487 102.718 40.3843 101.982 40.1105C101.325 39.8632 100.852 39.289 100.576 38.6617C100.15 37.6861 100.031 36.6015 100.023 35.5461C99.9748 33.4992 100.472 31.4496 101.416 29.634C102.242 28.0788 103.417 26.6699 104.943 25.7634L104.948 25.7608ZM107.067 28.3899C105.82 29.4771 105.177 31.0695 104.709 32.6166C104.374 33.8448 104.1 35.1447 104.369 36.4127C104.443 36.7397 104.614 37.1517 105.004 37.1757C105.504 37.0826 105.844 36.6706 106.163 36.309C106.971 35.2856 107.559 34.1 107.998 32.8745C108.471 31.2316 109.167 29.6659 109.861 28.1054C109.005 27.51 107.817 27.72 107.065 28.3872L107.067 28.3899ZM43.4107 24.9766C44.7027 24.7692 45.9734 25.277 47.1164 25.8299C47.8076 26.125 48.2462 26.7949 48.5121 27.4727C48.8842 28.4696 48.7487 29.5595 48.6211 30.591C48.2941 32.8187 47.6534 35.0277 46.5316 36.9922C45.7368 38.3639 44.6708 39.6506 43.23 40.363C42.0045 40.9771 40.561 40.8973 39.2611 40.5863C38.1525 40.2753 37.036 39.6266 36.5097 38.5607C36.0338 37.5664 36.0046 36.4313 36.079 35.352C36.2917 33.3184 37.0148 31.3566 38.0196 29.5808C38.7613 28.2915 39.6837 27.082 40.8561 26.1569C41.6004 25.5774 42.467 25.1201 43.4081 24.9766H43.4107ZM44.3225 27.9061C43.953 28.0895 43.6819 28.4138 43.4107 28.7115C42.1241 30.2799 41.1644 32.1062 40.5424 34.0335C40.1782 35.2085 39.9097 36.4446 40.0267 37.6834C40.0692 38.013 40.2234 38.4703 40.6381 38.4384C41.2043 38.3533 41.6057 37.8854 41.9513 37.4681C42.8392 36.3117 43.4426 34.9666 43.961 33.6108C44.5033 32.1195 44.9339 30.567 44.9924 28.972C44.9818 28.6265 44.9845 28.2516 44.8063 27.9459C44.708 27.7545 44.4741 27.8476 44.3252 27.9061H44.3225ZM68.8909 25.2371C70.2705 24.6735 71.8655 24.9181 73.1522 25.6146C74.0985 26.1197 74.9598 26.9677 75.1512 28.0629C75.2921 29.2538 74.9944 30.4873 74.3564 31.5001C73.6413 32.6246 72.5088 33.4221 71.2913 33.9245C69.8479 34.5306 68.2794 34.7646 66.727 34.8629C66.5356 35.6152 66.4266 36.3888 66.4266 37.165C66.4558 37.6116 66.501 38.1619 66.929 38.4144C67.4155 38.6351 67.9471 38.3453 68.3007 38.0077C68.96 37.3671 69.4252 36.4579 70.337 36.123C71.3179 35.804 72.36 36.2585 73.1522 36.8354C72.3892 38.2443 71.2993 39.5363 69.8319 40.2381C68.5293 40.8894 66.9901 40.9266 65.5972 40.5677C64.5392 40.2939 63.5582 39.6213 63.0478 38.6377C62.3965 37.4176 62.3992 35.9688 62.6145 34.6343C62.9761 32.5023 63.8374 30.4687 65.0256 28.6663C66.0012 27.2335 67.248 25.8831 68.8935 25.2344L68.8909 25.2371ZM70.228 28.1905C69.6272 28.6823 69.1939 29.3416 68.8005 30.0035C68.322 30.8196 67.9073 31.6756 67.5511 32.5502C68.8164 32.1886 70.1084 31.5852 70.8873 30.4793C71.3578 29.8333 71.5439 28.9853 71.3392 28.2091C71.3046 28.0735 71.2249 27.9486 71.0973 27.8874C70.7756 27.8316 70.4726 27.9991 70.228 28.1905ZM75.9408 26.0452C79.3036 25.3514 82.7434 25.0297 86.1753 25.0802C86.8293 25.1281 87.5524 25.1254 88.108 25.5215C88.6476 25.9176 88.6635 26.6646 88.5944 27.2681C88.5333 27.5472 88.5519 27.8874 88.3047 28.0815C86.9968 27.9247 85.6729 27.9007 84.357 27.9619C84.4129 28.3394 84.3092 28.7089 84.1577 29.0518C82.8312 31.8696 81.5924 34.7539 80.8241 37.7818C80.5875 38.7069 80.4333 39.6559 80.3855 40.6129C80.3802 40.791 80.1489 40.7804 80.024 40.8069C79.2185 40.8947 78.304 40.8973 77.6421 40.3577C77.0679 39.8898 76.9164 39.1003 76.9562 38.3985C77.0573 36.6998 77.549 35.0543 78.1073 33.4567C78.74 31.6756 79.5162 29.9503 80.3562 28.257C79.5375 28.3925 78.7293 28.6211 77.8973 28.669C77.3098 28.7115 76.7037 28.4484 76.3661 27.9645C75.962 27.4196 75.853 26.7071 75.9408 26.0479V26.0452ZM98.4994 25.16C96.8406 27.7598 94.6793 30.0327 92.1832 31.8404C92.6936 30.5777 93.2625 29.3389 93.842 28.1054C93.9962 27.7412 94.169 27.3531 94.0998 26.9517C94.0254 26.4945 93.6585 26.1542 93.2704 25.9415C92.5872 25.5667 91.7977 25.4338 91.0295 25.4019C89.4903 28.2942 88.1558 31.3061 87.1882 34.4402C86.808 35.7295 86.4491 37.0401 86.3455 38.3879C86.295 39.1083 86.4146 39.9297 86.9835 40.4348C87.5896 40.9611 88.4509 41.0196 89.2165 40.9478C89.3999 40.9106 89.6737 40.9505 89.7481 40.7245C89.8093 38.9833 90.3303 37.3006 90.8327 35.6445C91.2129 36.955 91.6462 38.2815 92.4384 39.406C92.9594 40.1636 93.7542 40.8069 94.7006 40.8787C95.6098 40.9292 96.5136 40.6953 97.3403 40.3311C97.4998 40.2912 97.5743 40.1503 97.6009 39.9988C96.1095 38.3347 94.6847 36.5084 94.0254 34.3392C96.0378 32.9755 97.9996 31.4762 99.5574 29.5941C100.113 28.8631 100.724 28.0204 100.626 27.0501C100.554 26.3084 99.9269 25.79 99.3049 25.4763C99.0417 25.3673 98.7785 25.168 98.4967 25.168L98.4994 25.16ZM32.9236 25.4019C30.135 27.5498 27.9897 30.4394 26.3708 33.5444C26.4293 31.3938 26.7058 29.19 26.0997 27.0873C25.9109 26.4254 25.2835 26.0213 24.6642 25.8193C23.6859 25.5056 22.6491 25.4019 21.6257 25.386C20.3603 27.7705 19.2305 30.2321 18.3426 32.7841C17.7365 34.5705 17.1783 36.3915 16.9789 38.2736C16.8859 39.0365 16.9949 39.9164 17.6036 40.4534C18.3267 41.0701 19.3528 41.017 20.2354 40.8867C20.2859 39.7994 20.5172 38.7308 20.7777 37.6781C21.3598 35.3919 22.1387 33.1616 23.0054 30.9711C23.0266 30.886 23.0745 30.8249 23.1462 30.785C23.2978 33.4221 23.0027 36.0512 22.9416 38.6856C22.9097 39.3635 23.1888 40.0839 23.7736 40.4614C24.5472 40.9718 25.5308 40.9691 26.416 40.8548C26.8094 39.4113 27.4634 38.0529 28.1306 36.7184C29.0796 34.8682 30.151 33.0792 31.3073 31.3486C30.5284 33.5444 29.7655 35.7694 29.4837 38.0928C29.3774 38.8903 29.4651 39.834 30.1244 40.3843C30.8501 40.9558 31.8549 40.9558 32.7242 40.7963C32.8013 38.9062 33.3303 37.0746 33.9045 35.2829C34.6914 32.9303 35.6457 30.6335 36.7144 28.3978C36.842 28.132 36.9776 27.8529 36.9643 27.5498C36.9403 27.0368 36.6745 26.5636 36.305 26.218C35.5819 25.5109 34.5319 25.253 33.5456 25.2716C33.333 25.2876 33.0884 25.2424 32.9183 25.3992L32.9236 25.4019ZM60.3071 25.3354C59.2597 27.2548 58.3452 29.2459 57.5424 31.2795C56.7582 31.2502 55.974 31.3007 55.1898 31.3513C55.6816 30.155 56.2079 28.9747 56.7901 27.8183C57.0586 27.284 56.947 26.5822 56.4711 26.2021C55.7321 25.6013 54.7379 25.4498 53.8154 25.3966C52.6856 27.494 51.6728 29.6579 50.8434 31.8909C50.333 31.9839 49.8253 32.085 49.3175 32.1886C49.2245 32.9436 49.4398 33.773 50.0353 34.2807C49.6153 35.6551 49.2378 37.056 49.1288 38.4915C49.073 39.2173 49.2511 40.036 49.8598 40.4959C50.5935 41.0409 51.5878 41.0382 52.4491 40.8734C52.6511 40.6767 52.5368 40.3417 52.5979 40.0919C52.8212 38.0848 53.4273 36.1442 54.0786 34.2435C54.9027 34.1319 55.7348 34.0814 56.5642 34.0069C56.1468 35.4079 55.7427 36.8301 55.6072 38.2895C55.538 39.0046 55.6683 39.8127 56.2239 40.3178C56.7981 40.8362 57.6222 40.9345 58.3639 40.8628C58.5925 40.8335 58.8477 40.8521 59.0338 40.698C59.0338 40.1078 59.1268 39.523 59.2331 38.9435C59.5654 37.2634 60.0811 35.6285 60.6474 34.0149C61.3784 31.9653 62.2158 29.953 63.1382 27.9831C63.3243 27.5711 63.5024 27.0873 63.3084 26.646C63.0505 26.0319 62.3939 25.7369 61.7984 25.5455C61.3146 25.4205 60.7962 25.2903 60.3044 25.3354H60.3071Z" fill="#F08801"/>
</g>
</g>
<defs>
<linearGradient id="paint0_linear_1211_2079" x1="6.91969" y1="26.7577" x2="16.697" y2="15.2896" gradientUnits="userSpaceOnUse">
<stop stop-color="#C8D400"/>
<stop offset="0.19" stop-color="#B7CE2B"/>
<stop offset="0.8" stop-color="#76B837"/>
<stop offset="1" stop-color="#76B82A"/>
</linearGradient>
<linearGradient id="paint1_linear_1211_2079" x1="15.4515" y1="16.4375" x2="6.04894" y2="21.7569" gradientUnits="userSpaceOnUse">
<stop stop-color="#C8D400"/>
<stop offset="0.19" stop-color="#B7CE2B"/>
<stop offset="0.8" stop-color="#76B837"/>
<stop offset="1" stop-color="#76B82A"/>
</linearGradient>
<clipPath id="clip0_1211_2079">
<rect width="135" height="50" fill="white"/>
</clipPath>
<clipPath id="clip1_1211_2079">
<rect width="114" height="32.1472" fill="white" transform="translate(0 9)"/>
</clipPath>
</defs>
</svg>
