<svg width="87" height="40" viewBox="0 0 87 40" fill="none" xmlns="http://www.w3.org/2000/svg">
<g clip-path="url(#clip0_49872_51842)">
<path d="M37.3009 25.6035L33.5487 15.1598C33.4839 14.9993 33.4438 14.8299 33.4297 14.6574C33.4366 14.4167 33.5388 14.1887 33.7138 14.0234C33.8889 13.8581 34.1224 13.7691 34.363 13.776C34.582 13.7785 34.7936 13.8554 34.9631 13.9941C35.1325 14.1328 35.2498 14.325 35.2956 14.5391L38.4029 23.5379L41.5298 14.5135C41.5755 14.3067 41.6896 14.1214 41.8536 13.9875C42.0177 13.8535 42.222 13.7788 42.4338 13.7753H42.531C42.7501 13.773 42.9636 13.8446 43.137 13.9785C43.3105 14.1124 43.4337 14.3009 43.4869 14.5135L46.5912 23.5372L49.7497 14.4879C49.7918 14.285 49.9028 14.1028 50.0638 13.9724C50.2249 13.842 50.4261 13.7713 50.6334 13.7723C50.7494 13.7693 50.8649 13.7892 50.9732 13.8309C51.0815 13.8726 51.1805 13.9353 51.2646 14.0154C51.3486 14.0954 51.416 14.1913 51.463 14.2974C51.5099 14.4036 51.5354 14.518 51.5381 14.634C51.5233 14.8064 51.4831 14.9757 51.419 15.1365L47.645 25.6072C47.5891 25.835 47.4613 26.0387 47.2806 26.1882C47.0999 26.3377 46.8759 26.425 46.6417 26.4374H46.5701C46.332 26.4356 46.1019 26.3516 45.9187 26.1996C45.7354 26.0477 45.6103 25.8371 45.5645 25.6035L42.4858 16.7297L39.3784 25.6035C39.3331 25.8369 39.2084 26.0474 39.0255 26.1994C38.8426 26.3514 38.6128 26.4355 38.375 26.4374H38.3246C38.0864 26.4288 37.8576 26.3427 37.6728 26.1922C37.488 26.0416 37.3574 25.835 37.3009 25.6035Z" fill="#151617"/>
<path d="M64.6377 14.6857C64.6363 14.4419 64.7307 14.2073 64.9007 14.0326C65.0706 13.8579 65.3025 13.7569 65.5462 13.7516C65.6694 13.7496 65.7918 13.7723 65.906 13.8185C66.0203 13.8648 66.1241 13.9335 66.2112 14.0206C66.2984 14.1078 66.3671 14.2116 66.4133 14.3258C66.4595 14.4401 66.4823 14.5624 66.4803 14.6857V16.8047C66.8448 15.958 67.4349 15.2277 68.1861 14.6935C68.9372 14.1592 69.8207 13.8415 70.7401 13.7749C70.8626 13.7712 70.9846 13.793 71.0983 13.8388C71.2119 13.8846 71.3149 13.9536 71.4005 14.0412C71.4862 14.1289 71.5528 14.2333 71.596 14.348C71.6392 14.4627 71.6581 14.5851 71.6516 14.7075C71.6582 14.9372 71.5778 15.1608 71.4265 15.3337C71.2753 15.5067 71.0643 15.6161 70.8358 15.6401C68.4411 15.9271 66.481 17.7237 66.481 21.2898V25.4864C66.481 25.7307 66.384 25.965 66.2112 26.1378C66.0384 26.3106 65.8041 26.4076 65.5597 26.4076C65.3154 26.4076 65.0811 26.3106 64.9083 26.1378C64.7355 25.965 64.6385 25.7307 64.6385 25.4864V14.6857H64.6377Z" fill="#151617"/>
<path d="M77.5627 26.5368C74.2309 26.5368 71.5107 23.953 71.5107 20.164V20.1143C71.5107 16.5851 73.974 13.7429 77.3277 13.7429C80.9133 13.7429 82.9555 16.7018 82.9555 19.9485C82.9564 20.0603 82.9352 20.1711 82.8932 20.2746C82.8512 20.3782 82.7891 20.4724 82.7106 20.5519C82.6321 20.6314 82.5386 20.6946 82.4356 20.7379C82.3326 20.7812 82.222 20.8038 82.1103 20.8043H73.3443C73.5996 23.4551 75.4535 24.9474 77.6116 24.9474C78.918 24.9547 80.1738 24.4432 81.1032 23.5252C81.2142 23.4207 81.3535 23.3511 81.5037 23.325C81.654 23.2989 81.8086 23.3174 81.9484 23.3783C82.0882 23.4391 82.2071 23.5396 82.2904 23.6673C82.3736 23.7951 82.4176 23.9444 82.4169 24.0969C82.4154 24.21 82.3893 24.3214 82.3404 24.4234C82.2915 24.5254 82.2209 24.6155 82.1337 24.6875C81.5412 25.2952 80.829 25.7733 80.0422 26.0917C79.2554 26.41 78.4111 26.5616 77.5627 26.5368ZM81.1499 19.4559C80.9615 17.2276 79.6945 15.2864 77.2787 15.2864C75.1695 15.2864 73.5733 17.0619 73.342 19.4559H81.1499Z" fill="#151617"/>
<path d="M51.5742 22.7014V22.6532C51.5742 20.0528 53.7226 18.6675 56.8473 18.6675C58.1318 18.6553 59.4112 18.833 60.6438 19.1948V18.7632C60.6438 16.5455 59.2796 15.3982 56.9678 15.3982C55.9793 15.356 54.995 15.5489 54.0955 15.9609C53.9908 16.0062 53.8787 16.0317 53.7648 16.0362C53.5537 16.0354 53.3511 15.9529 53.1994 15.806C53.0478 15.6591 52.9588 15.4593 52.9512 15.2483C52.9404 15.0835 52.9836 14.9196 53.0743 14.7815C53.165 14.6434 53.2981 14.5386 53.4537 14.483C54.6174 13.9637 55.8861 13.723 57.1591 13.7801C57.8799 13.7286 58.6037 13.8221 59.2876 14.0553C59.9716 14.2885 60.6018 14.6565 61.141 15.1376C61.5845 15.6216 61.9253 16.1905 62.1429 16.8099C62.3605 17.4292 62.4505 18.0862 62.4073 18.7413V25.5488C62.4115 25.6671 62.3916 25.785 62.3488 25.8954C62.306 26.0058 62.2412 26.1063 62.1583 26.1909C62.0755 26.2754 61.9763 26.3422 61.8668 26.3873C61.7573 26.4323 61.6398 26.4546 61.5214 26.4528C61.4066 26.4574 61.292 26.4385 61.1847 26.3972C61.0774 26.3559 60.9797 26.2932 60.8976 26.2127C60.8154 26.1323 60.7506 26.0359 60.7071 25.9295C60.6636 25.8231 60.6423 25.7089 60.6446 25.594V24.4189C60.1234 25.102 59.4468 25.6511 58.671 26.0205C57.8952 26.39 57.0425 26.5691 56.1836 26.5431C53.8913 26.5431 51.5742 25.2302 51.5742 22.7014ZM60.6672 21.7469V20.553C59.4886 20.2055 58.2665 20.028 57.0378 20.0257C54.726 20.0257 53.4356 21.0291 53.4356 22.5786V22.626C53.4356 24.1763 54.8669 25.0833 56.5384 25.0833C58.8043 25.0833 60.6672 23.6987 60.6672 21.7439" fill="#151617"/>
<path d="M3.87182 14.5495C3.77803 14.337 3.64265 14.1454 3.47366 13.9861C3.30467 13.8267 3.10548 13.7028 2.88785 13.6217C2.67021 13.5405 2.43853 13.5037 2.20646 13.5135C1.97439 13.5233 1.74663 13.5795 1.53661 13.6787C1.32239 13.7702 1.12917 13.9047 0.968831 14.0737C0.808492 14.2427 0.684427 14.4427 0.60427 14.6614C0.524113 14.8802 0.489559 15.113 0.502733 15.3456C0.515907 15.5782 0.57653 15.8056 0.680874 16.0139L4.59799 24.5261C5.21418 25.8594 5.86276 26.56 7.08385 26.56C8.38478 26.56 8.95201 25.7992 9.56971 24.5261C9.56971 24.5261 12.9851 17.0888 13.019 17.0113C13.0557 16.9141 13.1219 16.831 13.2085 16.7737C13.295 16.7163 13.3974 16.6877 13.5011 16.6919C13.573 16.6922 13.644 16.7067 13.7102 16.7346C13.7764 16.7626 13.8364 16.8034 13.8867 16.8547C13.937 16.9059 13.9766 16.9667 14.0033 17.0334C14.0299 17.1001 14.0431 17.1714 14.042 17.2433V24.5155C14.0139 24.7726 14.0402 25.0326 14.1193 25.2788C14.1984 25.525 14.3285 25.7517 14.5011 25.9442C14.6737 26.1367 14.885 26.2907 15.1211 26.3961C15.3571 26.5016 15.6128 26.556 15.8714 26.556C16.1299 26.556 16.3856 26.5016 16.6217 26.3961C16.8578 26.2907 17.069 26.1367 17.2416 25.9442C17.4142 25.7517 17.5443 25.525 17.6234 25.2788C17.7025 25.0326 17.7289 24.7726 17.7007 24.5155V18.5645C17.6915 18.3092 17.7359 18.0547 17.8309 17.8175C17.926 17.5803 18.0698 17.3657 18.2528 17.1874C18.4359 17.0092 18.6543 16.8712 18.894 16.7825C19.1336 16.6938 19.3892 16.6562 19.6442 16.6723C19.8948 16.66 20.1451 16.7008 20.3789 16.7919C20.6126 16.883 20.8245 17.0224 21.0007 17.201C21.1769 17.3796 21.3134 17.5934 21.4013 17.8283C21.4892 18.0633 21.5265 18.3142 21.5109 18.5645V24.5155C21.48 24.7727 21.5042 25.0334 21.5818 25.2805C21.6593 25.5276 21.7886 25.7554 21.9609 25.9487C22.1332 26.1421 22.3447 26.2965 22.5813 26.4019C22.8178 26.5073 23.0741 26.5612 23.3331 26.56C23.5928 26.5611 23.8498 26.5075 24.0873 26.4026C24.3248 26.2976 24.5375 26.1438 24.7116 25.9511C24.8856 25.7583 25.017 25.5311 25.0972 25.2841C25.1775 25.0371 25.2047 24.776 25.1771 24.5178V18.5668C25.1675 18.3116 25.2114 18.0572 25.3062 17.82C25.4009 17.5828 25.5444 17.3681 25.7272 17.1898C25.9101 17.0115 26.1283 16.8735 26.3678 16.7847C26.6073 16.696 26.8627 16.6585 27.1176 16.6745C27.3682 16.6624 27.6186 16.7033 27.8523 16.7944C28.0861 16.8855 28.298 17.0249 28.4743 17.2035C28.6506 17.382 28.7872 17.5957 28.8753 17.8306C28.9635 18.0655 29.0011 18.3164 28.9858 18.5668V24.5178C28.9553 24.7745 28.9796 25.0346 29.0572 25.2812C29.1347 25.5277 29.2636 25.755 29.4355 25.9481C29.6074 26.1411 29.8183 26.2954 30.0542 26.4009C30.2901 26.5064 30.5458 26.5606 30.8042 26.56C31.0636 26.561 31.3203 26.5073 31.5575 26.4025C31.7947 26.2977 32.0072 26.144 32.1811 25.9515C32.3549 25.759 32.4862 25.5321 32.5665 25.2854C32.6467 25.0388 32.6741 24.778 32.6468 24.5201V17.7465C32.6457 17.1758 32.5296 16.6112 32.3053 16.0864C32.0811 15.5616 31.7534 15.0875 31.3417 14.6922C30.9301 14.297 30.443 13.9887 29.9096 13.786C29.3761 13.5833 28.8073 13.4901 28.237 13.5122C26.7664 13.5376 25.3634 14.1344 24.3252 15.1762C23.8842 14.6072 23.3081 14.1571 22.6493 13.867C21.9904 13.5768 21.2695 13.4556 20.5519 13.5145C18.5806 13.5145 16.8555 15.1762 16.8555 15.1762C16.4585 14.6782 15.9585 14.2719 15.3898 13.9851C14.8211 13.6983 14.1971 13.5377 13.5606 13.5145C12.6952 13.4801 11.8415 13.7242 11.1249 14.2108C10.4084 14.6974 9.86673 15.4009 9.5795 16.218L7.08008 22.1156L3.87182 14.5495Z" fill="#151617"/>
<path d="M83.1079 15.2869V15.2771C83.103 15.0738 83.1387 14.8716 83.213 14.6823C83.2874 14.493 83.3987 14.3204 83.5407 14.1748C83.6826 14.0291 83.8521 13.9133 84.0394 13.834C84.2267 13.7548 84.428 13.7138 84.6313 13.7134C84.8347 13.713 85.0361 13.7532 85.2237 13.8317C85.4113 13.9102 85.5813 14.0254 85.7238 14.1705C85.8663 14.3156 85.9783 14.4877 86.0534 14.6767C86.1285 14.8657 86.165 15.0677 86.1609 15.2711V15.2771C86.1615 15.6834 86.001 16.0734 85.7144 16.3614C85.4279 16.6495 85.0388 16.8122 84.6325 16.8138C84.4319 16.8145 84.2331 16.7755 84.0477 16.699C83.8623 16.6224 83.6938 16.51 83.5521 16.368C83.4103 16.226 83.2981 16.0574 83.2219 15.8719C83.1456 15.6863 83.1069 15.4875 83.1079 15.2869ZM85.8672 15.2771V15.2726C85.8667 14.9449 85.736 14.6309 85.504 14.3996C85.272 14.1682 84.9575 14.0386 84.6299 14.0391C84.3022 14.0396 83.9882 14.1702 83.7569 14.4022C83.5255 14.6343 83.3959 14.9487 83.3964 15.2763V15.2839C83.3969 15.4461 83.4293 15.6067 83.4919 15.7563C83.5544 15.906 83.6458 16.042 83.7609 16.1563C83.8759 16.2707 84.0124 16.3613 84.1625 16.4229C84.3126 16.4845 84.4733 16.516 84.6355 16.5155C84.7978 16.515 84.9583 16.4826 85.108 16.42C85.2577 16.3575 85.3936 16.2661 85.508 16.151C85.6223 16.0359 85.7129 15.8995 85.7746 15.7494C85.8362 15.5993 85.8677 15.4386 85.8672 15.2763" fill="#151617"/>
<path d="M84.0479 14.6725C84.0479 14.651 84.0521 14.6297 84.0604 14.6098C84.0687 14.59 84.0808 14.572 84.096 14.5569C84.1113 14.5417 84.1294 14.5298 84.1493 14.5217C84.1692 14.5136 84.1906 14.5096 84.2121 14.5098H84.7213C84.7997 14.5042 84.8784 14.5147 84.9526 14.5406C85.0268 14.5665 85.095 14.6073 85.1529 14.6604C85.1961 14.7049 85.2298 14.7577 85.2521 14.8155C85.2743 14.8734 85.2847 14.9352 85.2825 14.9971V15.0017C85.2884 15.0987 85.2629 15.1951 85.2097 15.2766C85.1565 15.358 85.0785 15.4201 84.9872 15.4536L85.2132 15.7278C85.2451 15.7616 85.2638 15.8057 85.2659 15.8521C85.2659 15.8921 85.25 15.9304 85.2218 15.9586C85.1935 15.9869 85.1552 16.0028 85.1153 16.0028C85.0839 16.0023 85.0531 15.9943 85.0253 15.9797C84.9976 15.965 84.9737 15.944 84.9556 15.9184L84.6339 15.5162H84.374V15.8378C84.3743 15.8591 84.3704 15.8802 84.3624 15.9C84.3544 15.9197 84.3425 15.9376 84.3275 15.9527C84.3125 15.9678 84.2946 15.9798 84.2749 15.9878C84.2552 15.9959 84.2341 16 84.2128 15.9998C84.1914 16.0001 84.17 15.9961 84.1501 15.9881C84.1302 15.9801 84.1121 15.9682 84.0968 15.9531C84.0815 15.9381 84.0694 15.9201 84.0611 15.9003C84.0529 15.8805 84.0486 15.8593 84.0486 15.8378V14.6725H84.0479ZM84.7032 15.2269C84.8622 15.2269 84.9495 15.144 84.9495 15.0182V15.0137C84.9495 14.8759 84.8561 14.802 84.6979 14.802H84.3733V15.2269H84.7032Z" fill="#151617"/>
</g>
<defs>
<clipPath id="clip0_49872_51842">
<rect width="86.5" height="40" fill="white"/>
</clipPath>
</defs>
</svg>
