<svg width="135" height="50" viewBox="0 0 135 50" fill="none" xmlns="http://www.w3.org/2000/svg">
<g clip-path="url(#clip0_1211_2081)">
<path d="M35.6891 25.1993C35.6843 24.6712 35.5151 24.1577 35.2049 23.7303C34.8946 23.3029 34.4589 22.9828 33.9584 22.8145C33.4578 22.6463 32.9172 22.6382 32.4118 22.7915C31.9064 22.9447 31.4613 23.2517 31.1385 23.6697H27.9154C27.5546 21.2568 26.3394 19.0537 24.4911 17.4612C22.6428 15.8688 20.2842 14.9928 17.8445 14.9928C15.4048 14.9928 13.0461 15.8688 11.1978 17.4612C9.34953 19.0537 8.13439 21.2568 7.77355 23.6697H4.57774C4.25684 23.2428 3.8098 22.9276 3.29989 22.7688C2.78999 22.6099 2.24304 22.6155 1.73647 22.7846C1.2299 22.9538 0.789357 23.278 0.477197 23.7113C0.165037 24.1447 -0.00292969 24.6652 -0.00292969 25.1993C-0.00292969 25.7334 0.165037 26.2539 0.477197 26.6873C0.789357 27.1206 1.2299 27.4448 1.73647 27.6139C2.24304 27.7831 2.78999 27.7887 3.29989 27.6298C3.8098 27.471 4.25684 27.1558 4.57774 26.7289H7.77355C8.1189 29.0203 9.23507 31.1256 10.9379 32.6973C12.6407 34.269 14.8285 35.2132 17.1402 35.3743C19.4519 35.5353 21.7494 34.9035 23.6537 33.583C25.558 32.2626 26.9552 30.3324 27.6149 28.111L24.1296 27.2916C23.6263 28.8098 22.591 30.0947 21.2145 30.9093C19.8381 31.7239 18.2135 32.0132 16.6405 31.7238C15.0674 31.4344 13.6522 30.5858 12.6558 29.3346C11.6595 28.0834 11.1493 26.5141 11.2194 24.9162C11.2895 23.3183 11.9352 21.7997 13.0373 20.6406C14.1394 19.4815 15.6235 18.7601 17.2158 18.6095C18.8082 18.459 20.4012 18.8894 21.701 19.8215C23.0008 20.7535 23.9197 22.1242 24.288 23.6806H20.4639C20.1272 23.0974 19.6075 22.6416 18.9853 22.3838C18.3631 22.1261 17.6733 22.0809 17.0228 22.2552C16.3723 22.4295 15.7975 22.8136 15.3875 23.3479C14.9775 23.8821 14.7553 24.5368 14.7553 25.2102C14.7553 25.8837 14.9775 26.5383 15.3875 27.0726C15.7975 27.6068 16.3723 27.9909 17.0228 28.1652C17.6733 28.3395 18.3631 28.2943 18.9853 28.0366C19.6075 27.7789 20.1272 27.3231 20.4639 26.7398H31.1385C31.4598 27.1656 31.9066 27.4798 32.416 27.6379C32.9254 27.796 33.4716 27.7901 33.9775 27.6211C34.4834 27.4521 34.9234 27.1284 35.2354 26.6958C35.5474 26.2633 35.7157 25.7436 35.7165 25.2102" fill="#0061D5"/>
<path d="M48.8662 28.7939V27.7013C48.8662 27.6516 48.8468 27.6037 48.8121 27.568C48.7774 27.5323 48.7302 27.5116 48.6804 27.5101H46.0746C45.4607 27.5087 44.8724 27.2642 44.4384 26.8301C44.0043 26.396 43.7598 25.8077 43.7583 25.1938C43.7569 24.889 43.8158 24.5869 43.9316 24.3049C44.0474 24.0229 44.2179 23.7667 44.4332 23.5508C44.6485 23.335 44.9044 23.164 45.1861 23.0475C45.4678 22.931 45.7698 22.8714 46.0746 22.8721H48.6804C48.7297 22.8721 48.7769 22.8525 48.8118 22.8177C48.8466 22.7829 48.8662 22.7356 48.8662 22.6864V21.5938C48.8662 21.544 48.8468 21.4962 48.8121 21.4605C48.7774 21.4248 48.7302 21.404 48.6804 21.4026H46.0746C45.5657 21.3832 45.0582 21.4668 44.5823 21.6482C44.1064 21.8296 43.6721 22.1051 43.3052 22.4583C42.9383 22.8115 42.6465 23.2351 42.4471 23.7037C42.2478 24.1724 42.145 24.6764 42.145 25.1857C42.145 25.6949 42.2478 26.1989 42.4471 26.6676C42.6465 27.1362 42.9383 27.5598 43.3052 27.913C43.6721 28.2662 44.1064 28.5417 44.5823 28.7231C45.0582 28.9045 45.5657 28.9881 46.0746 28.9687H48.6804C48.7293 28.9674 48.7757 28.9473 48.8103 28.9128C48.8448 28.8783 48.8648 28.8318 48.8662 28.783M57.8472 22.8339V21.7413C57.8473 21.6915 57.8279 21.6437 57.7932 21.608C57.7585 21.5723 57.7113 21.5515 57.6615 21.5501H52.062C52.0371 21.5501 52.0125 21.555 51.9896 21.5647C51.9667 21.5744 51.946 21.5886 51.9287 21.6064C51.9114 21.6242 51.8978 21.6453 51.8888 21.6685C51.8798 21.6917 51.8755 21.7164 51.8763 21.7413V22.8339C51.8777 22.8822 51.8979 22.928 51.9325 22.9617C51.9672 22.9953 52.0137 23.0142 52.062 23.0141H57.6615C57.7098 23.0142 57.7563 22.9953 57.7909 22.9617C57.8256 22.928 57.8458 22.8822 57.8472 22.8339ZM57.8472 25.7238V24.6312C57.8459 24.5823 57.8259 24.5359 57.7913 24.5014C57.7568 24.4668 57.7103 24.4468 57.6615 24.4454H52.062C52.0127 24.4454 51.9655 24.465 51.9307 24.4998C51.8958 24.5347 51.8763 24.5819 51.8763 24.6312V25.7238C51.8763 25.773 51.8958 25.8203 51.9307 25.8551C51.9655 25.8899 52.0127 25.9095 52.062 25.9095H57.6615C57.7108 25.9095 57.758 25.8899 57.7928 25.8551C57.8277 25.8203 57.8472 25.773 57.8472 25.7238ZM57.8472 28.6136V27.5648C57.8473 27.515 57.8279 27.4672 57.7932 27.4315C57.7585 27.3958 57.7113 27.375 57.6615 27.3736H52.062C52.0157 27.379 51.9731 27.4017 51.9427 27.4371C51.9123 27.4726 51.8964 27.5181 51.8981 27.5648V28.6573C51.8981 28.7066 51.9177 28.7539 51.9525 28.7887C51.9873 28.8235 52.0346 28.8431 52.0838 28.8431H57.6833C57.7322 28.8417 57.7786 28.8217 57.8132 28.7872C57.8477 28.7526 57.8677 28.7062 57.8691 28.6573M65.8504 24.2378C65.8418 24.5474 65.7113 24.8411 65.4873 25.055C65.2632 25.2688 64.9637 25.3855 64.6541 25.3796H62.4689V23.0251H64.6541C64.9656 23.0279 65.2635 23.1533 65.4833 23.3742C65.7031 23.595 65.8272 23.8935 65.8286 24.2051M66.506 26.057C66.8718 25.6903 67.1208 25.2235 67.2216 24.7154C67.3224 24.2073 67.2705 23.6808 67.0724 23.2022C66.8743 22.7236 66.5389 22.3144 66.1085 22.0262C65.6781 21.738 65.172 21.5837 64.6541 21.5828H62.3432H62.305H61.2124C61.1627 21.5843 61.1154 21.605 61.0807 21.6407C61.046 21.6765 61.0266 21.7243 61.0267 21.7741V28.6573C61.028 28.7062 61.0481 28.7526 61.0826 28.7872C61.1171 28.8217 61.1636 28.8417 61.2124 28.8431H62.305C62.3543 28.8431 62.4015 28.8235 62.4363 28.7887C62.4712 28.7539 62.4907 28.7066 62.4907 28.6573V26.8546H64.6759C65.0201 26.8543 65.3608 26.7861 65.6786 26.6539C65.9964 26.5217 66.285 26.3282 66.5278 26.0843M74.7823 26.5978C74.7788 26.8026 74.6967 26.9982 74.5529 27.1441C74.4064 27.287 74.2112 27.369 74.0066 27.3736H71.3789V25.7838H74.0066C74.2157 25.7838 74.4164 25.8665 74.5648 26.0139C74.7132 26.1613 74.7973 26.3614 74.7987 26.5705M74.3672 23.6806C74.3677 23.7668 74.351 23.8523 74.3182 23.932C74.2854 24.0117 74.237 24.0841 74.1759 24.145C74.052 24.2668 73.8854 24.3354 73.7116 24.3362H71.3789V23.0251H73.7116C73.885 23.0265 74.0509 23.096 74.1736 23.2186C74.2962 23.3413 74.3657 23.5072 74.3672 23.6806ZM75.5854 24.9917L75.4434 24.8661C75.6577 24.5509 75.7822 24.1834 75.8034 23.8028C75.8246 23.4223 75.7418 23.0431 75.5637 22.7061C75.3857 22.3691 75.1192 22.087 74.7929 21.8901C74.4665 21.6931 74.0927 21.5888 73.7116 21.5883H70.1224C70.0976 21.5883 70.073 21.5933 70.0501 21.603C70.0272 21.6126 70.0065 21.6268 69.9891 21.6446C69.9718 21.6625 69.9583 21.6836 69.9492 21.7068C69.9402 21.7299 69.936 21.7547 69.9367 21.7795V28.6573C69.9367 28.6817 69.9415 28.7059 69.9508 28.7284C69.9602 28.751 69.9739 28.7714 69.9911 28.7887C70.0084 28.8059 70.0288 28.8196 70.0514 28.8289C70.0739 28.8383 70.0981 28.8431 70.1224 28.8431H74.0066C74.4504 28.8448 74.8847 28.7143 75.2541 28.4683C75.6235 28.2222 75.9112 27.8717 76.0806 27.4614C76.25 27.0512 76.2933 26.5998 76.2051 26.1648C76.1169 25.7298 75.9012 25.3309 75.5854 25.019M85.6317 28.6573V21.7741C85.6333 21.749 85.6295 21.7239 85.6208 21.7004C85.6121 21.6769 85.5986 21.6554 85.5811 21.6374C85.5636 21.6194 85.5426 21.6053 85.5193 21.5959C85.496 21.5865 85.4711 21.582 85.446 21.5828H84.3534C84.3229 21.5845 84.2931 21.5933 84.2666 21.6085C84.24 21.6236 84.2174 21.6448 84.2004 21.6703L80.4583 26.3793V21.7741C80.4591 21.7487 80.4546 21.7235 80.4453 21.7C80.436 21.6765 80.4219 21.6551 80.404 21.6372C80.3861 21.6193 80.3647 21.6052 80.3412 21.5959C80.3176 21.5865 80.2924 21.5821 80.2671 21.5828H79.1745C79.1248 21.5843 79.0775 21.605 79.0428 21.6407C79.0082 21.6765 78.9888 21.7243 78.9888 21.7741V28.6573C78.9902 28.7062 79.0102 28.7526 79.0447 28.7872C79.0793 28.8217 79.1257 28.8417 79.1745 28.8431H80.2016C80.2457 28.8453 80.2896 28.8359 80.3289 28.8158C80.3683 28.7956 80.4016 28.7655 80.4255 28.7284L84.1458 24.063V28.6573C84.1472 28.7062 84.1672 28.7526 84.2017 28.7872C84.2363 28.8217 84.2827 28.8417 84.3315 28.8431H85.4241C85.4734 28.8431 85.5206 28.8235 85.5555 28.7887C85.5903 28.7539 85.6099 28.7066 85.6099 28.6573M94.5308 25.2266C94.5314 25.6079 94.4378 25.9835 94.2584 26.32C94.0789 26.6565 93.8192 26.9434 93.5022 27.1554C93.1853 27.3674 92.8209 27.4978 92.4414 27.5352C92.0619 27.5725 91.679 27.5156 91.3268 27.3695C90.9746 27.2233 90.6639 26.9925 90.4224 26.6974C90.1808 26.4024 90.0158 26.0523 89.942 25.6781C89.8683 25.304 89.888 24.9175 89.9995 24.5528C90.111 24.1881 90.3108 23.8567 90.5811 23.5877C90.7963 23.3724 91.0517 23.2015 91.3329 23.0849C91.6142 22.9683 91.9156 22.9083 92.22 22.9083C92.5244 22.9083 92.8259 22.9683 93.1071 23.0849C93.3883 23.2015 93.6438 23.3724 93.8589 23.5877C94.2916 24.0236 94.5351 24.6125 94.5363 25.2266M94.8969 27.9035C95.4244 27.3737 95.7833 26.6997 95.9282 25.9662C96.0732 25.2328 95.9978 24.4729 95.7115 23.7823C95.4252 23.0917 94.9409 22.5013 94.3195 22.0856C93.6981 21.6699 92.9676 21.4474 92.22 21.4463C91.2178 21.4477 90.2571 21.8465 89.5485 22.5551C88.8399 23.2638 88.4411 24.2245 88.4397 25.2266C88.4382 25.9754 88.6591 26.7077 89.0744 27.3308C89.4897 27.9538 90.0806 28.4395 90.7723 28.7263C91.464 29.013 92.2253 29.0879 92.9596 28.9414C93.6939 28.7949 94.3681 28.4337 94.8969 27.9035ZM105.211 28.6573V21.7741C105.211 21.7243 105.191 21.6765 105.157 21.6407C105.122 21.605 105.075 21.5843 105.025 21.5828H103.933C103.907 21.5821 103.882 21.5865 103.858 21.5959C103.835 21.6052 103.814 21.6193 103.796 21.6372C103.778 21.6551 103.764 21.6765 103.754 21.7C103.745 21.7235 103.741 21.7487 103.741 21.7741V24.5055H100.125V21.7741C100.125 21.7243 100.106 21.6765 100.071 21.6407C100.036 21.605 99.9889 21.5843 99.9391 21.5828H98.8466C98.8217 21.5828 98.7971 21.5878 98.7742 21.5975C98.7513 21.6072 98.7306 21.6213 98.7132 21.6392C98.6959 21.657 98.6824 21.6781 98.6734 21.7013C98.6643 21.7245 98.6601 21.7492 98.6608 21.7741V28.6573C98.6608 28.7066 98.6804 28.7539 98.7152 28.7887C98.75 28.8235 98.7973 28.8431 98.8466 28.8431H99.9391C99.988 28.8417 100.034 28.8217 100.069 28.7872C100.103 28.7526 100.124 28.7062 100.125 28.6573V25.9259H103.741V28.6573C103.743 28.7071 103.764 28.7543 103.799 28.789C103.835 28.8237 103.883 28.8431 103.933 28.8431H105.025C105.074 28.8417 105.12 28.8217 105.155 28.7872C105.189 28.7526 105.209 28.7062 105.211 28.6573ZM115.093 28.6573V21.7741C115.093 21.7233 115.073 21.6747 115.037 21.6389C115.001 21.603 114.953 21.5828 114.902 21.5828H113.81C113.778 21.5841 113.747 21.5927 113.72 21.6078C113.692 21.623 113.669 21.6444 113.651 21.6703L109.914 26.3793V21.7741C109.915 21.7492 109.911 21.7245 109.902 21.7013C109.893 21.6781 109.879 21.657 109.862 21.6392C109.845 21.6213 109.824 21.6072 109.801 21.5975C109.778 21.5878 109.754 21.5828 109.729 21.5828H108.636C108.586 21.5843 108.539 21.605 108.504 21.6407C108.47 21.6765 108.45 21.7243 108.45 21.7741V28.6573C108.452 28.7062 108.472 28.7526 108.506 28.7872C108.541 28.8217 108.587 28.8417 108.636 28.8431H109.663C109.707 28.8453 109.751 28.8359 109.791 28.8158C109.83 28.7956 109.863 28.7655 109.887 28.7284L113.629 24.0357V28.6573C113.631 28.7062 113.651 28.7526 113.685 28.7872C113.72 28.8217 113.766 28.8417 113.815 28.8431H114.908C114.957 28.8431 115.005 28.8237 115.041 28.789C115.077 28.7543 115.097 28.7071 115.099 28.6573M124.97 28.6847C124.953 28.6538 124.933 28.6246 124.91 28.5973L121.632 24.6039L124.555 21.7795C124.604 21.7303 124.637 21.5828 124.457 21.5828H122.9C122.792 21.5852 122.688 21.6281 122.61 21.703L119.813 24.3689V21.7741C119.814 21.7497 119.81 21.7254 119.801 21.7025C119.793 21.6797 119.78 21.6588 119.763 21.6411C119.746 21.6233 119.726 21.6091 119.704 21.5991C119.681 21.5891 119.657 21.5836 119.633 21.5828H118.54C118.516 21.5836 118.492 21.5891 118.47 21.5991C118.447 21.6091 118.427 21.6233 118.411 21.6411C118.394 21.6588 118.381 21.6797 118.372 21.7025C118.364 21.7254 118.359 21.7497 118.36 21.7741V28.6573C118.36 28.7057 118.379 28.7521 118.413 28.7868C118.446 28.8215 118.492 28.8417 118.54 28.8431H119.633C119.681 28.8417 119.727 28.8215 119.761 28.7868C119.794 28.7521 119.813 28.7057 119.813 28.6573V26.352L120.644 25.5489L123.118 28.6573C123.153 28.7003 123.196 28.7352 123.245 28.7597C123.294 28.7843 123.348 28.7978 123.402 28.7994H124.817C124.998 28.7994 125.009 28.7284 124.965 28.641M132.269 26.0351H129.723L130.996 23.1234L132.269 26.0351ZM135 28.6355L131.985 21.7358C131.914 21.5828 131.854 21.5828 131.722 21.5828H130.269C130.138 21.5828 130.073 21.5828 130.013 21.7358L127.013 28.6573C126.959 28.7939 127.013 28.8212 127.139 28.8212H128.379C128.424 28.8275 128.47 28.8178 128.509 28.7939C128.548 28.77 128.577 28.7333 128.592 28.6901L129.139 27.4063H132.864L133.411 28.6901C133.426 28.7327 133.456 28.7688 133.494 28.7926C133.533 28.8164 133.579 28.8265 133.624 28.8212H134.842C134.984 28.8212 135.022 28.7939 134.967 28.6573" fill="#0061D5"/>
</g>
<defs>
<clipPath id="clip0_1211_2081">
<rect width="135" height="20.3986" fill="white" transform="translate(0 15)"/>
</clipPath>
</defs>
</svg>
