<svg width="90" height="40" viewBox="0 0 90 40" fill="none" xmlns="http://www.w3.org/2000/svg">
<g clip-path="url(#clip0_49872_51852)">
<path fill-rule="evenodd" clip-rule="evenodd" d="M0 13V26.4392H6.27244V18.3782H9.8558V26.4392H16.1346V13H0ZM79.4705 16.2182H82.3674V17.6855C82.7194 17.1668 83.195 16.7438 83.7513 16.4546C84.3076 16.1655 84.9271 16.0193 85.554 16.0293C87.9345 16.0293 90.2017 17.9186 90.2017 21.313V21.3508C90.2017 24.7641 87.9723 26.6282 85.554 26.6282C84.9407 26.641 84.3329 26.5098 83.7795 26.2451C83.226 25.9804 82.7424 25.5897 82.3674 25.1042V29.5125H79.4705V16.2182ZM87.3047 21.3508V21.313C87.3047 19.6126 86.1586 18.4916 84.7857 18.4916C83.4128 18.4916 82.3107 19.6126 82.3107 21.313V21.3508C82.3107 23.0449 83.438 24.1721 84.7857 24.1721C86.1334 24.1721 87.3047 23.0637 87.3047 21.3508ZM24.6438 13H21.9295V26.4392H24.8327V17.9562L31.2941 26.4392H33.7879V13H30.891V21.3129L24.6438 13ZM35.1974 21.3884V21.3443C35.1974 18.4285 37.2756 16.0291 40.2355 16.0291C43.6489 16.0291 45.2107 18.6804 45.2107 21.5773C45.2107 21.804 45.2107 22.0748 45.1729 22.3393H38.0565C38.1483 22.9285 38.4583 23.4615 38.925 23.8326C39.3917 24.2036 39.981 24.3855 40.5756 24.342C41.0396 24.3488 41.4999 24.2588 41.9271 24.0777C42.3543 23.8966 42.7391 23.6284 43.0569 23.2903L44.7132 24.7639C44.0035 25.5973 43.0574 26.1956 42.0001 26.4793C40.9429 26.7631 39.8245 26.7191 38.7928 26.3532C37.7612 25.9872 36.865 25.3166 36.2229 24.43C35.5809 23.5434 35.2233 22.4827 35.1974 21.3884ZM42.4082 20.5256C42.2319 19.2283 41.4699 18.3529 40.2544 18.3529C39.039 18.3529 38.2706 19.2157 38.0376 20.5256H42.4082ZM47.0684 18.6994V23.536C47.0684 25.9039 48.2713 26.6092 50.0409 26.6092C50.8456 26.6319 51.6402 26.4267 52.3333 26.0172V23.6934C51.8947 23.9326 51.4033 24.0582 50.9037 24.0587C50.2551 24.0587 49.9654 23.7312 49.9654 23.0636V18.6994H52.3711V16.2181H49.9654V13.6109H47.0684V16.2181H45.8089V18.6994H47.0684ZM67.5552 16.2181H70.4584V17.6855C70.8099 17.1676 71.2845 16.7451 71.8396 16.456C72.3947 16.1669 73.0129 16.0203 73.6387 16.0292C76.0255 16.0292 78.2927 17.9185 78.2927 21.3129V21.3507C78.2927 24.764 76.057 26.6281 73.6387 26.6281C73.0263 26.6409 72.4194 26.5097 71.867 26.2449C71.3146 25.9802 70.8321 25.5894 70.4584 25.1041V29.5124H67.5552V16.2181ZM75.4084 21.3507V21.3129C75.4084 19.6125 74.2685 18.4916 72.8893 18.4916C71.5101 18.4916 70.408 19.6125 70.408 21.3129V21.3507C70.408 23.0448 71.5353 24.172 72.8893 24.172C74.2433 24.172 75.4084 23.0637 75.4084 21.3507ZM61.258 13H58.6193L53.0396 26.4266H56.031L57.2527 23.4289H62.5491L63.7771 26.4266H66.8315L61.258 13ZM59.904 16.5267L61.6737 20.8532H58.1281L59.904 16.5267Z" fill="#151617"/>
</g>
<defs>
<clipPath id="clip0_49872_51852">
<rect width="90" height="40" fill="white"/>
</clipPath>
</defs>
</svg>
