<svg width="135" height="50" viewBox="0 0 135 50" fill="none" xmlns="http://www.w3.org/2000/svg">
<path d="M56.8222 18.542C54.1763 18.542 53.6678 18.8953 53.5817 18.9987C53.4524 19.1453 53.168 19.8089 53.168 22.8253C53.168 24.9972 53.4955 25.5229 53.6334 25.6522C53.7799 25.7815 54.3918 26.0831 56.8911 26.0831C59.2612 26.0831 59.83 25.7556 59.9593 25.6091C60.0972 25.4626 60.4161 24.8507 60.4161 22.2738C60.4161 19.6968 60.1231 19.1108 59.9938 18.9729C59.899 18.8781 59.3819 18.542 56.8222 18.542Z" fill="#060B5B"/>
<path d="M65.0937 14H48.7186C48.3049 14 47.9688 14.3448 47.9688 14.7585V33.0986C47.9688 33.5209 48.3049 33.857 48.7186 33.857H65.0937C65.5073 33.857 65.8435 33.5123 65.8435 33.0986V14.7585C65.8435 14.3448 65.5073 14 65.0937 14ZM48.8737 14.7843H49.8131V15.7237H48.8737V14.7843ZM49.8131 33.2365H48.8737V32.297H49.8131V33.2365ZM54.6222 31.9695C54.6222 31.9609 54.6308 31.9523 54.6394 31.9351C54.6481 31.9092 54.6653 31.8834 54.6825 31.8575C54.6912 31.8403 54.6998 31.8316 54.7084 31.8144C54.7256 31.7886 54.7429 31.7541 54.7687 31.7196C54.7773 31.7024 54.786 31.6851 54.8032 31.6679C54.8291 31.6248 54.8635 31.5817 54.898 31.53C54.9066 31.5214 54.9152 31.5128 54.9239 31.4955C54.967 31.4352 55.01 31.3749 55.0618 31.3059C55.079 31.2887 55.0962 31.2628 55.1135 31.237C55.1479 31.1853 55.191 31.1422 55.2255 31.0905C55.2514 31.056 55.2772 31.0301 55.2945 30.9957C55.3289 30.9526 55.372 30.9009 55.4065 30.8491C55.4323 30.8147 55.4582 30.7802 55.4927 30.7457C55.5358 30.694 55.5789 30.6423 55.622 30.582C55.6478 30.5475 55.6737 30.513 55.7081 30.4785C55.7771 30.3924 55.8547 30.3062 55.9236 30.2114C55.9581 30.1683 56.0012 30.1252 56.0356 30.0735C56.0787 30.0218 56.1304 29.9614 56.1735 29.9097C56.2166 29.858 56.2597 29.8063 56.3028 29.7546C56.3459 29.7029 56.3976 29.6426 56.4407 29.5908C56.4838 29.5391 56.5355 29.4788 56.5786 29.4271C56.6303 29.3668 56.6734 29.3151 56.7251 29.2547C56.7682 29.203 56.8199 29.1513 56.863 29.091C56.9578 28.9876 57.0526 28.8755 57.1474 28.7635C57.4922 28.367 57.8714 27.9533 58.2592 27.5224L58.2937 27.4793C58.3712 27.3759 58.4919 27.307 58.6212 27.307C58.6987 27.307 58.7763 27.3328 58.8453 27.3759C59.0263 27.5052 59.0693 27.7465 58.9314 27.9447C58.7936 28.1947 58.647 28.4532 58.5005 28.7031C58.3799 28.9186 58.2592 29.1255 58.1385 29.3409C58.1213 29.3668 58.1127 29.3926 58.0955 29.4185C58.0524 29.5047 58.0007 29.5822 57.9576 29.6598C57.9317 29.7029 57.9058 29.746 57.88 29.7891C57.8369 29.858 57.8024 29.927 57.7593 29.9959C57.7249 30.0476 57.699 30.108 57.6645 30.1597C57.6301 30.22 57.587 30.2889 57.5525 30.3493C57.518 30.4096 57.4835 30.4613 57.4577 30.513C57.4232 30.5734 57.3887 30.6251 57.3543 30.6854C57.3112 30.7543 57.2767 30.8233 57.2336 30.8922C57.2078 30.9353 57.1819 30.9698 57.1647 31.0129C57.1043 31.1163 57.0354 31.2284 56.9751 31.3232C56.9664 31.3318 56.9664 31.3404 56.9578 31.349C56.9061 31.4438 56.8458 31.53 56.7941 31.6162C56.7768 31.642 56.7596 31.6679 56.751 31.6938C56.7079 31.7627 56.6734 31.823 56.6303 31.8834C56.6131 31.9092 56.5958 31.9351 56.5786 31.9609C56.5441 32.0126 56.5097 32.073 56.4752 32.1247C56.4579 32.1505 56.4407 32.1764 56.4235 32.2022C56.3976 32.2453 56.3631 32.297 56.3373 32.3315C56.32 32.3574 56.3028 32.3746 56.2942 32.4005C56.2683 32.4436 56.2425 32.478 56.2252 32.5125C56.208 32.5297 56.1994 32.5556 56.1908 32.5642C56.1649 32.5987 56.1477 32.6245 56.1304 32.6504C56.1218 32.659 56.1132 32.6763 56.1046 32.6849C56.0787 32.7194 56.0529 32.7452 56.0356 32.7711C55.9581 32.8486 55.8374 32.8659 55.7426 32.8659C55.5185 32.8659 55.2686 32.7624 55.1393 32.6763C54.9239 32.5211 54.6481 32.2453 54.605 32.0126C54.5964 32.0299 54.605 32.004 54.6222 31.9695ZM62.8356 27.6172C62.1978 28.1688 60.9826 28.5135 59.1728 28.6773C59.2589 28.5222 59.3451 28.3756 59.4055 28.2636C59.7071 27.8327 59.6037 27.2294 59.1728 26.9277C58.7505 26.6347 58.1213 26.7554 57.8455 27.1518C57.2767 27.7724 56.8027 28.3067 56.389 28.7807C53.5104 28.7635 51.6661 28.3929 50.7698 27.6345C49.8303 26.8502 49.3736 25.2299 49.3736 22.6961C49.3736 19.7055 49.8217 17.8525 50.7353 17.0337C51.6402 16.2322 53.7087 15.8444 57.0612 15.8444C60.0518 15.8444 61.9479 16.2322 62.8529 17.0251C63.775 17.8266 64.2232 19.5072 64.2232 22.1531C64.206 25.0317 63.7578 26.8243 62.8356 27.6172ZM64.9385 33.2365H63.9991V32.297H64.9385V33.2365ZM64.9385 15.7323H63.9991V14.7929H64.9385V15.7323Z" fill="#060B5B"/>
<path d="M28.9909 17.1027C28.0687 16.3098 26.1296 15.922 23.07 15.922C22.5701 15.922 18.7177 15.9306 18.2695 15.9478V18.654C18.6057 18.6368 22.3805 18.6282 22.8287 18.6282C25.4401 18.6282 25.9658 18.9557 26.0692 19.0591C26.1727 19.1711 26.3968 19.5848 26.4743 21.162H18.4419V23.601H26.4743C26.3881 25.1523 26.1554 25.5833 26.0434 25.7039C25.9055 25.8418 25.3281 26.1779 22.9063 26.1779C22.4236 26.1779 18.6229 26.1693 18.2695 26.1521V28.8669C18.5626 28.8755 22.2513 28.8841 22.5701 28.8841C25.9572 28.8841 28.0515 28.5049 28.9737 27.7206C29.9217 26.9277 30.3785 25.1351 30.3785 22.2479C30.3871 19.5848 29.9303 17.9042 28.9909 17.1027Z" fill="#060B5B"/>
<path d="M70.9384 31.0301L70.4127 32.254C70.2834 32.5642 70.1024 33.0124 70.0335 33.2192H70.0162C69.9473 32.9951 69.8008 32.659 69.7232 32.4436L69.1371 31.0301H68.4132L68.1719 33.8397H68.7148L68.7924 32.5125C68.8096 32.2022 68.8355 31.8316 68.8441 31.5041H68.87C68.9475 31.7627 69.0941 32.1678 69.1889 32.4349L69.7663 33.8225H70.1972L70.8177 32.4091C70.9987 31.9782 71.0849 31.7541 71.1711 31.4955H71.1883C71.2056 31.8403 71.2314 32.2022 71.2487 32.5039L71.3262 33.8484H71.8864L71.671 31.0301H70.9384Z" fill="#060B5B"/>
<path d="M76.6681 31.0301H76.082V33.8397H76.6681V31.0301Z" fill="#060B5B"/>
<path d="M74.2758 31.9523C74.0604 31.9523 73.8708 31.9609 73.7501 31.9868V31.0301H73.1641V33.8311C73.4054 33.857 73.707 33.8742 74.0345 33.8742C74.4655 33.8742 74.9826 33.8139 75.3359 33.5467C75.5428 33.3916 75.672 33.1934 75.672 32.8917C75.672 32.2022 74.9739 31.9523 74.2758 31.9523ZM74.1552 33.5036C73.9914 33.5036 73.8622 33.495 73.7501 33.4778V32.3401C73.8708 32.3229 74.0173 32.3143 74.181 32.3143C74.6206 32.3143 75.0946 32.4522 75.0946 32.909C75.0946 33.3485 74.6033 33.5036 74.1552 33.5036Z" fill="#060B5B"/>
<path d="M82.8303 31.0301H80.6671V31.7627C80.6671 32.1591 80.6068 32.5384 80.4775 32.8831C80.3999 33.0899 80.2965 33.2796 80.1586 33.4605L79.8828 33.4692L79.9087 34.7447H80.3741L80.3999 33.8484H82.6407L82.6666 34.7447H83.132L83.1665 33.4692L82.8303 33.4605V31.0301ZM82.2615 33.4519H80.7705C80.8739 33.2968 80.9601 33.1244 81.0291 32.9262C81.1325 32.6159 81.1928 32.254 81.1928 31.8834V31.418H82.2529V33.4519H82.2615Z" fill="#060B5B"/>
<path d="M85.6497 30.9612C84.7103 30.9612 84.1328 31.6248 84.1328 32.478C84.1328 33.3226 84.7275 33.8915 85.7272 33.8915C86.2443 33.8915 86.5977 33.7967 86.8045 33.7191L86.7011 33.3571C86.477 33.4347 86.2271 33.5036 85.8048 33.5036C85.2187 33.5036 84.7103 33.2192 84.693 32.5297H86.9683C86.9769 32.478 86.9855 32.4005 86.9855 32.2884C86.9855 31.7713 86.7011 30.9612 85.6497 30.9612ZM84.693 32.1591C84.7361 31.8058 85.0033 31.3318 85.598 31.3318C86.2616 31.3318 86.4167 31.8403 86.4167 32.1591H84.693Z" fill="#060B5B"/>
<path d="M88.4441 32.1591C88.4441 32.7883 88.4096 33.1847 88.1079 33.3744C88.0304 33.4347 87.9011 33.4692 87.7891 33.4864L87.8494 33.8828C88.151 33.8828 88.332 33.8225 88.4872 33.7105C88.9095 33.4692 88.9956 32.9434 88.9956 32.1505V31.418H90.1074V33.8311H90.6849V31.0301H88.4354V32.1591H88.4441Z" fill="#060B5B"/>
<path d="M94.4393 32.1161C94.4393 31.5559 94.198 30.9698 93.2068 30.9698C92.8018 30.9698 92.4139 31.0646 92.1468 31.2197L92.2847 31.5559C92.5087 31.4266 92.8276 31.349 93.1293 31.349C93.7929 31.349 93.8618 31.7713 93.8618 31.9954V32.0557C92.6122 32.0471 91.9141 32.4177 91.9141 33.0986C91.9141 33.5036 92.2502 33.9087 92.9052 33.9087C93.3706 33.9087 93.7153 33.7105 93.8963 33.4864H93.9135L93.9566 33.8398H94.491C94.4479 33.6501 94.4393 33.4088 94.4393 33.1675V32.1161ZM93.8705 32.8917C93.8705 32.9434 93.8532 33.0038 93.836 33.0555C93.7412 33.2968 93.474 33.5295 93.0517 33.5295C92.7501 33.5295 92.5001 33.3744 92.5001 33.0382C92.5001 32.4953 93.2327 32.3919 93.8705 32.4091V32.8917Z" fill="#060B5B"/>
<path d="M97.1926 30.9612C96.2532 30.9612 95.6758 31.6248 95.6758 32.478C95.6758 33.3226 96.2705 33.8915 97.2702 33.8915C97.7873 33.8915 98.1407 33.7967 98.3475 33.7191L98.2441 33.3571C98.02 33.4347 97.7701 33.5036 97.3478 33.5036C96.7617 33.5036 96.2532 33.2192 96.236 32.5297H98.5113C98.5199 32.478 98.5285 32.4005 98.5285 32.2884C98.5285 31.7713 98.2527 30.9612 97.1926 30.9612ZM96.2446 32.1591C96.2877 31.8058 96.5549 31.3318 97.1495 31.3318C97.8132 31.3318 97.9683 31.8403 97.9683 32.1591H96.2446Z" fill="#060B5B"/>
<path d="M102.325 31.0301L101.799 32.254C101.67 32.5642 101.489 33.0124 101.42 33.2192H101.403C101.325 32.9951 101.187 32.659 101.11 32.4436L100.524 31.0301H99.7999L99.5586 33.8397H100.102L100.179 32.5125C100.196 32.2022 100.222 31.8316 100.231 31.5041H100.257C100.334 31.7627 100.481 32.1678 100.576 32.4349L101.153 33.8225H101.584L102.204 32.4091C102.385 31.9782 102.472 31.7541 102.558 31.4955H102.575C102.592 31.8403 102.618 32.2022 102.635 32.5039L102.713 33.8484H103.273L103.049 31.0387H102.325V31.0301Z" fill="#060B5B"/>
<path d="M108.164 31.0301C107.699 31.0301 107.25 31.2542 107.044 31.6593H107.026C107.052 31.3662 107.173 30.987 107.38 30.7285C107.63 30.4182 108.009 30.2717 108.526 30.2028C108.741 30.1769 109.035 30.1252 109.198 30.0735L109.224 29.6512C109 29.7201 108.681 29.7718 108.423 29.8063C107.793 29.9011 107.345 30.0821 107.035 30.4699C106.69 30.8664 106.535 31.3835 106.535 32.0299C106.535 32.9607 106.906 33.9087 108.043 33.9087C108.991 33.9087 109.543 33.3399 109.543 32.4177C109.543 31.5214 108.957 31.0301 108.164 31.0301ZM108.061 33.5209C107.423 33.5209 107.156 32.8486 107.156 32.3918C107.156 32.1678 107.207 31.9609 107.319 31.7972C107.457 31.5731 107.699 31.4093 108.052 31.4093C108.75 31.4093 108.957 32.004 108.957 32.4608C108.948 32.9693 108.707 33.5209 108.061 33.5209Z" fill="#060B5B"/>
<path d="M112.084 32.6763C112.006 32.8831 111.937 33.0986 111.877 33.2623H111.86C111.808 33.0986 111.722 32.8745 111.653 32.6849L110.946 31.0215H110.309L111.507 33.6071C111.532 33.6674 111.55 33.7105 111.55 33.745C111.55 33.7708 111.532 33.8139 111.507 33.8656C111.369 34.1242 111.17 34.3224 111.015 34.4344C110.843 34.5637 110.645 34.6413 110.498 34.6844L110.645 35.1153C110.791 35.0894 111.076 35.0032 111.369 34.7878C111.774 34.4861 112.058 33.9949 112.48 33.0296L113.36 31.0301H112.739L112.084 32.6763Z" fill="#060B5B"/>
<path d="M116.772 31.0301H114.608V31.7627C114.608 32.1591 114.548 32.5384 114.419 32.8831C114.341 33.0899 114.238 33.2796 114.1 33.4605L113.824 33.4692L113.85 34.7447H114.315L114.341 33.8484H116.582L116.608 34.7447H117.073L117.108 33.4692L116.772 33.4605V31.0301ZM116.194 33.4519H114.703C114.807 33.2968 114.893 33.1244 114.962 32.9262C115.065 32.6159 115.126 32.254 115.126 31.8834V31.418H116.186V33.4519H116.194Z" fill="#060B5B"/>
<path d="M119.658 32.6763C119.581 32.8831 119.512 33.0986 119.451 33.2623H119.434C119.382 33.0986 119.296 32.8745 119.227 32.6849L118.521 31.0215H117.883L119.081 33.6071C119.107 33.6674 119.124 33.7105 119.124 33.745C119.124 33.7708 119.107 33.8139 119.081 33.8656C118.943 34.1242 118.745 34.3224 118.59 34.4344C118.417 34.5637 118.219 34.6413 118.072 34.6844L118.219 35.1153C118.365 35.0894 118.65 35.0032 118.943 34.7878C119.348 34.4861 119.632 33.9949 120.055 33.0296L120.934 31.0301H120.313L119.658 32.6763Z" fill="#060B5B"/>
<path d="M125.951 31.0301H125.365V33.4347H124.236V31.0301H123.659V33.4347H122.53V31.0301H121.961V33.8397H125.762L125.788 34.7361H126.244L126.279 33.4605L125.951 33.4519V31.0301Z" fill="#060B5B"/>
<path d="M128.751 30.9612C127.812 30.9612 127.234 31.6248 127.234 32.478C127.234 33.3226 127.829 33.8915 128.829 33.8915C129.346 33.8915 129.699 33.7967 129.906 33.7191L129.803 33.3571C129.579 33.4347 129.329 33.5036 128.906 33.5036C128.32 33.5036 127.812 33.2192 127.795 32.5297H130.07C130.078 32.478 130.087 32.4005 130.087 32.2884C130.087 31.7713 129.811 30.9612 128.751 30.9612ZM127.803 32.1591C127.846 31.8058 128.113 31.3318 128.708 31.3318C129.372 31.3318 129.527 31.8403 129.527 32.1591H127.803Z" fill="#060B5B"/>
<path d="M132.622 30.9612C131.683 30.9612 131.105 31.6248 131.105 32.478C131.105 33.3226 131.7 33.8915 132.7 33.8915C133.217 33.8915 133.57 33.7967 133.777 33.7191L133.674 33.3571C133.45 33.4347 133.2 33.5036 132.777 33.5036C132.191 33.5036 131.683 33.2192 131.666 32.5297H133.941C133.95 32.478 133.958 32.4005 133.958 32.2884C133.958 31.7713 133.674 30.9612 132.622 30.9612ZM131.674 32.1591C131.717 31.8058 131.985 31.3318 132.579 31.3318C133.243 31.3318 133.398 31.8403 133.398 32.1591H131.674Z" fill="#060B5B"/>
<path d="M134 16.1288C132.621 16.0771 131.32 16.0857 130.182 16.0943C130.173 16.0943 130.096 16.1374 130.001 16.215C128.674 17.3526 127.355 18.4989 126.028 19.6451L124.528 20.9379C124.425 21.0241 124.33 21.1016 124.192 21.2051L123.158 22.0238V16.1115H119.883V28.7204H123.158V28.5049C123.158 27.8154 123.158 27.1346 123.166 26.4537C123.166 26.2038 123.166 25.859 123.416 25.635C123.959 25.1265 124.494 24.6438 125.063 24.1353L126.002 23.2907L126.459 23.9285C126.536 24.0319 126.597 24.1181 126.657 24.2043L127.398 25.273C128.165 26.3848 128.941 27.4965 129.716 28.5997C129.76 28.66 129.811 28.7118 129.846 28.7376C131.139 28.7548 132.423 28.7548 133.784 28.7548H133.983L128.475 21.0758L134 16.1288Z" fill="#060B5B"/>
<path d="M89.977 28.3843L93.4589 24.3508L96.484 20.7311C96.484 20.7311 96.484 21.162 96.484 21.7997V27.0312V28.7462H99.871V18.1024V16.396C99.871 16.3615 99.871 16.3356 99.8624 16.3098C99.8452 16.2408 99.7676 16.146 99.5091 16.1546C99.4918 16.1546 97.9146 16.1891 96.8373 16.1546C96.6305 16.146 96.4754 16.1633 96.3633 16.1805C96.1392 16.2408 96.053 16.3615 95.7169 16.7493C95.6566 16.8183 95.5963 16.8872 95.5273 16.9648H95.5359L90.8044 22.3772C90.4166 22.834 89.3996 23.9888 89.3996 23.9888V17.8008C89.3996 16.9389 89.391 16.2839 89.391 16.1546C89.391 16.1202 89.3823 16.1116 89.3823 16.1116C89.3823 16.1116 89.3479 16.1116 89.3306 16.1116H86.0039V28.7376H88.5981C89.1755 28.7462 89.5461 28.7462 89.977 28.3843Z" fill="#060B5B"/>
<path d="M43.9034 16.4391C43.1708 16.2408 42.3952 16.1288 41.654 16.1202C39.4649 16.0943 37.2327 16.0943 35.0695 16.0943C34.3455 16.0943 33.6302 16.0943 32.9062 16.0943V17.8525V24.9369V28.7462H36.0606V24.9369C36.819 24.9369 37.5775 24.9369 38.3359 24.9369C38.3962 24.9369 38.4652 24.9369 38.5255 24.9369V24.9282C39.5683 24.9282 40.6112 24.9196 41.6454 24.9024C42.3779 24.8938 43.1536 24.7817 43.8948 24.5835C45.0842 24.2646 45.834 23.4803 46.127 22.2651C46.2563 21.7222 46.3252 21.2051 46.3424 20.7138C46.3424 20.6966 46.3424 20.688 46.3424 20.6707C46.3424 20.6449 46.3424 20.6276 46.3424 20.6018C46.3511 20.0157 46.2821 19.4038 46.127 18.7488C45.8426 17.5422 45.0928 16.7579 43.9034 16.4391ZM42.6882 21.5929C42.4383 21.8515 42.0418 22.0497 41.3868 22.0669C40.5681 22.0842 39.7407 22.0842 38.9392 22.0842C38.6031 22.0842 38.2669 22.0842 37.9394 22.0842C37.6464 22.0842 37.362 22.0842 37.0604 22.0842H36.0865V18.947H37.0604C37.362 18.947 37.6464 18.947 37.9394 18.947C38.2756 18.947 38.6031 18.947 38.9392 18.947C39.7407 18.947 40.5681 18.947 41.3868 18.9643C42.0418 18.9815 42.4469 19.1797 42.6882 19.4383C42.9295 19.7141 43.0588 20.0847 43.0588 20.5156C43.0588 20.9465 42.9295 21.3171 42.6882 21.5929Z" fill="#060B5B"/>
<path d="M78.2909 16.1029C78.2823 16.0857 78.2737 16.0771 78.2737 16.0685C78.2564 16.0685 78.2306 16.0598 78.2047 16.0685C77.5411 16.0771 76.7654 16.0771 75.938 16.0771C75.1107 16.0771 74.335 16.0685 73.6714 16.0685C73.6369 16.0685 73.6111 16.0685 73.6024 16.0685C73.5938 16.0771 73.5938 16.0857 73.5852 16.1029C72.1632 19.4124 70.7325 22.7133 69.3018 26.0228L68.1211 28.7462H68.3021C68.733 28.7462 69.1639 28.7462 69.5862 28.7462H81.9106C82.4622 28.7462 83.0138 28.7462 83.5826 28.7462H83.7636L82.5829 26.0228C81.1436 22.7133 79.7129 19.4124 78.2909 16.1029ZM76.0846 25.9021H72.8785C73.9903 23.0408 75.5416 19.0504 75.5416 19.0504H76.3431L79.0062 25.9021C78.0237 25.9021 77.0498 25.9021 76.0846 25.9021Z" fill="#060B5B"/>
<path d="M110.135 19.3693C110.273 19.378 110.411 19.378 110.575 19.3693H110.583H110.592C110.747 19.378 110.894 19.3693 111.031 19.3693C112.609 19.4038 113.557 19.9123 114.082 20.6104L117.581 18.3955C115.677 15.8013 110.713 15.8702 110.713 15.8702L110.583 15.8789L110.454 15.8702C110.454 15.8702 104.231 15.7841 103.042 19.4469C102.87 19.8434 102.559 20.7828 102.611 22.3858C102.559 23.9888 102.87 24.9283 103.042 25.3247C104.231 28.9876 110.454 28.9014 110.454 28.9014L110.583 28.8928L110.713 28.9014C110.713 28.9014 115.539 28.9703 117.495 26.4796L113.953 24.3077C113.402 24.9283 112.488 25.3678 111.023 25.4023C110.885 25.3937 110.747 25.3937 110.583 25.4023H110.575H110.566C110.411 25.3937 110.264 25.4023 110.127 25.4023C107.515 25.3419 106.619 23.9888 106.515 22.6013C106.507 22.5323 106.507 22.4634 106.507 22.3944C106.507 22.3255 106.507 22.2565 106.515 22.179C106.627 20.7828 107.524 19.4297 110.135 19.3693Z" fill="#060B5B"/>
<path d="M5.58477 16.0168L0 28.7462H3.99035L4.97286 26.4451H11.2902L12.2986 28.7462H16.2372L10.5662 16.0168H5.58477ZM6.00708 24.0233L8.1186 19.1108L10.2732 24.0233H6.00708Z" fill="#060B5B"/>
</svg>
