<svg width="59" height="40" viewBox="0 0 59 40" fill="none" xmlns="http://www.w3.org/2000/svg">
<path d="M15.6175 23.2807C15.0493 24.8131 14.0151 26.1288 12.6604 27.0429C11.3056 27.9571 9.69848 28.4236 8.06483 28.377H0V11.5202H6.04862C9.89219 11.5202 14.0247 12.5753 15.545 16.4263L24.8578 10.5L28.6974 12.9416L20.2649 18.3128L21.7004 19.2786L29.9427 14.0788L33.6451 16.431L25.4748 21.6227L26.8828 22.5838L35.244 17.3181V11.5202H41.1495V23.0462H46.4057V28.377H35.2473V22.5892L24.9338 29.16L15.6175 23.2807ZM5.95857 23.315H7.14611C8.77454 23.315 10.0145 21.9144 10.036 20.0219V20.0185C10.0679 19.1796 9.76626 18.3623 9.19713 17.7451C8.62799 17.128 7.83765 16.7614 6.99893 16.7254H5.95857V23.315ZM47.4689 28.3555V11.5175H53.3744V23.0462H58.6307V28.3555H47.4689ZM28.6974 12.9416L28.7128 12.9524L28.6974 12.9416ZM56.6689 12.7951V11.7285H56.3046V11.492H57.2966V11.7285H56.9323V12.7951H56.6689ZM58.5453 12.785V11.8542L58.2267 12.6419H57.9895L57.6709 11.8542V12.785H57.427V11.494H57.8302L58.1091 12.279L58.3853 11.494H58.7886V12.785H58.5453Z" fill="#151617"/>
</svg>
