<svg width="78" height="40" viewBox="0 0 78 40" fill="none" xmlns="http://www.w3.org/2000/svg">
<path d="M32.6676 15.4947C31.8983 15.4979 31.1397 15.6782 30.4491 16.0218C29.7586 16.3654 29.1542 16.8634 28.6815 17.4782V15.7021H25.3245V28.0831H28.6815V21.0359C28.6862 20.6779 28.7625 20.3245 28.9056 19.9971C29.0488 19.6697 29.2559 19.3751 29.5146 19.1309C29.7732 18.8868 30.0779 18.6982 30.4104 18.5765C30.7429 18.4549 31.0963 18.4026 31.4493 18.423C31.8046 18.4049 32.16 18.4582 32.4949 18.58C32.8297 18.7018 33.1374 18.8896 33.4002 19.1326C33.663 19.3756 33.8756 19.6689 34.0258 19.9955C34.176 20.3222 34.2608 20.6758 34.2753 21.0359V28.0831H37.6322V20.4086C37.6536 19.7477 37.5389 19.0895 37.2955 18.4759C37.052 17.8623 36.6851 17.3067 36.2182 16.8445C35.7512 16.3823 35.1944 16.0236 34.5831 15.7913C33.9719 15.5589 33.3195 15.4579 32.6676 15.4947Z" fill="#151617"/>
<path d="M61.4893 15.7031L58.455 24.1364L55.4206 15.7031H51.586L56.6159 28.0799H60.2934L65.3232 15.7031H61.4893Z" fill="#151617"/>
<path d="M15.3054 19.4327C15.6079 19.0339 16 18.714 16.449 18.4994C16.898 18.2847 17.3911 18.1817 17.8873 18.1987C18.4414 18.195 18.9842 18.3576 19.4472 18.666C19.9102 18.9744 20.2726 19.4147 20.4889 19.9314L14.6243 22.3958C14.4548 21.3557 14.6997 20.29 15.3054 19.4327ZM21.7542 24.277C20.791 25.1476 19.5379 25.6162 18.2472 25.5884C17.7527 25.6126 17.2584 25.5365 16.7934 25.3646C16.3283 25.1927 15.9019 24.9285 15.539 24.5874L24.1201 20.9785C23.9669 19.7085 23.4582 18.5093 22.6542 17.5224C22.0467 16.845 21.2989 16.3119 20.4643 15.9613C19.6297 15.6106 18.7289 15.4511 17.8263 15.4942C16.9816 15.4653 16.1399 15.6099 15.3518 15.9193C14.5638 16.2287 13.8458 16.6965 13.241 17.2946C12.6363 17.8926 12.1574 18.6084 11.8331 19.3989C11.5089 20.1894 11.346 21.0383 11.3543 21.8943C11.3543 25.631 14.1439 28.2936 18.1981 28.2936C20.3259 28.2968 22.3685 27.4468 23.8795 25.9294L21.7542 24.277Z" fill="#151617"/>
<path d="M11.0322 24.9621H3.40292L3.40292 12H0.000347137L0.000347137 28.0837H11.0322L11.0322 24.9621Z" fill="#151617"/>
<path d="M71.35 18.407C70.9066 18.4036 70.4671 18.493 70.0594 18.6697C69.6516 18.8464 69.2843 19.1065 68.9805 19.4338C68.6767 19.761 68.443 20.1483 68.2939 20.5714C68.1449 20.9944 68.0838 21.4441 68.1144 21.8923C68.0994 22.3404 68.1729 22.7871 68.3304 23.2061C68.488 23.6252 68.7265 24.0082 69.032 24.3327C69.3374 24.6573 69.7038 24.9168 70.1095 25.0962C70.5153 25.2756 70.9523 25.3713 71.3949 25.3775C71.8376 25.3779 72.2756 25.2864 72.6819 25.1088C73.0883 24.9311 73.4544 24.671 73.7577 24.3445C74.061 24.018 74.2951 23.632 74.4454 23.2104C74.5958 22.7888 74.6593 22.3404 74.632 21.893C74.6471 21.4446 74.5738 20.9977 74.4162 20.5785C74.2587 20.1592 74.0201 19.776 73.7144 19.4514C73.4087 19.1267 73.0422 18.8671 72.6362 18.6878C72.2302 18.5084 71.7929 18.413 71.35 18.407ZM71.35 28.2916C70.5021 28.3195 69.6573 28.1747 68.8655 27.866C68.0738 27.5572 67.3513 27.0907 66.7408 26.4941C66.1302 25.8975 65.6441 25.1828 65.3111 24.3925C64.9782 23.6022 64.8052 22.7522 64.8023 21.893C64.8117 21.0316 64.9907 20.1809 65.3289 19.3905C65.667 18.6001 66.1575 17.886 66.7716 17.2901C67.3858 16.6942 68.1111 16.2284 68.9053 15.92C69.6994 15.6117 70.5463 15.4669 71.3963 15.4943C72.2442 15.4666 73.089 15.6114 73.8806 15.9202C74.6723 16.229 75.3947 16.6955 76.0051 17.2921C76.6156 17.8887 77.1017 18.6033 77.4346 19.3936C77.7675 20.1839 77.9405 21.0338 77.9434 21.893C77.9341 22.7543 77.7552 23.605 77.4171 24.3954C77.079 25.1858 76.5885 25.8999 75.9745 26.4958C75.3604 27.0917 74.6351 27.5575 73.841 27.8659C73.0469 28.1743 72.2001 28.319 71.35 28.2916Z" fill="#151617"/>
<path d="M45.5073 18.407C45.0638 18.4036 44.6244 18.493 44.2167 18.6697C43.809 18.8464 43.4417 19.1065 43.138 19.4338C42.8342 19.7611 42.6005 20.1484 42.4516 20.5714C42.3026 20.9945 42.2416 21.4442 42.2724 21.8923C42.2573 22.3404 42.3307 22.7871 42.4882 23.2062C42.6457 23.6253 42.8842 24.0083 43.1897 24.3329C43.4952 24.6575 43.8616 24.9171 44.2673 25.0964C44.6731 25.2758 45.1102 25.3714 45.5529 25.3775C45.9954 25.3778 46.4333 25.2863 46.8395 25.1085C47.2458 24.9308 47.6118 24.6707 47.915 24.3442C48.2181 24.0177 48.4521 23.6318 48.6023 23.2102C48.7525 22.7886 48.8159 22.3403 48.7885 21.893C48.8037 21.4447 48.7303 20.9979 48.5728 20.5786C48.4153 20.1594 48.1768 19.7763 47.8712 19.4516C47.5656 19.127 47.1991 18.8673 46.7932 18.688C46.3873 18.5086 45.9501 18.4131 45.5073 18.407ZM45.5073 28.2916C44.6594 28.3194 43.8146 28.1746 43.023 27.8658C42.2314 27.557 41.5089 27.0904 40.8985 26.4938C40.288 25.8972 39.8019 25.1826 39.469 24.3923C39.1361 23.6021 38.9631 22.7522 38.9603 21.893C38.9695 21.0317 39.1485 20.1809 39.4866 19.3905C39.8246 18.6002 40.3151 17.8861 40.9291 17.2902C41.5432 16.6942 42.2685 16.2284 43.0626 15.9201C43.8567 15.6117 44.7036 15.4669 45.5536 15.4943C46.4015 15.4666 47.2462 15.6114 48.0379 15.9202C48.8295 16.229 49.5519 16.6955 50.1624 17.2921C50.7728 17.8887 51.2589 18.6033 51.5918 19.3936C51.9247 20.1839 52.0977 21.0338 52.1006 21.893C52.0912 22.7542 51.9122 23.605 51.5741 24.3953C51.236 25.1856 50.7455 25.8997 50.1315 26.4956C49.5175 27.0915 48.7922 27.5573 47.9981 27.8657C47.2041 28.1741 46.3573 28.3189 45.5073 28.2916Z" fill="#151617"/>
</svg>
