<svg width="135" height="50" viewBox="0 0 135 50" fill="none" xmlns="http://www.w3.org/2000/svg">
<g clip-path="url(#clip0_1211_2077)">
<g clip-path="url(#clip1_1211_2077)">
<path d="M11.6967 29.2043C11.9392 28.8539 11.9931 28.5575 11.8045 28.1262C11.0542 26.2505 10.3169 24.3486 9.58364 22.457C9.26338 21.6308 8.94382 20.8065 8.62432 19.9872C8.46262 19.556 8.57042 19.2596 8.89383 19.017C9.21723 18.7745 9.56759 18.8014 9.89099 19.044C10.0669 19.1947 10.149 19.4157 10.2249 19.6197L10.2345 19.6455L10.2413 19.6638C11.0229 21.6582 11.8045 23.6525 12.5591 25.6199C12.6399 25.8355 12.7208 26.0241 12.8555 26.3206C13.0005 25.9685 13.1375 25.6323 13.2712 25.3044L13.2713 25.304C13.4854 24.7787 13.6909 24.2746 13.9066 23.7603C14.1894 23.06 14.4722 22.3529 14.7551 21.6458L14.7559 21.6439C15.0387 20.9368 15.3216 20.2295 15.6045 19.5291C15.847 18.9362 16.2513 18.7206 16.7364 18.9092C17.1945 19.0979 17.3562 19.5291 17.1137 20.122C16.359 22.04 15.5952 23.9489 14.8329 25.854L14.8327 25.8546C14.2884 27.215 13.7448 28.5735 13.2059 29.9319C13.0981 30.2014 12.9835 30.4777 12.869 30.7539C12.7545 31.0301 12.6399 31.3064 12.5321 31.5759C12.3704 31.9801 12.1279 32.2766 11.6967 32.3036C11.2655 32.3036 11.0229 32.0071 10.8612 31.6028C9.62149 28.4497 8.35482 25.2965 7.08815 22.1433C6.98035 21.9007 6.87255 21.6582 6.7917 21.4156C6.39819 20.4449 6.38773 20.4447 5.3931 20.4205L5.30943 20.4184C4.88549 20.4088 4.46499 20.4164 4.04548 20.424C3.29157 20.4376 2.5408 20.4511 1.77893 20.3645C0.997372 20.2837 0.754819 19.9064 1.02432 19.1248C1.64418 17.3192 2.53354 15.6482 3.71936 14.139C6.54915 10.5546 10.2413 8.18299 14.796 7.45533C21.7761 6.32341 27.5704 8.64114 32.0442 14.166C32.3945 14.5972 32.3676 15.0553 31.9903 15.3518C31.6399 15.6482 31.1548 15.5943 30.8045 15.1631C29.9151 14.0582 28.9449 13.0341 27.813 12.1716C24.4442 9.61136 20.6442 8.42554 16.413 8.8837C10.5647 9.4766 6.25269 12.4681 3.4229 17.5887C3.34981 17.7166 3.2891 17.8445 3.23238 17.964C3.20548 18.0207 3.1794 18.0757 3.1534 18.1277C2.9923 18.4767 2.91145 18.6519 2.96749 18.7398C3.02394 18.8284 3.21933 18.8284 3.61156 18.8284H6.6839C7.27681 18.8284 7.60021 19.044 7.81581 19.6099C8.56451 21.5327 9.33469 23.4448 10.106 25.3596C10.5563 26.4776 11.0071 27.5966 11.4541 28.7192C11.4665 28.7565 11.4761 28.7952 11.4858 28.8344C11.518 28.965 11.5515 29.1006 11.6967 29.2043Z" fill="#F17125"/>
<path fill-rule="evenodd" clip-rule="evenodd" d="M28.0555 18.8284H33.6343C34.5236 18.8284 34.7931 19.017 35.0357 19.8525C36.491 25.2426 35.8442 30.3362 32.6101 34.9177C29.6995 39.0142 25.7378 41.6014 20.6711 42.4369C12.4243 43.7574 4.20446 39.0142 1.29383 31.1716C0.539215 29.1234 0.13496 26.9943 0.16191 24.7844C0.16191 24.0837 0.431414 23.7333 0.943471 23.7333C1.45553 23.7333 1.75198 24.0837 1.75198 24.7844C1.77893 29.6894 3.61156 33.8128 7.2768 37.0738C9.83709 39.3645 12.8825 40.6851 16.3321 40.9816C21.0484 41.4128 25.1718 40.0114 28.7293 36.9121C30.0499 35.7532 31.047 34.3787 31.9903 32.8965C33.9038 29.8241 34.4428 26.4553 34.0655 22.8979C34.025 22.561 33.9509 22.2242 33.8768 21.8873C33.8027 21.5504 33.7286 21.2135 33.6882 20.8766C33.6343 20.4993 33.4186 20.4723 33.1222 20.4723H23.3392C22.935 20.4723 22.7733 20.5532 22.8002 20.9844C22.8272 22.0894 22.8272 23.2213 22.8002 24.3262C22.8002 24.6766 22.8811 24.8114 23.2584 24.8114C23.5747 24.8114 23.891 24.8025 24.2067 24.7937C24.9938 24.7717 25.7769 24.7498 26.5463 24.8653C28.5137 25.1348 29.969 26.8865 29.8343 28.8C29.6995 30.8213 28.0286 32.3844 26.0343 32.3844H19.5931C18.9463 32.3844 18.5151 31.8993 18.6768 31.3603C18.8116 30.8752 19.1889 30.7404 19.6201 30.7404H24.4711C25.0955 30.7404 25.4054 30.7404 25.5593 30.5855C25.7108 30.4328 25.7108 30.1296 25.7108 29.5277C25.7108 29.3042 25.7091 29.0825 25.7074 28.8621V28.8617C25.7024 28.2048 25.6974 27.559 25.7378 26.9135C25.7647 26.5092 25.603 26.4553 25.2527 26.4553C24.6249 26.4733 24.009 26.4673 23.3891 26.4613H23.3887C23.0775 26.4583 22.7651 26.4553 22.4499 26.4553C20.6711 26.4553 19.0811 25.2156 18.7307 23.5716C18.3264 21.739 19.1619 20.0142 20.8328 19.2057C21.3449 18.9631 21.8839 18.8823 22.4499 18.8823C24.3364 18.8284 26.196 18.8284 28.0555 18.8284ZM21.1832 24.3262V21.227C21.1832 21.2138 21.1839 21.2 21.1846 21.1858C21.1884 21.1125 21.1926 21.0296 21.1023 20.9844C21.0176 20.942 20.9662 20.9829 20.9088 21.0285C20.8932 21.0409 20.8771 21.0537 20.8598 21.0653C19.9165 21.9007 20.0243 23.5716 21.1832 24.3262ZM27.3548 30.1745C28.3789 29.5277 28.4598 27.5872 27.3548 26.9404V30.1745Z" fill="#F17125"/>
<path fill-rule="evenodd" clip-rule="evenodd" d="M65.8399 20.4454H68.9662C68.9662 20.4712 68.9662 20.4723 68.8473 20.4723C69.1317 20.4723 69.4161 20.4706 69.7006 20.469C70.5697 20.4639 71.4389 20.4589 72.308 20.4993C73.5747 20.5801 74.4371 21.9007 74.1137 23.1135C73.8172 24.2184 73.0896 24.7575 71.9038 24.7844H68.2116C67.4031 24.7844 67.1605 25.027 67.1605 25.8355C67.1605 26.2936 67.1635 26.7518 67.1665 27.2099C67.1725 28.1262 67.1785 29.0426 67.1605 29.9589C67.1605 30.0163 67.1728 30.0835 67.1855 30.1535C67.2325 30.4119 67.2864 30.7077 66.7563 30.6865C66.2494 30.6654 66.3052 30.363 66.3531 30.1034C66.3663 30.0317 66.3789 29.9633 66.3789 29.905C66.352 28.5848 66.352 27.2646 66.352 25.9445V25.9433C66.352 25.9094 66.3525 25.8746 66.3531 25.839L66.3531 25.8386C66.3564 25.6193 66.3601 25.3741 66.2442 25.1887C66.0555 24.8653 65.7591 24.6766 65.3548 24.7844C64.9236 24.8922 64.735 25.2156 64.735 25.6468V30.9021C64.735 32.0879 64.9236 32.2766 66.0825 32.2766H71.9577C73.6286 32.2766 74.8953 31.522 75.5421 29.9858C76.1889 28.4766 75.9194 27.0752 74.7875 25.8624C74.5719 25.6199 74.518 25.539 74.7875 25.2426C75.9194 24.0837 76.1889 22.6823 75.596 21.1731C75.0031 19.6638 73.7903 18.8553 72.1733 18.8284C70.7729 18.7925 69.3605 18.8044 67.9441 18.8164C67.2344 18.8224 66.5237 18.8284 65.813 18.8284C65.1931 18.8284 64.8158 19.1518 64.8158 19.6369C64.8158 20.122 65.2201 20.4454 65.8399 20.4454ZM70.0442 26.3879C70.2867 26.3879 70.5293 26.3879 70.7719 26.4014C70.9425 26.4014 71.1132 26.3984 71.2839 26.3954C71.6253 26.3894 71.9666 26.3835 72.308 26.4014C73.4669 26.5092 74.3024 27.4255 74.3024 28.5575C74.3024 29.6894 73.4399 30.6326 72.308 30.6865C71.7381 30.7173 71.1593 30.7129 70.5818 30.7085C70.1489 30.7052 69.7168 30.7019 69.2896 30.7135C68.9931 30.7135 68.9123 30.6057 68.9123 30.3092C68.9123 29.1764 68.8865 28.0693 68.8602 26.9376L68.8602 26.9368L68.8584 26.8596C68.8314 26.5092 68.9123 26.3475 69.3165 26.3745C69.5591 26.3879 69.8016 26.3879 70.0442 26.3879Z" fill="#F17125"/>
<path d="M40.1293 20.0411C40.1293 19.0979 40.3718 18.8553 41.3151 18.8284H42.986C43.9562 18.8284 44.2257 19.0979 44.2257 20.0411V29.9858C44.2257 30.3542 44.2257 30.5361 44.3167 30.6259C44.4054 30.7135 44.5805 30.7135 44.9265 30.7135H50.1818C50.8555 30.7135 51.2059 30.983 51.2059 31.4681C51.2328 31.9801 50.8286 32.3036 50.1818 32.3036H43.7406C42.8513 32.3036 42.5548 32.034 42.5548 31.1447V21.0383C42.5548 20.9953 42.5613 20.9469 42.5679 20.8968C42.5947 20.6958 42.6251 20.467 42.2584 20.4454C41.8811 20.4184 41.7194 20.4723 41.7194 20.9305C41.7733 24.3262 41.7733 27.6681 41.7733 31.0369C41.7733 31.8723 41.5038 32.3305 40.9647 32.3305C40.3988 32.3305 40.1293 31.8993 40.1293 31.0099V20.0411Z" fill="#F17125"/>
<path d="M58.6711 24.7575H57.1619C57.041 24.7575 56.9202 24.7591 56.7989 24.7608C56.4334 24.7659 56.0641 24.771 55.6796 24.7305C55.1945 24.7036 54.8711 24.9192 54.7094 25.3773L53.9009 27.3986C53.416 28.584 52.9311 29.7962 52.4461 31.0085L52.4456 31.0099C52.3108 31.3603 52.2569 31.7106 52.5534 32.0071C52.742 32.2227 53.0116 32.3036 53.308 32.2227C53.7123 32.1149 53.847 31.7915 53.9818 31.4681C54.164 31.0086 54.3485 30.5491 54.5334 30.0889C54.9772 28.9836 55.4227 27.8744 55.8413 26.7518C56.0151 26.3175 56.2763 26.3206 56.5686 26.3241C56.639 26.3249 56.7113 26.3258 56.7846 26.3206C57.1619 26.2936 57.4045 26.3745 57.5392 26.7787C58.1321 28.3957 58.752 29.9858 59.3718 31.5759C59.5874 32.1688 60.0186 32.3844 60.4768 32.1957C60.935 32.0071 61.0697 31.5489 60.8541 30.983C60.3151 29.6085 59.7761 28.234 59.2371 26.8326C59.225 26.8024 59.2048 26.7681 59.1834 26.7319C59.1095 26.6066 59.022 26.4581 59.2101 26.3745C59.4527 26.2667 59.7222 26.2936 59.83 26.644C60.0186 27.183 60.2342 27.695 60.4498 28.2071C60.6924 28.7865 60.9282 29.3727 61.164 29.9589C61.3999 30.545 61.6357 31.1312 61.8782 31.7106C62.0399 32.1149 62.3633 32.2766 62.7676 32.2497C63.1718 32.2227 63.3874 31.9262 63.4413 31.5489C63.463 31.3537 63.3974 31.1934 63.3288 31.0258C63.3122 30.9852 63.2954 30.9442 63.2796 30.9021C61.7704 27.1021 60.2612 23.3291 58.725 19.5291C58.4825 18.9092 58.0782 18.6936 57.6201 18.8823C57.135 19.0979 57.0002 19.5291 57.2428 20.1489C57.4093 20.5614 57.5735 20.9738 57.7375 21.3855C58.1306 22.3729 58.5222 23.3563 58.9406 24.3262C59.0754 24.6766 59.0215 24.7575 58.6711 24.7575Z" fill="#F17125"/>
</g>
</g>
<defs>
<clipPath id="clip0_1211_2077">
<rect width="135" height="50" fill="white"/>
</clipPath>
<clipPath id="clip1_1211_2077">
<rect width="76" height="35.844" fill="white" transform="translate(0 7.07802)"/>
</clipPath>
</defs>
</svg>
