<svg width="106" height="40" viewBox="0 0 106 40" fill="none" xmlns="http://www.w3.org/2000/svg">
<g clip-path="url(#clip0_49872_51896)">
<path d="M68.4438 25.989H65.5383V14.136L74.884 14.141C75.9094 14.1242 76.9054 14.4839 77.6835 15.152C77.6835 15.152 78.7947 16.0827 78.7947 18.3466V25.9861H75.8935V18.1498C75.8935 18.1498 75.9293 17.3507 75.6565 17.0693C75.5684 16.9718 75.4605 16.8941 75.34 16.8416C75.2195 16.789 75.0892 16.7626 74.9577 16.7643H68.4352L68.4474 25.989H68.4438ZM80.8101 25.989V14.136H92.4727V16.7708H83.7027V18.7863H89.7963V21.3308H83.7027V23.352H92.5307V25.9875H80.8101V25.989ZM60.4764 25.989V14.136H63.3689V25.9854H60.4764V25.989ZM96.6325 25.989V16.7722H93.9017V14.136H104.762V16.7708H99.525V25.9854H96.6325V25.989ZM50.916 25.9868V16.7722H48.1852V14.136H59.0452V16.7708H53.8085V25.9854H50.916V25.9868ZM42.1896 18.7841C42.6257 18.827 43.066 18.7921 43.4898 18.681C43.5791 18.6268 43.6534 18.5511 43.706 18.4608C43.7585 18.3705 43.7876 18.2685 43.7906 18.1641V17.3894C43.7886 17.2847 43.76 17.1823 43.7074 17.0919C43.6547 17.0014 43.5799 16.9259 43.4898 16.8724C42.9953 16.7461 42.4817 16.7121 41.9748 16.7722H36.3387V18.7841H42.1896ZM43.7462 25.9868V21.9401C43.7458 21.8349 43.7175 21.7317 43.6642 21.641C43.6108 21.5503 43.5344 21.4754 43.4426 21.4239C43.0676 21.3223 42.6775 21.2883 42.2906 21.3237H36.3387V25.984H33.4461V14.136H42.4767C44.0361 14.141 45.113 14.3701 45.8547 15.0904C46.1684 15.466 46.4033 15.9009 46.5454 16.3691C46.6875 16.8374 46.7338 17.3295 46.6817 17.8161V18.6595C46.6772 19.059 46.5874 19.4528 46.4184 19.8147C46.2494 20.1767 46.0049 20.4983 45.7015 20.7581L45.8096 20.8118C45.939 20.8735 46.0545 20.9609 46.149 21.0688C46.4745 21.5067 46.619 22.053 46.5528 22.5945V25.9868H43.7462ZM0 14.136V25.9854H2.89255V21.3316H11.6568V18.7848H2.89255V16.7715H13.0816V14.136H0Z" fill="#151617"/>
<path d="M103.767 23.8898V24.4339H104.277C104.413 24.4339 104.546 24.3967 104.566 24.1934C104.595 23.9234 104.4 23.8905 104.277 23.8905L103.767 23.8898ZM103.563 23.7108H104.269C104.514 23.7108 104.751 23.7566 104.771 24.1132C104.78 24.1923 104.765 24.2725 104.728 24.3431C104.691 24.4136 104.633 24.4713 104.563 24.5084C104.725 24.6122 104.73 24.6373 104.755 24.9108C104.771 25.1184 104.742 25.1513 104.826 25.2888H104.586L104.553 25.0898C104.52 24.9022 104.611 24.6122 104.283 24.6122H103.764V25.2888H103.561V23.7137L103.563 23.7108ZM104.095 23.2748C103.844 23.2756 103.6 23.3506 103.392 23.4903C103.184 23.63 103.023 23.8281 102.928 24.0596C102.832 24.2911 102.808 24.5456 102.857 24.791C102.907 25.0365 103.028 25.2617 103.205 25.4384C103.382 25.6151 103.608 25.7353 103.853 25.7839C104.099 25.8324 104.353 25.8071 104.585 25.7111C104.816 25.6151 105.013 25.4527 105.152 25.2445C105.291 25.0364 105.365 24.7916 105.365 24.5413C105.366 24.3745 105.333 24.2092 105.27 24.0551C105.206 23.9009 105.112 23.7609 104.994 23.6431C104.876 23.5254 104.736 23.4322 104.581 23.369C104.427 23.3057 104.261 23.2737 104.095 23.2748ZM104.099 25.9733C103.816 25.9733 103.539 25.8893 103.303 25.732C103.068 25.5746 102.884 25.351 102.776 25.0893C102.668 24.8277 102.639 24.5397 102.695 24.262C102.75 23.9842 102.886 23.729 103.086 23.5288C103.287 23.3285 103.542 23.1921 103.82 23.1369C104.097 23.0816 104.385 23.11 104.647 23.2184C104.909 23.3268 105.132 23.5103 105.29 23.7458C105.447 23.9813 105.531 24.2581 105.531 24.5413C105.531 24.9211 105.38 25.2853 105.111 25.5539C104.843 25.8224 104.479 25.9733 104.099 25.9733Z" fill="#151617"/>
<path d="M29.4732 26.1C30.0022 25.8498 30.4534 25.4607 30.7787 24.9743C31.104 24.4878 31.2912 23.9222 31.3204 23.3378V22.9447H26.5019V26.1H29.4732ZM31.3204 17.1575V16.7995C31.1364 15.3818 30.351 14.2628 29.3486 14H26.5026V17.1575H31.3211H31.3204ZM14.3604 22.9447V23.3349C14.3888 23.92 14.5758 24.4864 14.9013 24.9735C15.2268 25.4605 15.6785 25.8499 16.2083 26.1H19.1638V22.9447H14.3604ZM16.3322 14C15.3298 14.2628 14.5422 15.3826 14.3604 16.8045V17.1575H19.1646V14H16.3322ZM31.3211 18.472H26.5026V21.6294H31.3211V18.472ZM20.4769 26.1H25.1909V22.944H20.4769V26.1ZM25.1902 14H20.4769V17.1575H25.1909V14H25.1902ZM14.3604 21.6294H19.1646V18.472H14.3604V21.6294Z" fill="#151617"/>
</g>
<defs>
<clipPath id="clip0_49872_51896">
<rect width="105.5" height="40" fill="white"/>
</clipPath>
</defs>
</svg>
