<?xml version="1.0" encoding="UTF-8" standalone="no"?>
<svg id="Слой_1" data-name="Слой 1" xmlns="http://www.w3.org/2000/svg" viewBox="0 0 37 37">
  <defs>
    <style>
      .cls-1 {
        fill: #338ffa;
      }

      .cls-2 {
        fill: none;
      }
    </style>
  </defs>
  <title>M</title>
  <g>
    <path class="cls-1" d="M22.84,12.1l2-2.94L21.48,8,19.36,5.55,17.24,8,13.5,9.19l2.37,3L16,15.81l3.39-1.18,3.29.86Zm-2-.66-.07,1.49-1.48-.39L17.9,13l-.06-1.63-1-1.21,1.51-.5,1-1.11,1,1.11,1.42.49Z"/>
    <path class="cls-1" d="M27.17,33.59v-4H25.5V26.32H22.85v-6a10.53,10.53,0,0,0,7.21-10V1.46L9,1.41v9a10.51,10.51,0,0,0,6.84,9.84v6.11H13.53v3.25H11.87v4H6.23v2H32.77v-2ZM11,10.37v-7l17,0v6.91a8.52,8.52,0,1,1-17,0Zm6.84,10.89h3v5.06h-3Zm-2.34,7.06h8v1.25h-8Zm-1.66,5.27v-2h11.3v2Z"/>
  </g>
  <rect class="cls-2" width="37" height="37"/>
</svg>
