<svg width="51" height="51" viewBox="0 0 51 51" fill="none" xmlns="http://www.w3.org/2000/svg">
<g id="%D0%92%D1%81%D0%B5-%D0%B8%D0%BA%D0%BE%D0%BD%D0%BA%D0%B8_1-4.svg" clip-path="url(#clip0_50277_52507)">
<path id="Vector" d="M64.8495 -8.64062H-373.664V60.2783H64.8495V-8.64062Z" stroke="white" stroke-width="1.35135" stroke-miterlimit="10"/>
<g id="Group">
<path id="Vector_2" d="M8.55173 18.1838L6.63281 16.2784L19.3761 3.53516L23.7274 7.90002L21.822 9.80543L19.3761 7.35948L8.55173 18.1838Z" fill="#338FFA"/>
<path id="Vector_3" d="M38.1322 18.1838L27.3214 7.35948L16.497 18.1838L14.5781 16.2784L27.3214 3.53516L40.0511 16.2784L38.1322 18.1838Z" fill="#338FFA"/>
<path id="Vector_4" d="M45.2412 47.5333H1.82227V15.8711H45.2412V26.3035H42.5385V18.5738H4.52497V44.8306H42.5385V36.7224H45.2412V47.5333Z" fill="#338FFA"/>
<path id="Vector_5" d="M49.4979 37.6173H32.4844V25.793H49.4979V37.6173ZM35.1871 34.9146H46.7952V28.4957H35.1871V34.9146Z" fill="#338FFA"/>
<path id="Vector_6" d="M45.444 30.3594H42.3359V33.0621H45.444V30.3594Z" fill="#338FFA"/>
</g>
</g>
<defs>
<clipPath id="clip0_50277_52507">
<rect width="50" height="50" fill="white" transform="translate(0.660156 0.820312)"/>
</clipPath>
</defs>
</svg>
