<svg width="16" height="16" viewBox="0 0 16 16" fill="none" xmlns="http://www.w3.org/2000/svg"><g clip-path="url(#clip0_48839_46548)"><g clip-path="url(#clip1_48839_46548)"><path d="M12.857 2H3.143C2.512 2 2 2.716 2 3.6v8.8c0 .884.512 1.6 1.143 1.6h9.714c.631 0 1.143-.716 1.143-1.6V3.6c0-.884-.512-1.6-1.143-1.6z" fill="#01953F"/><path fill-rule="evenodd" clip-rule="evenodd" d="M8 4.857L12.285 8 8 11.143 3.714 8" fill="#FADB14"/><path d="M8 10a2 2 0 1 0 0-4 2 2 0 0 0 0 4z" fill="#2F54EB"/><path fill-rule="evenodd" clip-rule="evenodd" d="M7.143 8.857v.571h.571v-.571h-.571zm1.142 0v.571h.572v-.571h-.572z" fill="#C6D6E5"/><path d="M6.571 7.143s1.294.229 2.227.628L10 8.286" stroke="#fff"/></g></g><defs><clipPath id="clip0_48839_46548"><rect x="2" y="2" width="12" height="12" rx="6" fill="#fff"/></clipPath><clipPath id="clip1_48839_46548"><path fill="#fff" transform="translate(2 2)" d="M0 0h12v12H0z"/></clipPath></defs></svg>