<?xml version="1.0" encoding="UTF-8" standalone="no"?>
<svg id="Слой_1" data-name="Слой 1" xmlns="http://www.w3.org/2000/svg" viewBox="0 0 20 20">
  <defs>
    <style>
      .cls-1 {
        fill: #338ffa;
      }
    </style>
  </defs>
  <title>Все иконки</title>
  <g>
    <path class="cls-1" d="M17,17H3V3H17ZM4.78,15.22H15.22V4.78H4.78Z"/>
    <path class="cls-1" d="M13.85,13.85H6.15V6.15h7.7ZM8,12h4.1V8H8Z"/>
    <g>
      <rect class="cls-1" x="5.88" y="1" width="1.8" height="2.88"/>
      <rect class="cls-1" x="8.03" y="1" width="1.8" height="2.88"/>
      <rect class="cls-1" x="10.17" y="1" width="1.8" height="2.88"/>
      <rect class="cls-1" x="12.32" y="1" width="1.8" height="2.88"/>
    </g>
    <g>
      <rect class="cls-1" x="5.88" y="16.12" width="1.8" height="2.88"/>
      <rect class="cls-1" x="8.03" y="16.12" width="1.8" height="2.88"/>
      <rect class="cls-1" x="10.17" y="16.12" width="1.8" height="2.88"/>
      <rect class="cls-1" x="12.32" y="16.12" width="1.8" height="2.88"/>
    </g>
    <g>
      <rect class="cls-1" x="1" y="5.88" width="2.88" height="1.8"/>
      <rect class="cls-1" x="1" y="8.03" width="2.88" height="1.8"/>
      <rect class="cls-1" x="1" y="10.17" width="2.88" height="1.8"/>
      <rect class="cls-1" x="1" y="12.32" width="2.88" height="1.8"/>
    </g>
    <g>
      <rect class="cls-1" x="16.12" y="5.88" width="2.88" height="1.8"/>
      <rect class="cls-1" x="16.12" y="8.03" width="2.88" height="1.8"/>
      <rect class="cls-1" x="16.12" y="10.17" width="2.88" height="1.8"/>
      <rect class="cls-1" x="16.12" y="12.32" width="2.88" height="1.8"/>
    </g>
  </g>
</svg>
